<svg xmlns="http://www.w3.org/2000/svg" xmlns:xlink="http://www.w3.org/1999/xlink" width="2000" zoomAndPan="magnify" viewBox="0 0 1500 374.999991" height="500" preserveAspectRatio="xMidYMid meet" version="1.0"><defs><clipPath id="e481519c62"><path d="M 1190 0 L 1500 0 L 1500 375 L 1190 375 Z M 1190 0 " clip-rule="nonzero"/></clipPath><clipPath id="5fcd6f7f0e"><path d="M 1568.472656 -157.230469 L 1966.945312 338.46875 L 1449.035156 754.792969 L 1050.5625 259.097656 Z M 1568.472656 -157.230469 " clip-rule="nonzero"/></clipPath><clipPath id="4737848dc2"><path d="M 1568.472656 -157.230469 L 1966.945312 338.46875 L 1449.035156 754.792969 L 1050.5625 259.097656 Z M 1568.472656 -157.230469 " clip-rule="nonzero"/></clipPath><clipPath id="7986b1bd01"><path d="M 1499 229 L 1500 229 L 1500 240 L 1499 240 Z M 1499 229 " clip-rule="nonzero"/></clipPath><clipPath id="a585edbac2"><path d="M 1568.472656 -157.230469 L 1966.945312 338.46875 L 1449.035156 754.792969 L 1050.5625 259.097656 Z M 1568.472656 -157.230469 " clip-rule="nonzero"/></clipPath><clipPath id="de29c5d99d"><path d="M 1568.472656 -157.230469 L 1966.945312 338.46875 L 1449.035156 754.792969 L 1050.5625 259.097656 Z M 1568.472656 -157.230469 " clip-rule="nonzero"/></clipPath><clipPath id="3bce645853"><path d="M 1491 252 L 1498 252 L 1498 260 L 1491 260 Z M 1491 252 " clip-rule="nonzero"/></clipPath><clipPath id="70800abf07"><path d="M 1568.472656 -157.230469 L 1966.945312 338.46875 L 1449.035156 754.792969 L 1050.5625 259.097656 Z M 1568.472656 -157.230469 " clip-rule="nonzero"/></clipPath><clipPath id="6badbf6eb2"><path d="M 1568.472656 -157.230469 L 1966.945312 338.46875 L 1449.035156 754.792969 L 1050.5625 259.097656 Z M 1568.472656 -157.230469 " clip-rule="nonzero"/></clipPath><clipPath id="1cb0d2a026"><path d="M 1440 351 L 1447 351 L 1447 359 L 1440 359 Z M 1440 351 " clip-rule="nonzero"/></clipPath><clipPath id="5143a8541c"><path d="M 1568.472656 -157.230469 L 1966.945312 338.46875 L 1449.035156 754.792969 L 1050.5625 259.097656 Z M 1568.472656 -157.230469 " clip-rule="nonzero"/></clipPath><clipPath id="9737961880"><path d="M 1568.472656 -157.230469 L 1966.945312 338.46875 L 1449.035156 754.792969 L 1050.5625 259.097656 Z M 1568.472656 -157.230469 " clip-rule="nonzero"/></clipPath><clipPath id="edccbd22be"><path d="M 1329 101 L 1336 101 L 1336 108 L 1329 108 Z M 1329 101 " clip-rule="nonzero"/></clipPath><clipPath id="493c6482be"><path d="M 1568.472656 -157.230469 L 1966.945312 338.46875 L 1449.035156 754.792969 L 1050.5625 259.097656 Z M 1568.472656 -157.230469 " clip-rule="nonzero"/></clipPath><clipPath id="1510261fa1"><path d="M 1568.472656 -157.230469 L 1966.945312 338.46875 L 1449.035156 754.792969 L 1050.5625 259.097656 Z M 1568.472656 -157.230469 " clip-rule="nonzero"/></clipPath><clipPath id="6f192d4a51"><path d="M 1386 192 L 1393 192 L 1393 199 L 1386 199 Z M 1386 192 " clip-rule="nonzero"/></clipPath><clipPath id="35999ab316"><path d="M 1568.472656 -157.230469 L 1966.945312 338.46875 L 1449.035156 754.792969 L 1050.5625 259.097656 Z M 1568.472656 -157.230469 " clip-rule="nonzero"/></clipPath><clipPath id="2b6e32a3d7"><path d="M 1568.472656 -157.230469 L 1966.945312 338.46875 L 1449.035156 754.792969 L 1050.5625 259.097656 Z M 1568.472656 -157.230469 " clip-rule="nonzero"/></clipPath><clipPath id="68b8edd5dc"><path d="M 1419 18 L 1426 18 L 1426 25 L 1419 25 Z M 1419 18 " clip-rule="nonzero"/></clipPath><clipPath id="7cbdc47374"><path d="M 1568.472656 -157.230469 L 1966.945312 338.46875 L 1449.035156 754.792969 L 1050.5625 259.097656 Z M 1568.472656 -157.230469 " clip-rule="nonzero"/></clipPath><clipPath id="10178c7b0f"><path d="M 1568.472656 -157.230469 L 1966.945312 338.46875 L 1449.035156 754.792969 L 1050.5625 259.097656 Z M 1568.472656 -157.230469 " clip-rule="nonzero"/></clipPath><clipPath id="85910c14e3"><path d="M 1287 245 L 1294 245 L 1294 252 L 1287 252 Z M 1287 245 " clip-rule="nonzero"/></clipPath><clipPath id="daf37dca96"><path d="M 1568.472656 -157.230469 L 1966.945312 338.46875 L 1449.035156 754.792969 L 1050.5625 259.097656 Z M 1568.472656 -157.230469 " clip-rule="nonzero"/></clipPath><clipPath id="e13a7e6d4c"><path d="M 1568.472656 -157.230469 L 1966.945312 338.46875 L 1449.035156 754.792969 L 1050.5625 259.097656 Z M 1568.472656 -157.230469 " clip-rule="nonzero"/></clipPath><clipPath id="0d7e58029b"><path d="M 1340 324 L 1347 324 L 1347 331 L 1340 331 Z M 1340 324 " clip-rule="nonzero"/></clipPath><clipPath id="6f9a11e7c1"><path d="M 1568.472656 -157.230469 L 1966.945312 338.46875 L 1449.035156 754.792969 L 1050.5625 259.097656 Z M 1568.472656 -157.230469 " clip-rule="nonzero"/></clipPath><clipPath id="c7ee759867"><path d="M 1568.472656 -157.230469 L 1966.945312 338.46875 L 1449.035156 754.792969 L 1050.5625 259.097656 Z M 1568.472656 -157.230469 " clip-rule="nonzero"/></clipPath><clipPath id="933c0043ce"><path d="M 1322 230 L 1333 230 L 1333 240 L 1322 240 Z M 1322 230 " clip-rule="nonzero"/></clipPath><clipPath id="b93f0c06c7"><path d="M 1568.472656 -157.230469 L 1966.945312 338.46875 L 1449.035156 754.792969 L 1050.5625 259.097656 Z M 1568.472656 -157.230469 " clip-rule="nonzero"/></clipPath><clipPath id="3e9d8c6796"><path d="M 1568.472656 -157.230469 L 1966.945312 338.46875 L 1449.035156 754.792969 L 1050.5625 259.097656 Z M 1568.472656 -157.230469 " clip-rule="nonzero"/></clipPath><clipPath id="2e8c3f87fc"><path d="M 1309 114 L 1320 114 L 1320 125 L 1309 125 Z M 1309 114 " clip-rule="nonzero"/></clipPath><clipPath id="5676a2439e"><path d="M 1568.472656 -157.230469 L 1966.945312 338.46875 L 1449.035156 754.792969 L 1050.5625 259.097656 Z M 1568.472656 -157.230469 " clip-rule="nonzero"/></clipPath><clipPath id="8dcd155e63"><path d="M 1568.472656 -157.230469 L 1966.945312 338.46875 L 1449.035156 754.792969 L 1050.5625 259.097656 Z M 1568.472656 -157.230469 " clip-rule="nonzero"/></clipPath><clipPath id="a9075524c8"><path d="M 1472 177 L 1483 177 L 1483 188 L 1472 188 Z M 1472 177 " clip-rule="nonzero"/></clipPath><clipPath id="7181702b00"><path d="M 1568.472656 -157.230469 L 1966.945312 338.46875 L 1449.035156 754.792969 L 1050.5625 259.097656 Z M 1568.472656 -157.230469 " clip-rule="nonzero"/></clipPath><clipPath id="9409bffa80"><path d="M 1568.472656 -157.230469 L 1966.945312 338.46875 L 1449.035156 754.792969 L 1050.5625 259.097656 Z M 1568.472656 -157.230469 " clip-rule="nonzero"/></clipPath><clipPath id="256a800e07"><path d="M 1178 145 L 1259 145 L 1259 230 L 1178 230 Z M 1178 145 " clip-rule="nonzero"/></clipPath><clipPath id="184ae45dde"><path d="M 1568.472656 -157.230469 L 1966.945312 338.46875 L 1449.035156 754.792969 L 1050.5625 259.097656 Z M 1568.472656 -157.230469 " clip-rule="nonzero"/></clipPath><clipPath id="0390c6ae8a"><path d="M 1568.472656 -157.230469 L 1966.945312 338.46875 L 1449.035156 754.792969 L 1050.5625 259.097656 Z M 1568.472656 -157.230469 " clip-rule="nonzero"/></clipPath><clipPath id="ce79ba62a4"><path d="M 1155 245 L 1192 245 L 1192 282 L 1155 282 Z M 1155 245 " clip-rule="nonzero"/></clipPath><clipPath id="42ad0da5a6"><path d="M 1568.472656 -157.230469 L 1966.945312 338.46875 L 1449.035156 754.792969 L 1050.5625 259.097656 Z M 1568.472656 -157.230469 " clip-rule="nonzero"/></clipPath><clipPath id="73ccc64e1d"><path d="M 1568.472656 -157.230469 L 1966.945312 338.46875 L 1449.035156 754.792969 L 1050.5625 259.097656 Z M 1568.472656 -157.230469 " clip-rule="nonzero"/></clipPath><clipPath id="2cfa9da79a"><path d="M 1212 182 L 1219 182 L 1219 189 L 1212 189 Z M 1212 182 " clip-rule="nonzero"/></clipPath><clipPath id="6414681d48"><path d="M 1568.472656 -157.230469 L 1966.945312 338.46875 L 1449.035156 754.792969 L 1050.5625 259.097656 Z M 1568.472656 -157.230469 " clip-rule="nonzero"/></clipPath><clipPath id="a93a22f1a7"><path d="M 1568.472656 -157.230469 L 1966.945312 338.46875 L 1449.035156 754.792969 L 1050.5625 259.097656 Z M 1568.472656 -157.230469 " clip-rule="nonzero"/></clipPath><clipPath id="fad72310e2"><path d="M 1217 203 L 1227 203 L 1227 213 L 1217 213 Z M 1217 203 " clip-rule="nonzero"/></clipPath><clipPath id="2fc7277545"><path d="M 1568.472656 -157.230469 L 1966.945312 338.46875 L 1449.035156 754.792969 L 1050.5625 259.097656 Z M 1568.472656 -157.230469 " clip-rule="nonzero"/></clipPath><clipPath id="04407f8ce7"><path d="M 1568.472656 -157.230469 L 1966.945312 338.46875 L 1449.035156 754.792969 L 1050.5625 259.097656 Z M 1568.472656 -157.230469 " clip-rule="nonzero"/></clipPath><clipPath id="95a13c6b81"><path d="M 0 0 L 253 0 L 253 375 L 0 375 Z M 0 0 " clip-rule="nonzero"/></clipPath><clipPath id="9e3f43104b"><path d="M 4.027344 -157.230469 L 357.867188 162.65625 L 23.898438 532.074219 L -329.941406 212.1875 Z M 4.027344 -157.230469 " clip-rule="nonzero"/></clipPath><clipPath id="19274eed1e"><path d="M 4.027344 -157.230469 L 357.867188 162.65625 L 23.898438 532.074219 L -329.941406 212.1875 Z M 4.027344 -157.230469 " clip-rule="nonzero"/></clipPath><clipPath id="a19221ac50"><path d="M 0 136 L 6 136 L 6 145 L 0 145 Z M 0 136 " clip-rule="nonzero"/></clipPath><clipPath id="3f802f2472"><path d="M 4.027344 -157.230469 L 357.867188 162.65625 L 23.898438 532.074219 L -329.941406 212.1875 Z M 4.027344 -157.230469 " clip-rule="nonzero"/></clipPath><clipPath id="29d9942af9"><path d="M 4.027344 -157.230469 L 357.867188 162.65625 L 23.898438 532.074219 L -329.941406 212.1875 Z M 4.027344 -157.230469 " clip-rule="nonzero"/></clipPath><clipPath id="2dca006f1c"><path d="M 42 240 L 50 240 L 50 248 L 42 248 Z M 42 240 " clip-rule="nonzero"/></clipPath><clipPath id="608a9086a2"><path d="M 4.027344 -157.230469 L 357.867188 162.65625 L 23.898438 532.074219 L -329.941406 212.1875 Z M 4.027344 -157.230469 " clip-rule="nonzero"/></clipPath><clipPath id="20b02616d3"><path d="M 4.027344 -157.230469 L 357.867188 162.65625 L 23.898438 532.074219 L -329.941406 212.1875 Z M 4.027344 -157.230469 " clip-rule="nonzero"/></clipPath><clipPath id="f4a653aa5f"><path d="M 0 154 L 1 154 L 1 161 L 0 161 Z M 0 154 " clip-rule="nonzero"/></clipPath><clipPath id="00566d412e"><path d="M 4.027344 -157.230469 L 357.867188 162.65625 L 23.898438 532.074219 L -329.941406 212.1875 Z M 4.027344 -157.230469 " clip-rule="nonzero"/></clipPath><clipPath id="c3e71c535e"><path d="M 4.027344 -157.230469 L 357.867188 162.65625 L 23.898438 532.074219 L -329.941406 212.1875 Z M 4.027344 -157.230469 " clip-rule="nonzero"/></clipPath><clipPath id="37ada0c071"><path d="M 70 229 L 76 229 L 76 235 L 70 235 Z M 70 229 " clip-rule="nonzero"/></clipPath><clipPath id="78ed7303ad"><path d="M 4.027344 -157.230469 L 357.867188 162.65625 L 23.898438 532.074219 L -329.941406 212.1875 Z M 4.027344 -157.230469 " clip-rule="nonzero"/></clipPath><clipPath id="2564d9cd47"><path d="M 4.027344 -157.230469 L 357.867188 162.65625 L 23.898438 532.074219 L -329.941406 212.1875 Z M 4.027344 -157.230469 " clip-rule="nonzero"/></clipPath><clipPath id="f3417a7eb6"><path d="M 74 161 L 80 161 L 80 167 L 74 167 Z M 74 161 " clip-rule="nonzero"/></clipPath><clipPath id="6ea0f560da"><path d="M 4.027344 -157.230469 L 357.867188 162.65625 L 23.898438 532.074219 L -329.941406 212.1875 Z M 4.027344 -157.230469 " clip-rule="nonzero"/></clipPath><clipPath id="eeda826759"><path d="M 4.027344 -157.230469 L 357.867188 162.65625 L 23.898438 532.074219 L -329.941406 212.1875 Z M 4.027344 -157.230469 " clip-rule="nonzero"/></clipPath><clipPath id="126148e95c"><path d="M 85 358 L 91 358 L 91 364 L 85 364 Z M 85 358 " clip-rule="nonzero"/></clipPath><clipPath id="4a3f83dd8a"><path d="M 4.027344 -157.230469 L 357.867188 162.65625 L 23.898438 532.074219 L -329.941406 212.1875 Z M 4.027344 -157.230469 " clip-rule="nonzero"/></clipPath><clipPath id="d102de1818"><path d="M 4.027344 -157.230469 L 357.867188 162.65625 L 23.898438 532.074219 L -329.941406 212.1875 Z M 4.027344 -157.230469 " clip-rule="nonzero"/></clipPath><clipPath id="fa1b026086"><path d="M 23 356 L 29 356 L 29 361 L 23 361 Z M 23 356 " clip-rule="nonzero"/></clipPath><clipPath id="94837405ce"><path d="M 4.027344 -157.230469 L 357.867188 162.65625 L 23.898438 532.074219 L -329.941406 212.1875 Z M 4.027344 -157.230469 " clip-rule="nonzero"/></clipPath><clipPath id="416ce3e30c"><path d="M 4.027344 -157.230469 L 357.867188 162.65625 L 23.898438 532.074219 L -329.941406 212.1875 Z M 4.027344 -157.230469 " clip-rule="nonzero"/></clipPath><clipPath id="caca9897ea"><path d="M 106 20 L 111 20 L 111 26 L 106 26 Z M 106 20 " clip-rule="nonzero"/></clipPath><clipPath id="2b0c19e01d"><path d="M 4.027344 -157.230469 L 357.867188 162.65625 L 23.898438 532.074219 L -329.941406 212.1875 Z M 4.027344 -157.230469 " clip-rule="nonzero"/></clipPath><clipPath id="ee2d8e7887"><path d="M 4.027344 -157.230469 L 357.867188 162.65625 L 23.898438 532.074219 L -329.941406 212.1875 Z M 4.027344 -157.230469 " clip-rule="nonzero"/></clipPath><clipPath id="c6f722488a"><path d="M 130 18 L 135 18 L 135 24 L 130 24 Z M 130 18 " clip-rule="nonzero"/></clipPath><clipPath id="1ed1411bd2"><path d="M 4.027344 -157.230469 L 357.867188 162.65625 L 23.898438 532.074219 L -329.941406 212.1875 Z M 4.027344 -157.230469 " clip-rule="nonzero"/></clipPath><clipPath id="bb61166d75"><path d="M 4.027344 -157.230469 L 357.867188 162.65625 L 23.898438 532.074219 L -329.941406 212.1875 Z M 4.027344 -157.230469 " clip-rule="nonzero"/></clipPath><clipPath id="2b950f1d59"><path d="M 191 216 L 197 216 L 197 221 L 191 221 Z M 191 216 " clip-rule="nonzero"/></clipPath><clipPath id="106df33999"><path d="M 4.027344 -157.230469 L 357.867188 162.65625 L 23.898438 532.074219 L -329.941406 212.1875 Z M 4.027344 -157.230469 " clip-rule="nonzero"/></clipPath><clipPath id="e213d8d7df"><path d="M 4.027344 -157.230469 L 357.867188 162.65625 L 23.898438 532.074219 L -329.941406 212.1875 Z M 4.027344 -157.230469 " clip-rule="nonzero"/></clipPath><clipPath id="8643c8ad33"><path d="M 218 98 L 224 98 L 224 104 L 218 104 Z M 218 98 " clip-rule="nonzero"/></clipPath><clipPath id="127ce008ca"><path d="M 4.027344 -157.230469 L 357.867188 162.65625 L 23.898438 532.074219 L -329.941406 212.1875 Z M 4.027344 -157.230469 " clip-rule="nonzero"/></clipPath><clipPath id="dbb2cf1938"><path d="M 4.027344 -157.230469 L 357.867188 162.65625 L 23.898438 532.074219 L -329.941406 212.1875 Z M 4.027344 -157.230469 " clip-rule="nonzero"/></clipPath><clipPath id="e6fd263111"><path d="M 179 316 L 184 316 L 184 322 L 179 322 Z M 179 316 " clip-rule="nonzero"/></clipPath><clipPath id="1486ecfe2f"><path d="M 4.027344 -157.230469 L 357.867188 162.65625 L 23.898438 532.074219 L -329.941406 212.1875 Z M 4.027344 -157.230469 " clip-rule="nonzero"/></clipPath><clipPath id="34479db24b"><path d="M 4.027344 -157.230469 L 357.867188 162.65625 L 23.898438 532.074219 L -329.941406 212.1875 Z M 4.027344 -157.230469 " clip-rule="nonzero"/></clipPath><clipPath id="7a91ceb30d"><path d="M 27 325 L 32 325 L 32 331 L 27 331 Z M 27 325 " clip-rule="nonzero"/></clipPath><clipPath id="173dc66cd7"><path d="M 4.027344 -157.230469 L 357.867188 162.65625 L 23.898438 532.074219 L -329.941406 212.1875 Z M 4.027344 -157.230469 " clip-rule="nonzero"/></clipPath><clipPath id="270a31e2ea"><path d="M 4.027344 -157.230469 L 357.867188 162.65625 L 23.898438 532.074219 L -329.941406 212.1875 Z M 4.027344 -157.230469 " clip-rule="nonzero"/></clipPath><clipPath id="19fe7c9813"><path d="M 206 214 L 214 214 L 214 222 L 206 222 Z M 206 214 " clip-rule="nonzero"/></clipPath><clipPath id="2a686eb3b0"><path d="M 4.027344 -157.230469 L 357.867188 162.65625 L 23.898438 532.074219 L -329.941406 212.1875 Z M 4.027344 -157.230469 " clip-rule="nonzero"/></clipPath><clipPath id="c7133d8306"><path d="M 4.027344 -157.230469 L 357.867188 162.65625 L 23.898438 532.074219 L -329.941406 212.1875 Z M 4.027344 -157.230469 " clip-rule="nonzero"/></clipPath><clipPath id="1ed4203ea1"><path d="M 232 154 L 240 154 L 240 162 L 232 162 Z M 232 154 " clip-rule="nonzero"/></clipPath><clipPath id="9a0b8c19b9"><path d="M 4.027344 -157.230469 L 357.867188 162.65625 L 23.898438 532.074219 L -329.941406 212.1875 Z M 4.027344 -157.230469 " clip-rule="nonzero"/></clipPath><clipPath id="06b2eaa3c4"><path d="M 4.027344 -157.230469 L 357.867188 162.65625 L 23.898438 532.074219 L -329.941406 212.1875 Z M 4.027344 -157.230469 " clip-rule="nonzero"/></clipPath><clipPath id="6a683be3b2"><path d="M 96 54 L 104 54 L 104 62 L 96 62 Z M 96 54 " clip-rule="nonzero"/></clipPath><clipPath id="aef9267593"><path d="M 4.027344 -157.230469 L 357.867188 162.65625 L 23.898438 532.074219 L -329.941406 212.1875 Z M 4.027344 -157.230469 " clip-rule="nonzero"/></clipPath><clipPath id="b59d32386b"><path d="M 4.027344 -157.230469 L 357.867188 162.65625 L 23.898438 532.074219 L -329.941406 212.1875 Z M 4.027344 -157.230469 " clip-rule="nonzero"/></clipPath><clipPath id="1d710e85ce"><path d="M 150 126 L 158 126 L 158 134 L 150 134 Z M 150 126 " clip-rule="nonzero"/></clipPath><clipPath id="076eabc1ac"><path d="M 4.027344 -157.230469 L 357.867188 162.65625 L 23.898438 532.074219 L -329.941406 212.1875 Z M 4.027344 -157.230469 " clip-rule="nonzero"/></clipPath><clipPath id="8c98fe8ead"><path d="M 4.027344 -157.230469 L 357.867188 162.65625 L 23.898438 532.074219 L -329.941406 212.1875 Z M 4.027344 -157.230469 " clip-rule="nonzero"/></clipPath><clipPath id="31a3bbdf62"><path d="M 246 179 L 284 179 L 284 221 L 246 221 Z M 246 179 " clip-rule="nonzero"/></clipPath><clipPath id="b000eeb814"><path d="M 4.027344 -157.230469 L 357.867188 162.65625 L 23.898438 532.074219 L -329.941406 212.1875 Z M 4.027344 -157.230469 " clip-rule="nonzero"/></clipPath><clipPath id="9186dcb6b8"><path d="M 4.027344 -157.230469 L 357.867188 162.65625 L 23.898438 532.074219 L -329.941406 212.1875 Z M 4.027344 -157.230469 " clip-rule="nonzero"/></clipPath><clipPath id="e9fccd53bd"><path d="M 256 195 L 261 195 L 261 200 L 256 200 Z M 256 195 " clip-rule="nonzero"/></clipPath><clipPath id="467d73b4f4"><path d="M 4.027344 -157.230469 L 357.867188 162.65625 L 23.898438 532.074219 L -329.941406 212.1875 Z M 4.027344 -157.230469 " clip-rule="nonzero"/></clipPath><clipPath id="3205fc8527"><path d="M 4.027344 -157.230469 L 357.867188 162.65625 L 23.898438 532.074219 L -329.941406 212.1875 Z M 4.027344 -157.230469 " clip-rule="nonzero"/></clipPath></defs><rect x="-150" width="1800" fill="#ffffff" y="-37.499999" height="449.999989" fill-opacity="1"/><rect x="-150" width="1800" fill="#3cb371" y="-37.499999" height="449.999989" fill-opacity="1"/><g clip-path="url(#e481519c62)"><g clip-path="url(#5fcd6f7f0e)"><g clip-path="url(#4737848dc2)"><path fill="#01768a" d="M 1709.292969 545.53125 C 1758.960938 505.605469 1785.878906 447.777344 1788.34375 388.195312 C 1789.121094 369.628906 1795.792969 351.929688 1806.898438 337.085938 C 1850.828125 278.226562 1850.816406 194.128906 1801.929688 133.316406 C 1777.898438 103.292969 1744.390625 82.410156 1706.859375 74.148438 C 1685.714844 69.53125 1666.863281 57.363281 1653.285156 40.347656 L 1653.035156 40.035156 C 1581.585938 -48.71875 1450.117188 -61.601562 1359.328125 11.378906 C 1307.804688 52.796875 1280.519531 112.960938 1279.535156 173.492188 C 1279.144531 203.066406 1264.726562 230.660156 1240.59375 247.816406 C 1238.761719 249.085938 1236.914062 250.46875 1235.121094 251.914062 C 1171.210938 303.289062 1176.585938 416 1247.078125 503.691406 C 1307.414062 578.75 1395.90625 611.089844 1460.277344 586.667969 C 1478.726562 579.6875 1499.039062 578.957031 1518.234375 584.324219 C 1582.59375 602.117188 1653.804688 590.136719 1709.292969 545.53125 Z M 1709.292969 545.53125 " fill-opacity="1" fill-rule="nonzero"/></g></g></g><g clip-path="url(#7986b1bd01)"><g clip-path="url(#a585edbac2)"><g clip-path="url(#de29c5d99d)"><path fill="#ec4033" d="M 1499.199219 234.960938 C 1498.066406 228.734375 1507.683594 228.140625 1508.375 233.191406 C 1509.007812 238.289062 1500.691406 243.035156 1499.199219 234.960938 Z M 1499.199219 234.960938 " fill-opacity="1" fill-rule="nonzero"/></g></g></g><g clip-path="url(#3bce645853)"><g clip-path="url(#70800abf07)"><g clip-path="url(#6badbf6eb2)"><path fill="#ec4033" d="M 1491.082031 256.0625 C 1491.726562 251.160156 1499.433594 250.980469 1497.3125 255.949219 C 1495.125 260.96875 1490.582031 260.136719 1491.082031 256.0625 Z M 1491.082031 256.0625 " fill-opacity="1" fill-rule="nonzero"/></g></g></g><g clip-path="url(#1cb0d2a026)"><g clip-path="url(#5143a8541c)"><g clip-path="url(#9737961880)"><path fill="#ec4033" d="M 1446.214844 355.355469 C 1445.480469 360.019531 1438.816406 358.957031 1440.890625 354.4375 C 1442.902344 349.964844 1446.800781 351.519531 1446.214844 355.355469 Z M 1446.214844 355.355469 " fill-opacity="1" fill-rule="nonzero"/></g></g></g><g clip-path="url(#edccbd22be)"><g clip-path="url(#493c6482be)"><g clip-path="url(#1510261fa1)"><path fill="#f3931c" d="M 1334.636719 106.464844 C 1334.324219 106.71875 1333.976562 106.898438 1333.589844 107.011719 C 1333.207031 107.125 1332.816406 107.15625 1332.417969 107.113281 C 1332.019531 107.070312 1331.644531 106.953125 1331.292969 106.761719 C 1330.941406 106.570312 1330.640625 106.316406 1330.390625 106.003906 C 1330.140625 105.691406 1329.957031 105.34375 1329.84375 104.960938 C 1329.734375 104.574219 1329.699219 104.183594 1329.742188 103.785156 C 1329.785156 103.386719 1329.902344 103.015625 1330.09375 102.664062 C 1330.289062 102.3125 1330.539062 102.011719 1330.851562 101.761719 C 1331.164062 101.507812 1331.511719 101.328125 1331.894531 101.214844 C 1332.28125 101.101562 1332.671875 101.066406 1333.070312 101.113281 C 1333.46875 101.15625 1333.84375 101.273438 1334.195312 101.464844 C 1334.542969 101.65625 1334.847656 101.910156 1335.097656 102.222656 C 1335.347656 102.535156 1335.527344 102.882812 1335.640625 103.265625 C 1335.753906 103.648438 1335.789062 104.042969 1335.746094 104.441406 C 1335.703125 104.835938 1335.582031 105.210938 1335.390625 105.5625 C 1335.199219 105.914062 1334.945312 106.214844 1334.636719 106.464844 Z M 1334.636719 106.464844 " fill-opacity="1" fill-rule="nonzero"/></g></g></g><g clip-path="url(#6f192d4a51)"><g clip-path="url(#35999ab316)"><g clip-path="url(#2b6e32a3d7)"><path fill="#f3931c" d="M 1391.820312 197.515625 C 1391.507812 197.765625 1391.160156 197.949219 1390.773438 198.058594 C 1390.390625 198.171875 1390 198.207031 1389.601562 198.164062 C 1389.203125 198.121094 1388.828125 198.003906 1388.476562 197.808594 C 1388.125 197.617188 1387.824219 197.367188 1387.574219 197.054688 C 1387.324219 196.742188 1387.140625 196.394531 1387.03125 196.007812 C 1386.917969 195.625 1386.882812 195.234375 1386.925781 194.835938 C 1386.96875 194.4375 1387.085938 194.0625 1387.28125 193.710938 C 1387.472656 193.359375 1387.722656 193.058594 1388.035156 192.808594 C 1388.347656 192.558594 1388.695312 192.375 1389.082031 192.261719 C 1389.464844 192.152344 1389.855469 192.117188 1390.253906 192.160156 C 1390.652344 192.203125 1391.027344 192.320312 1391.378906 192.511719 C 1391.730469 192.707031 1392.03125 192.957031 1392.28125 193.269531 C 1392.53125 193.582031 1392.714844 193.929688 1392.824219 194.3125 C 1392.9375 194.699219 1392.972656 195.089844 1392.929688 195.488281 C 1392.886719 195.886719 1392.769531 196.261719 1392.574219 196.613281 C 1392.382812 196.964844 1392.132812 197.265625 1391.820312 197.515625 Z M 1391.820312 197.515625 " fill-opacity="1" fill-rule="nonzero"/></g></g></g><g clip-path="url(#68b8edd5dc)"><g clip-path="url(#7cbdc47374)"><g clip-path="url(#10178c7b0f)"><path fill="#f3931c" d="M 1424.617188 23.734375 C 1424.304688 23.984375 1423.957031 24.167969 1423.574219 24.277344 C 1423.191406 24.390625 1422.796875 24.425781 1422.398438 24.382812 C 1422.003906 24.339844 1421.628906 24.222656 1421.277344 24.027344 C 1420.925781 23.835938 1420.625 23.585938 1420.375 23.273438 C 1420.121094 22.960938 1419.941406 22.613281 1419.828125 22.226562 C 1419.714844 21.84375 1419.683594 21.453125 1419.726562 21.054688 C 1419.769531 20.65625 1419.886719 20.28125 1420.078125 19.929688 C 1420.269531 19.578125 1420.523438 19.277344 1420.835938 19.027344 C 1421.148438 18.777344 1421.496094 18.59375 1421.878906 18.484375 C 1422.265625 18.371094 1422.65625 18.335938 1423.054688 18.378906 C 1423.449219 18.421875 1423.824219 18.539062 1424.175781 18.730469 C 1424.527344 18.925781 1424.828125 19.175781 1425.078125 19.488281 C 1425.332031 19.800781 1425.511719 20.148438 1425.625 20.535156 C 1425.738281 20.917969 1425.773438 21.308594 1425.726562 21.707031 C 1425.683594 22.105469 1425.566406 22.480469 1425.375 22.832031 C 1425.183594 23.183594 1424.929688 23.484375 1424.617188 23.734375 Z M 1424.617188 23.734375 " fill-opacity="1" fill-rule="nonzero"/></g></g></g><g clip-path="url(#85910c14e3)"><g clip-path="url(#daf37dca96)"><g clip-path="url(#e13a7e6d4c)"><path fill="#f3931c" d="M 1292.792969 250.609375 C 1292.484375 250.863281 1292.132812 251.042969 1291.75 251.15625 C 1291.367188 251.269531 1290.976562 251.300781 1290.578125 251.257812 C 1290.179688 251.214844 1289.804688 251.097656 1289.453125 250.90625 C 1289.101562 250.714844 1288.800781 250.460938 1288.550781 250.148438 C 1288.300781 249.835938 1288.117188 249.488281 1288.003906 249.105469 C 1287.894531 248.71875 1287.859375 248.328125 1287.902344 247.929688 C 1287.945312 247.53125 1288.0625 247.160156 1288.253906 246.808594 C 1288.445312 246.457031 1288.699219 246.15625 1289.011719 245.902344 C 1289.324219 245.652344 1289.671875 245.472656 1290.054688 245.359375 C 1290.441406 245.246094 1290.832031 245.210938 1291.230469 245.253906 C 1291.628906 245.300781 1292.003906 245.417969 1292.351562 245.609375 C 1292.703125 245.800781 1293.003906 246.054688 1293.257812 246.367188 C 1293.507812 246.679688 1293.6875 247.027344 1293.800781 247.410156 C 1293.914062 247.792969 1293.949219 248.1875 1293.90625 248.582031 C 1293.863281 248.980469 1293.742188 249.355469 1293.550781 249.707031 C 1293.359375 250.058594 1293.105469 250.359375 1292.792969 250.609375 Z M 1292.792969 250.609375 " fill-opacity="1" fill-rule="nonzero"/></g></g></g><g clip-path="url(#0d7e58029b)"><g clip-path="url(#6f9a11e7c1)"><g clip-path="url(#c7ee759867)"><path fill="#f3931c" d="M 1345.320312 329.398438 C 1345.007812 329.648438 1344.660156 329.828125 1344.277344 329.941406 C 1343.894531 330.054688 1343.5 330.089844 1343.105469 330.046875 C 1342.707031 330.003906 1342.332031 329.882812 1341.980469 329.691406 C 1341.628906 329.5 1341.328125 329.246094 1341.078125 328.9375 C 1340.824219 328.625 1340.644531 328.277344 1340.53125 327.890625 C 1340.417969 327.507812 1340.386719 327.117188 1340.429688 326.71875 C 1340.472656 326.320312 1340.589844 325.945312 1340.78125 325.59375 C 1340.972656 325.242188 1341.226562 324.941406 1341.539062 324.691406 C 1341.851562 324.441406 1342.199219 324.257812 1342.582031 324.144531 C 1342.96875 324.035156 1343.359375 324 1343.757812 324.042969 C 1344.15625 324.085938 1344.527344 324.203125 1344.878906 324.394531 C 1345.230469 324.589844 1345.53125 324.839844 1345.785156 325.152344 C 1346.035156 325.464844 1346.214844 325.8125 1346.328125 326.195312 C 1346.441406 326.582031 1346.476562 326.972656 1346.433594 327.371094 C 1346.386719 327.769531 1346.269531 328.144531 1346.078125 328.496094 C 1345.886719 328.84375 1345.632812 329.148438 1345.320312 329.398438 Z M 1345.320312 329.398438 " fill-opacity="1" fill-rule="nonzero"/></g></g></g><g clip-path="url(#933c0043ce)"><g clip-path="url(#b93f0c06c7)"><g clip-path="url(#3e9d8c6796)"><path fill="#f3931c" d="M 1330.292969 238.921875 C 1330.046875 239.117188 1329.789062 239.285156 1329.511719 239.429688 C 1329.234375 239.574219 1328.945312 239.691406 1328.644531 239.78125 C 1328.34375 239.867188 1328.035156 239.925781 1327.726562 239.953125 C 1327.414062 239.980469 1327.101562 239.976562 1326.789062 239.945312 C 1326.480469 239.910156 1326.175781 239.847656 1325.875 239.753906 C 1325.578125 239.660156 1325.289062 239.535156 1325.015625 239.386719 C 1324.742188 239.234375 1324.484375 239.058594 1324.242188 238.859375 C 1324.003906 238.65625 1323.785156 238.433594 1323.589844 238.191406 C 1323.394531 237.945312 1323.222656 237.6875 1323.078125 237.410156 C 1322.933594 237.132812 1322.816406 236.84375 1322.730469 236.542969 C 1322.640625 236.242188 1322.585938 235.933594 1322.558594 235.625 C 1322.527344 235.3125 1322.53125 235 1322.566406 234.6875 C 1322.601562 234.378906 1322.664062 234.074219 1322.757812 233.773438 C 1322.851562 233.476562 1322.972656 233.1875 1323.125 232.914062 C 1323.273438 232.640625 1323.449219 232.382812 1323.652344 232.144531 C 1323.851562 231.902344 1324.074219 231.683594 1324.320312 231.488281 C 1324.5625 231.292969 1324.824219 231.121094 1325.101562 230.976562 C 1325.378906 230.832031 1325.667969 230.714844 1325.96875 230.628906 C 1326.269531 230.539062 1326.574219 230.484375 1326.886719 230.457031 C 1327.199219 230.425781 1327.511719 230.429688 1327.820312 230.464844 C 1328.132812 230.5 1328.4375 230.5625 1328.734375 230.65625 C 1329.035156 230.75 1329.320312 230.871094 1329.59375 231.023438 C 1329.871094 231.171875 1330.128906 231.347656 1330.367188 231.550781 C 1330.605469 231.75 1330.824219 231.972656 1331.019531 232.21875 C 1331.21875 232.460938 1331.386719 232.722656 1331.53125 233 C 1331.675781 233.277344 1331.792969 233.566406 1331.882812 233.867188 C 1331.96875 234.167969 1332.027344 234.472656 1332.054688 234.785156 C 1332.082031 235.097656 1332.078125 235.410156 1332.046875 235.71875 C 1332.011719 236.03125 1331.949219 236.335938 1331.855469 236.632812 C 1331.757812 236.933594 1331.636719 237.21875 1331.488281 237.492188 C 1331.335938 237.769531 1331.160156 238.027344 1330.960938 238.265625 C 1330.757812 238.503906 1330.535156 238.722656 1330.292969 238.921875 Z M 1330.292969 238.921875 " fill-opacity="1" fill-rule="nonzero"/></g></g></g><g clip-path="url(#2e8c3f87fc)"><g clip-path="url(#5676a2439e)"><g clip-path="url(#8dcd155e63)"><path fill="#f3931c" d="M 1317.746094 122.996094 C 1317.503906 123.195312 1317.242188 123.363281 1316.964844 123.507812 C 1316.6875 123.652344 1316.398438 123.769531 1316.097656 123.859375 C 1315.796875 123.945312 1315.492188 124.003906 1315.179688 124.03125 C 1314.867188 124.058594 1314.558594 124.054688 1314.246094 124.023438 C 1313.933594 123.988281 1313.628906 123.925781 1313.332031 123.828125 C 1313.03125 123.734375 1312.746094 123.613281 1312.472656 123.464844 C 1312.195312 123.3125 1311.9375 123.136719 1311.699219 122.9375 C 1311.460938 122.734375 1311.242188 122.511719 1311.046875 122.269531 C 1310.847656 122.023438 1310.679688 121.765625 1310.535156 121.488281 C 1310.390625 121.210938 1310.273438 120.921875 1310.183594 120.621094 C 1310.097656 120.320312 1310.039062 120.011719 1310.011719 119.703125 C 1309.984375 119.390625 1309.988281 119.078125 1310.019531 118.765625 C 1310.054688 118.457031 1310.117188 118.152344 1310.214844 117.851562 C 1310.308594 117.554688 1310.429688 117.265625 1310.578125 116.992188 C 1310.730469 116.71875 1310.90625 116.460938 1311.105469 116.21875 C 1311.308594 115.980469 1311.53125 115.761719 1311.773438 115.566406 C 1312.019531 115.371094 1312.277344 115.199219 1312.554688 115.054688 C 1312.832031 114.910156 1313.121094 114.792969 1313.421875 114.707031 C 1313.722656 114.617188 1314.03125 114.5625 1314.339844 114.53125 C 1314.652344 114.503906 1314.964844 114.507812 1315.277344 114.542969 C 1315.585938 114.578125 1315.890625 114.640625 1316.191406 114.734375 C 1316.488281 114.828125 1316.777344 114.949219 1317.050781 115.101562 C 1317.324219 115.25 1317.582031 115.425781 1317.824219 115.628906 C 1318.0625 115.828125 1318.28125 116.050781 1318.476562 116.296875 C 1318.671875 116.539062 1318.84375 116.800781 1318.988281 117.078125 C 1319.132812 117.355469 1319.25 117.644531 1319.335938 117.945312 C 1319.425781 118.246094 1319.480469 118.550781 1319.511719 118.863281 C 1319.539062 119.175781 1319.535156 119.484375 1319.5 119.796875 C 1319.464844 120.109375 1319.402344 120.414062 1319.308594 120.710938 C 1319.214844 121.011719 1319.09375 121.296875 1318.941406 121.570312 C 1318.792969 121.847656 1318.617188 122.105469 1318.414062 122.34375 C 1318.214844 122.582031 1317.992188 122.800781 1317.746094 122.996094 Z M 1317.746094 122.996094 " fill-opacity="1" fill-rule="nonzero"/></g></g></g><g clip-path="url(#a9075524c8)"><g clip-path="url(#7181702b00)"><g clip-path="url(#9409bffa80)"><path fill="#f3931c" d="M 1480.46875 186.300781 C 1480.226562 186.496094 1479.964844 186.667969 1479.6875 186.8125 C 1479.410156 186.957031 1479.121094 187.070312 1478.820312 187.160156 C 1478.519531 187.246094 1478.214844 187.304688 1477.902344 187.332031 C 1477.589844 187.359375 1477.277344 187.355469 1476.96875 187.324219 C 1476.65625 187.289062 1476.351562 187.226562 1476.050781 187.132812 C 1475.753906 187.039062 1475.46875 186.914062 1475.191406 186.765625 C 1474.917969 186.613281 1474.660156 186.441406 1474.421875 186.238281 C 1474.179688 186.039062 1473.960938 185.816406 1473.765625 185.570312 C 1473.570312 185.328125 1473.398438 185.066406 1473.253906 184.789062 C 1473.109375 184.511719 1472.996094 184.222656 1472.90625 183.921875 C 1472.820312 183.621094 1472.761719 183.316406 1472.734375 183.003906 C 1472.707031 182.691406 1472.710938 182.378906 1472.742188 182.070312 C 1472.777344 181.757812 1472.839844 181.453125 1472.933594 181.152344 C 1473.027344 180.855469 1473.152344 180.570312 1473.300781 180.292969 C 1473.453125 180.019531 1473.625 179.761719 1473.828125 179.523438 C 1474.027344 179.28125 1474.25 179.0625 1474.496094 178.867188 C 1474.738281 178.671875 1475 178.5 1475.277344 178.355469 C 1475.554688 178.210938 1475.84375 178.097656 1476.144531 178.007812 C 1476.445312 177.921875 1476.75 177.863281 1477.0625 177.835938 C 1477.375 177.808594 1477.6875 177.8125 1477.996094 177.84375 C 1478.308594 177.878906 1478.613281 177.941406 1478.914062 178.035156 C 1479.210938 178.128906 1479.496094 178.253906 1479.773438 178.402344 C 1480.046875 178.554688 1480.304688 178.730469 1480.542969 178.929688 C 1480.785156 179.128906 1481.003906 179.351562 1481.199219 179.597656 C 1481.394531 179.839844 1481.566406 180.101562 1481.710938 180.378906 C 1481.855469 180.65625 1481.96875 180.945312 1482.058594 181.246094 C 1482.144531 181.546875 1482.203125 181.851562 1482.230469 182.164062 C 1482.257812 182.476562 1482.253906 182.789062 1482.222656 183.097656 C 1482.1875 183.410156 1482.125 183.714844 1482.03125 184.015625 C 1481.9375 184.3125 1481.8125 184.597656 1481.664062 184.875 C 1481.511719 185.148438 1481.335938 185.40625 1481.136719 185.644531 C 1480.9375 185.886719 1480.714844 186.105469 1480.46875 186.300781 Z M 1480.46875 186.300781 " fill-opacity="1" fill-rule="nonzero"/></g></g></g><g clip-path="url(#256a800e07)"><g clip-path="url(#184ae45dde)"><g clip-path="url(#0390c6ae8a)"><path fill="#01768a" d="M 1249.683594 209.613281 C 1248.859375 210.792969 1247.988281 211.933594 1247.066406 213.039062 C 1246.148438 214.144531 1245.183594 215.207031 1244.175781 216.222656 C 1243.167969 217.242188 1242.125 218.210938 1241.039062 219.132812 C 1239.953125 220.058594 1238.835938 220.925781 1237.683594 221.746094 C 1236.53125 222.5625 1235.351562 223.324219 1234.144531 224.027344 C 1232.9375 224.730469 1231.707031 225.375 1230.453125 225.960938 C 1229.199219 226.546875 1227.929688 227.070312 1226.644531 227.527344 C 1225.359375 227.988281 1224.066406 228.382812 1222.761719 228.714844 C 1221.457031 229.042969 1220.148438 229.308594 1218.835938 229.503906 C 1217.523438 229.703125 1216.210938 229.832031 1214.902344 229.894531 C 1213.597656 229.957031 1212.296875 229.953125 1211.007812 229.878906 C 1209.71875 229.808594 1208.445312 229.667969 1207.183594 229.460938 C 1205.925781 229.253906 1204.6875 228.980469 1203.46875 228.640625 C 1202.25 228.300781 1201.0625 227.894531 1199.898438 227.425781 C 1198.734375 226.957031 1197.605469 226.425781 1196.507812 225.828125 C 1195.40625 225.234375 1194.347656 224.582031 1193.324219 223.867188 C 1192.304688 223.15625 1191.324219 222.386719 1190.386719 221.5625 C 1189.449219 220.734375 1188.5625 219.859375 1187.71875 218.925781 C 1186.878906 217.996094 1186.085938 217.019531 1185.347656 215.996094 C 1184.609375 214.96875 1183.925781 213.902344 1183.292969 212.792969 C 1182.664062 211.679688 1182.09375 210.53125 1181.582031 209.347656 C 1181.066406 208.160156 1180.613281 206.945312 1180.222656 205.695312 C 1179.828125 204.449219 1179.5 203.171875 1179.230469 201.871094 C 1178.964844 200.574219 1178.757812 199.253906 1178.617188 197.914062 C 1178.476562 196.574219 1178.402344 195.222656 1178.390625 193.859375 C 1178.378906 192.496094 1178.429688 191.121094 1178.546875 189.746094 C 1178.664062 188.367188 1178.84375 186.992188 1179.089844 185.613281 C 1179.332031 184.238281 1179.640625 182.867188 1180.007812 181.503906 C 1180.378906 180.140625 1180.808594 178.789062 1181.300781 177.453125 C 1181.792969 176.117188 1182.339844 174.800781 1182.949219 173.503906 C 1183.558594 172.207031 1184.222656 170.9375 1184.941406 169.691406 C 1185.660156 168.449219 1186.433594 167.234375 1187.253906 166.054688 C 1188.078125 164.875 1188.949219 163.730469 1189.871094 162.628906 C 1190.789062 161.523438 1191.753906 160.460938 1192.761719 159.441406 C 1193.765625 158.425781 1194.8125 157.453125 1195.898438 156.53125 C 1196.984375 155.609375 1198.101562 154.738281 1199.253906 153.921875 C 1200.40625 153.105469 1201.585938 152.34375 1202.792969 151.640625 C 1204 150.933594 1205.230469 150.289062 1206.484375 149.703125 C 1207.738281 149.121094 1209.003906 148.597656 1210.289062 148.136719 C 1211.574219 147.679688 1212.871094 147.28125 1214.175781 146.953125 C 1215.480469 146.621094 1216.789062 146.359375 1218.101562 146.160156 C 1219.414062 145.964844 1220.726562 145.835938 1222.03125 145.773438 C 1223.339844 145.707031 1224.640625 145.714844 1225.929688 145.785156 C 1227.21875 145.859375 1228.492188 146 1229.753906 146.207031 C 1231.011719 146.414062 1232.25 146.6875 1233.46875 147.027344 C 1234.683594 147.367188 1235.875 147.773438 1237.039062 148.242188 C 1238.203125 148.710938 1239.332031 149.242188 1240.429688 149.835938 C 1241.527344 150.429688 1242.589844 151.085938 1243.613281 151.796875 C 1244.632812 152.511719 1245.613281 153.28125 1246.550781 154.105469 C 1247.488281 154.933594 1248.375 155.808594 1249.21875 156.738281 C 1250.058594 157.667969 1250.851562 158.648438 1251.589844 159.671875 C 1252.328125 160.695312 1253.011719 161.765625 1253.640625 162.875 C 1254.273438 163.984375 1254.84375 165.132812 1255.355469 166.320312 C 1255.871094 167.503906 1256.324219 168.722656 1256.714844 169.96875 C 1257.109375 171.21875 1257.4375 172.492188 1257.707031 173.792969 C 1257.972656 175.09375 1258.179688 176.414062 1258.320312 177.753906 C 1258.457031 179.089844 1258.535156 180.441406 1258.546875 181.808594 C 1258.558594 183.171875 1258.507812 184.542969 1258.390625 185.921875 C 1258.273438 187.300781 1258.09375 188.675781 1257.847656 190.054688 C 1257.605469 191.429688 1257.296875 192.800781 1256.925781 194.164062 C 1256.558594 195.527344 1256.128906 196.878906 1255.636719 198.214844 C 1255.144531 199.550781 1254.59375 200.867188 1253.988281 202.164062 C 1253.378906 203.460938 1252.714844 204.730469 1251.996094 205.976562 C 1251.277344 207.21875 1250.503906 208.433594 1249.683594 209.613281 Z M 1249.683594 209.613281 " fill-opacity="1" fill-rule="nonzero"/></g></g></g><g clip-path="url(#ce79ba62a4)"><g clip-path="url(#42ad0da5a6)"><g clip-path="url(#73ccc64e1d)"><path fill="#01768a" d="M 1184.613281 277.222656 C 1184.152344 277.589844 1183.679688 277.933594 1183.1875 278.257812 C 1182.695312 278.578125 1182.1875 278.875 1181.664062 279.148438 C 1181.144531 279.417969 1180.609375 279.664062 1180.066406 279.886719 C 1179.519531 280.105469 1178.964844 280.296875 1178.398438 280.460938 C 1177.835938 280.628906 1177.261719 280.765625 1176.6875 280.871094 C 1176.109375 280.980469 1175.527344 281.0625 1174.941406 281.113281 C 1174.355469 281.164062 1173.765625 281.1875 1173.179688 281.183594 C 1172.589844 281.175781 1172.003906 281.140625 1171.417969 281.078125 C 1170.835938 281.015625 1170.253906 280.921875 1169.679688 280.800781 C 1169.105469 280.679688 1168.535156 280.53125 1167.972656 280.355469 C 1167.414062 280.179688 1166.863281 279.976562 1166.320312 279.746094 C 1165.78125 279.515625 1165.25 279.257812 1164.734375 278.976562 C 1164.21875 278.695312 1163.71875 278.386719 1163.234375 278.054688 C 1162.746094 277.722656 1162.28125 277.367188 1161.828125 276.992188 C 1161.378906 276.613281 1160.945312 276.214844 1160.535156 275.792969 C 1160.125 275.375 1159.734375 274.933594 1159.363281 274.476562 C 1158.996094 274.019531 1158.652344 273.542969 1158.328125 273.050781 C 1158.007812 272.558594 1157.710938 272.050781 1157.4375 271.53125 C 1157.167969 271.007812 1156.921875 270.476562 1156.703125 269.929688 C 1156.480469 269.382812 1156.289062 268.828125 1156.125 268.265625 C 1155.960938 267.699219 1155.824219 267.128906 1155.714844 266.550781 C 1155.605469 265.972656 1155.523438 265.390625 1155.472656 264.804688 C 1155.421875 264.21875 1155.398438 263.632812 1155.40625 263.042969 C 1155.410156 262.457031 1155.445312 261.871094 1155.507812 261.285156 C 1155.574219 260.699219 1155.664062 260.121094 1155.785156 259.542969 C 1155.90625 258.96875 1156.054688 258.398438 1156.230469 257.839844 C 1156.40625 257.277344 1156.609375 256.726562 1156.839844 256.1875 C 1157.070312 255.644531 1157.328125 255.117188 1157.609375 254.601562 C 1157.894531 254.085938 1158.199219 253.585938 1158.53125 253.097656 C 1158.863281 252.613281 1159.21875 252.144531 1159.597656 251.695312 C 1159.972656 251.242188 1160.371094 250.8125 1160.792969 250.398438 C 1161.210938 249.988281 1161.652344 249.597656 1162.109375 249.230469 C 1162.570312 248.863281 1163.042969 248.515625 1163.535156 248.195312 C 1164.027344 247.871094 1164.535156 247.574219 1165.058594 247.304688 C 1165.578125 247.03125 1166.113281 246.785156 1166.65625 246.566406 C 1167.203125 246.347656 1167.757812 246.15625 1168.324219 245.988281 C 1168.886719 245.824219 1169.457031 245.6875 1170.035156 245.578125 C 1170.613281 245.46875 1171.195312 245.390625 1171.78125 245.339844 C 1172.367188 245.285156 1172.953125 245.261719 1173.542969 245.269531 C 1174.132812 245.277344 1174.71875 245.308594 1175.300781 245.375 C 1175.886719 245.4375 1176.46875 245.53125 1177.042969 245.648438 C 1177.617188 245.769531 1178.1875 245.917969 1178.746094 246.09375 C 1179.308594 246.273438 1179.859375 246.476562 1180.402344 246.707031 C 1180.941406 246.9375 1181.46875 247.191406 1181.984375 247.476562 C 1182.5 247.757812 1183.003906 248.066406 1183.488281 248.398438 C 1183.972656 248.726562 1184.441406 249.082031 1184.894531 249.460938 C 1185.34375 249.839844 1185.773438 250.238281 1186.1875 250.65625 C 1186.597656 251.078125 1186.988281 251.515625 1187.355469 251.976562 C 1187.726562 252.433594 1188.070312 252.910156 1188.390625 253.402344 C 1188.714844 253.894531 1189.011719 254.398438 1189.28125 254.921875 C 1189.554688 255.441406 1189.800781 255.976562 1190.019531 256.523438 C 1190.238281 257.066406 1190.433594 257.625 1190.597656 258.1875 C 1190.761719 258.753906 1190.898438 259.324219 1191.007812 259.902344 C 1191.117188 260.480469 1191.195312 261.0625 1191.25 261.648438 C 1191.300781 262.234375 1191.324219 262.820312 1191.316406 263.40625 C 1191.3125 263.996094 1191.277344 264.582031 1191.214844 265.167969 C 1191.148438 265.75 1191.058594 266.332031 1190.9375 266.90625 C 1190.816406 267.484375 1190.667969 268.050781 1190.492188 268.613281 C 1190.316406 269.171875 1190.113281 269.722656 1189.882812 270.265625 C 1189.652344 270.808594 1189.394531 271.335938 1189.113281 271.851562 C 1188.828125 272.367188 1188.523438 272.867188 1188.191406 273.351562 C 1187.859375 273.839844 1187.503906 274.308594 1187.125 274.757812 C 1186.75 275.207031 1186.347656 275.640625 1185.929688 276.050781 C 1185.507812 276.464844 1185.070312 276.851562 1184.613281 277.222656 Z M 1184.613281 277.222656 " fill-opacity="1" fill-rule="nonzero"/></g></g></g><g clip-path="url(#2cfa9da79a)"><g clip-path="url(#6414681d48)"><g clip-path="url(#a93a22f1a7)"><path fill="#f3931c" d="M 1217.683594 187.734375 C 1217.371094 187.988281 1217.023438 188.167969 1216.636719 188.28125 C 1216.253906 188.394531 1215.863281 188.425781 1215.464844 188.382812 C 1215.066406 188.339844 1214.691406 188.222656 1214.339844 188.03125 C 1213.988281 187.839844 1213.6875 187.585938 1213.4375 187.273438 C 1213.1875 186.960938 1213.003906 186.613281 1212.894531 186.230469 C 1212.78125 185.84375 1212.746094 185.453125 1212.789062 185.054688 C 1212.832031 184.65625 1212.949219 184.285156 1213.144531 183.933594 C 1213.335938 183.582031 1213.585938 183.28125 1213.898438 183.03125 C 1214.210938 182.777344 1214.558594 182.597656 1214.945312 182.484375 C 1215.328125 182.371094 1215.71875 182.335938 1216.117188 182.382812 C 1216.515625 182.425781 1216.890625 182.542969 1217.242188 182.734375 C 1217.59375 182.925781 1217.894531 183.179688 1218.144531 183.492188 C 1218.394531 183.804688 1218.578125 184.152344 1218.6875 184.535156 C 1218.800781 184.917969 1218.835938 185.3125 1218.792969 185.707031 C 1218.75 186.105469 1218.632812 186.480469 1218.441406 186.832031 C 1218.246094 187.183594 1217.996094 187.484375 1217.683594 187.734375 Z M 1217.683594 187.734375 " fill-opacity="1" fill-rule="nonzero"/></g></g></g><g clip-path="url(#fad72310e2)"><g clip-path="url(#2fc7277545)"><g clip-path="url(#04407f8ce7)"><path fill="#f3931c" d="M 1224.835938 211.855469 C 1224.59375 212.050781 1224.332031 212.222656 1224.054688 212.367188 C 1223.777344 212.511719 1223.488281 212.628906 1223.1875 212.714844 C 1222.886719 212.804688 1222.582031 212.859375 1222.269531 212.886719 C 1221.957031 212.914062 1221.648438 212.914062 1221.335938 212.878906 C 1221.023438 212.84375 1220.71875 212.78125 1220.421875 212.6875 C 1220.121094 212.59375 1219.835938 212.472656 1219.5625 212.320312 C 1219.285156 212.171875 1219.027344 211.996094 1218.789062 211.792969 C 1218.550781 211.59375 1218.332031 211.371094 1218.136719 211.125 C 1217.9375 210.882812 1217.769531 210.621094 1217.625 210.34375 C 1217.480469 210.066406 1217.363281 209.777344 1217.273438 209.476562 C 1217.1875 209.175781 1217.128906 208.871094 1217.101562 208.558594 C 1217.074219 208.246094 1217.078125 207.933594 1217.113281 207.625 C 1217.144531 207.3125 1217.210938 207.007812 1217.304688 206.710938 C 1217.398438 206.410156 1217.519531 206.125 1217.667969 205.847656 C 1217.820312 205.574219 1217.996094 205.316406 1218.195312 205.078125 C 1218.398438 204.835938 1218.621094 204.621094 1218.863281 204.421875 C 1219.109375 204.226562 1219.367188 204.058594 1219.644531 203.914062 C 1219.921875 203.765625 1220.210938 203.652344 1220.511719 203.5625 C 1220.8125 203.476562 1221.121094 203.417969 1221.433594 203.390625 C 1221.742188 203.363281 1222.054688 203.367188 1222.367188 203.398438 C 1222.675781 203.433594 1222.980469 203.496094 1223.28125 203.589844 C 1223.578125 203.683594 1223.867188 203.808594 1224.140625 203.957031 C 1224.414062 204.109375 1224.671875 204.285156 1224.914062 204.484375 C 1225.152344 204.6875 1225.371094 204.910156 1225.566406 205.152344 C 1225.761719 205.394531 1225.933594 205.65625 1226.078125 205.933594 C 1226.222656 206.210938 1226.339844 206.5 1226.425781 206.800781 C 1226.515625 207.101562 1226.574219 207.410156 1226.601562 207.71875 C 1226.628906 208.03125 1226.625 208.34375 1226.589844 208.65625 C 1226.554688 208.964844 1226.492188 209.269531 1226.398438 209.570312 C 1226.304688 209.867188 1226.183594 210.15625 1226.03125 210.429688 C 1225.882812 210.703125 1225.707031 210.960938 1225.503906 211.199219 C 1225.304688 211.441406 1225.082031 211.660156 1224.835938 211.855469 Z M 1224.835938 211.855469 " fill-opacity="1" fill-rule="nonzero"/></g></g></g><g clip-path="url(#95a13c6b81)"><g clip-path="url(#9e3f43104b)"><g clip-path="url(#19274eed1e)"><path fill="#01768a" d="M 191.496094 346.28125 C 223.53125 310.84375 236.605469 264.851562 231.375 220.457031 C 229.75 206.621094 232.59375 192.730469 239.058594 180.429688 C 264.601562 131.65625 254.632812 69.410156 211.242188 30.183594 C 189.898438 10.804688 162.625 -0.679688 133.863281 -2.351562 C 117.667969 -3.265625 102.269531 -10.039062 90.203125 -21.027344 L 89.984375 -21.226562 C 26.582031 -78.460938 -72.257812 -72.425781 -130.816406 -7.652344 C -164.046875 29.109375 -177.117188 76.871094 -170.679688 121.796875 C -167.464844 143.734375 -174.867188 165.867188 -190.699219 181.425781 C -191.90625 182.582031 -193.109375 183.824219 -194.265625 185.105469 C -235.488281 230.703125 -218.160156 313.496094 -155.59375 370.058594 C -102.042969 418.46875 -32.710938 431.929688 12.042969 406.226562 C 24.875 398.875 39.820312 395.925781 54.667969 397.625 C 104.414062 403.171875 155.707031 385.871094 191.496094 346.28125 Z M 191.496094 346.28125 " fill-opacity="1" fill-rule="nonzero"/></g></g></g><g clip-path="url(#a19221ac50)"><g clip-path="url(#3f802f2472)"><g clip-path="url(#29d9942af9)"><path fill="#ec4033" d="M -0.800781 141.28125 C -2.378906 136.804688 4.671875 135.226562 5.78125 138.882812 C 6.855469 142.582031 1.261719 147.078125 -0.800781 141.28125 Z M -0.800781 141.28125 " fill-opacity="1" fill-rule="nonzero"/></g></g></g><g clip-path="url(#2dca006f1c)"><g clip-path="url(#608a9086a2)"><g clip-path="url(#20b02616d3)"><path fill="#ec4033" d="M 47.265625 240.699219 C 51.839844 241.945312 49.058594 248.664062 45.453125 247.414062 C 41.808594 246.203125 41.277344 239.0625 47.265625 240.699219 Z M 47.265625 240.699219 " fill-opacity="1" fill-rule="nonzero"/></g></g></g><g clip-path="url(#f4a653aa5f)"><g clip-path="url(#00566d412e)"><g clip-path="url(#c3e71c535e)"><path fill="#ec4033" d="M -4.308594 157.859375 C -4.414062 154.15625 1.269531 153.109375 0.285156 157.039062 C -0.734375 161.011719 -4.199219 160.933594 -4.308594 157.859375 Z M -4.308594 157.859375 " fill-opacity="1" fill-rule="nonzero"/></g></g></g><g clip-path="url(#37ada0c071)"><g clip-path="url(#78ed7303ad)"><g clip-path="url(#2564d9cd47)"><path fill="#ec4033" d="M 75.097656 231.496094 C 75.109375 235.039062 70.046875 235.039062 71.046875 231.445312 C 72.007812 227.898438 75.078125 228.585938 75.097656 231.496094 Z M 75.097656 231.496094 " fill-opacity="1" fill-rule="nonzero"/></g></g></g><g clip-path="url(#f3417a7eb6)"><g clip-path="url(#6ea0f560da)"><g clip-path="url(#eeda826759)"><path fill="#ec4033" d="M 76.191406 166.160156 C 72.730469 165.28125 74.640625 159.703125 77.898438 161.519531 C 81.152344 163.335938 78.96875 166.90625 76.191406 166.160156 Z M 76.191406 166.160156 " fill-opacity="1" fill-rule="nonzero"/></g></g></g><g clip-path="url(#126148e95c)"><g clip-path="url(#4a3f83dd8a)"><g clip-path="url(#d102de1818)"><path fill="#f3931c" d="M 89.628906 362.507812 C 89.425781 362.730469 89.191406 362.90625 88.917969 363.03125 C 88.648438 363.160156 88.363281 363.234375 88.0625 363.25 C 87.761719 363.265625 87.472656 363.222656 87.191406 363.121094 C 86.90625 363.019531 86.652344 362.867188 86.429688 362.667969 C 86.207031 362.464844 86.035156 362.230469 85.90625 361.957031 C 85.777344 361.6875 85.703125 361.402344 85.6875 361.101562 C 85.671875 360.800781 85.714844 360.511719 85.816406 360.226562 C 85.917969 359.945312 86.070312 359.691406 86.269531 359.46875 C 86.472656 359.246094 86.707031 359.070312 86.980469 358.941406 C 87.25 358.816406 87.535156 358.742188 87.835938 358.726562 C 88.136719 358.710938 88.425781 358.753906 88.710938 358.855469 C 88.992188 358.957031 89.246094 359.109375 89.46875 359.308594 C 89.691406 359.511719 89.867188 359.746094 89.996094 360.019531 C 90.121094 360.289062 90.195312 360.574219 90.210938 360.875 C 90.226562 361.175781 90.183594 361.464844 90.082031 361.746094 C 89.980469 362.03125 89.828125 362.285156 89.628906 362.507812 Z M 89.628906 362.507812 " fill-opacity="1" fill-rule="nonzero"/></g></g></g><g clip-path="url(#fa1b026086)"><g clip-path="url(#94837405ce)"><g clip-path="url(#416ce3e30c)"><path fill="#f3931c" d="M 27.675781 359.894531 C 27.472656 360.117188 27.238281 360.292969 26.964844 360.421875 C 26.695312 360.546875 26.410156 360.621094 26.109375 360.636719 C 25.808594 360.652344 25.519531 360.609375 25.234375 360.507812 C 24.953125 360.40625 24.699219 360.253906 24.476562 360.054688 C 24.253906 359.851562 24.078125 359.617188 23.949219 359.34375 C 23.820312 359.074219 23.75 358.789062 23.734375 358.488281 C 23.71875 358.1875 23.761719 357.898438 23.863281 357.617188 C 23.964844 357.332031 24.113281 357.078125 24.316406 356.859375 C 24.515625 356.632812 24.753906 356.460938 25.023438 356.332031 C 25.296875 356.203125 25.582031 356.128906 25.882812 356.113281 C 26.179688 356.097656 26.472656 356.140625 26.753906 356.242188 C 27.039062 356.34375 27.289062 356.496094 27.511719 356.695312 C 27.734375 356.898438 27.910156 357.132812 28.039062 357.40625 C 28.167969 357.675781 28.242188 357.960938 28.253906 358.261719 C 28.269531 358.5625 28.226562 358.851562 28.128906 359.136719 C 28.027344 359.417969 27.875 359.671875 27.675781 359.894531 Z M 27.675781 359.894531 " fill-opacity="1" fill-rule="nonzero"/></g></g></g><g clip-path="url(#caca9897ea)"><g clip-path="url(#2b0c19e01d)"><g clip-path="url(#ee2d8e7887)"><path fill="#f3931c" d="M 110.003906 24.574219 C 109.800781 24.796875 109.566406 24.972656 109.292969 25.101562 C 109.023438 25.230469 108.738281 25.300781 108.4375 25.316406 C 108.136719 25.332031 107.847656 25.289062 107.566406 25.1875 C 107.28125 25.089844 107.027344 24.9375 106.804688 24.734375 C 106.582031 24.535156 106.40625 24.296875 106.28125 24.027344 C 106.152344 23.757812 106.078125 23.46875 106.0625 23.171875 C 106.046875 22.871094 106.089844 22.578125 106.191406 22.296875 C 106.292969 22.015625 106.445312 21.761719 106.644531 21.539062 C 106.847656 21.316406 107.082031 21.140625 107.355469 21.011719 C 107.625 20.882812 107.910156 20.8125 108.210938 20.796875 C 108.511719 20.78125 108.800781 20.824219 109.085938 20.925781 C 109.367188 21.027344 109.621094 21.175781 109.84375 21.378906 C 110.066406 21.578125 110.242188 21.816406 110.371094 22.085938 C 110.496094 22.359375 110.570312 22.644531 110.585938 22.941406 C 110.601562 23.242188 110.558594 23.535156 110.457031 23.816406 C 110.355469 24.097656 110.203125 24.351562 110.003906 24.574219 Z M 110.003906 24.574219 " fill-opacity="1" fill-rule="nonzero"/></g></g></g><g clip-path="url(#c6f722488a)"><g clip-path="url(#1ed1411bd2)"><g clip-path="url(#bb61166d75)"><path fill="#f3931c" d="M 134.304688 22.296875 C 134.105469 22.519531 133.867188 22.695312 133.597656 22.824219 C 133.324219 22.953125 133.039062 23.023438 132.742188 23.039062 C 132.441406 23.054688 132.148438 23.011719 131.867188 22.910156 C 131.585938 22.808594 131.332031 22.65625 131.109375 22.457031 C 130.886719 22.253906 130.710938 22.019531 130.582031 21.746094 C 130.453125 21.476562 130.382812 21.191406 130.367188 20.890625 C 130.351562 20.59375 130.394531 20.300781 130.496094 20.019531 C 130.59375 19.734375 130.746094 19.484375 130.949219 19.261719 C 131.148438 19.039062 131.386719 18.863281 131.65625 18.734375 C 131.925781 18.605469 132.210938 18.53125 132.511719 18.515625 C 132.8125 18.503906 133.105469 18.542969 133.386719 18.644531 C 133.667969 18.746094 133.921875 18.898438 134.144531 19.097656 C 134.367188 19.300781 134.542969 19.535156 134.671875 19.808594 C 134.800781 20.078125 134.871094 20.363281 134.886719 20.664062 C 134.902344 20.964844 134.859375 21.253906 134.757812 21.539062 C 134.65625 21.820312 134.507812 22.074219 134.304688 22.296875 Z M 134.304688 22.296875 " fill-opacity="1" fill-rule="nonzero"/></g></g></g><g clip-path="url(#2b950f1d59)"><g clip-path="url(#106df33999)"><g clip-path="url(#e213d8d7df)"><path fill="#f3931c" d="M 195.636719 220.023438 C 195.433594 220.246094 195.199219 220.421875 194.925781 220.550781 C 194.65625 220.679688 194.371094 220.75 194.070312 220.765625 C 193.769531 220.78125 193.480469 220.738281 193.195312 220.636719 C 192.914062 220.535156 192.660156 220.386719 192.4375 220.183594 C 192.214844 219.984375 192.039062 219.746094 191.910156 219.476562 C 191.78125 219.203125 191.710938 218.917969 191.695312 218.621094 C 191.679688 218.320312 191.722656 218.027344 191.824219 217.746094 C 191.925781 217.464844 192.074219 217.210938 192.277344 216.988281 C 192.476562 216.765625 192.714844 216.589844 192.984375 216.460938 C 193.257812 216.332031 193.542969 216.261719 193.84375 216.246094 C 194.140625 216.230469 194.433594 216.273438 194.714844 216.375 C 195 216.472656 195.25 216.625 195.472656 216.828125 C 195.695312 217.027344 195.871094 217.265625 196 217.535156 C 196.128906 217.804688 196.203125 218.089844 196.214844 218.390625 C 196.230469 218.691406 196.1875 218.984375 196.089844 219.265625 C 195.988281 219.546875 195.835938 219.800781 195.636719 220.023438 Z M 195.636719 220.023438 " fill-opacity="1" fill-rule="nonzero"/></g></g></g><g clip-path="url(#8643c8ad33)"><g clip-path="url(#127ce008ca)"><g clip-path="url(#dbb2cf1938)"><path fill="#f3931c" d="M 222.761719 102.265625 C 222.5625 102.488281 222.324219 102.664062 222.054688 102.792969 C 221.78125 102.917969 221.496094 102.992188 221.195312 103.007812 C 220.898438 103.023438 220.605469 102.980469 220.324219 102.878906 C 220.039062 102.777344 219.789062 102.625 219.566406 102.425781 C 219.34375 102.222656 219.167969 101.988281 219.039062 101.714844 C 218.910156 101.445312 218.835938 101.160156 218.824219 100.859375 C 218.808594 100.558594 218.851562 100.269531 218.953125 99.988281 C 219.050781 99.703125 219.203125 99.449219 219.402344 99.226562 C 219.605469 99.003906 219.839844 98.828125 220.113281 98.703125 C 220.382812 98.574219 220.667969 98.5 220.96875 98.484375 C 221.269531 98.46875 221.558594 98.511719 221.84375 98.613281 C 222.125 98.714844 222.378906 98.867188 222.601562 99.066406 C 222.824219 99.269531 223 99.503906 223.128906 99.777344 C 223.257812 100.046875 223.328125 100.332031 223.34375 100.632812 C 223.359375 100.933594 223.316406 101.222656 223.214844 101.507812 C 223.113281 101.789062 222.964844 102.042969 222.761719 102.265625 Z M 222.761719 102.265625 " fill-opacity="1" fill-rule="nonzero"/></g></g></g><g clip-path="url(#e6fd263111)"><g clip-path="url(#1486ecfe2f)"><g clip-path="url(#34479db24b)"><path fill="#f3931c" d="M 183.25 320.675781 C 183.046875 320.898438 182.8125 321.074219 182.539062 321.203125 C 182.269531 321.332031 181.984375 321.40625 181.683594 321.421875 C 181.382812 321.433594 181.09375 321.390625 180.808594 321.292969 C 180.527344 321.191406 180.273438 321.039062 180.050781 320.839844 C 179.828125 320.636719 179.652344 320.402344 179.523438 320.128906 C 179.394531 319.859375 179.324219 319.574219 179.308594 319.273438 C 179.292969 318.972656 179.335938 318.683594 179.4375 318.398438 C 179.539062 318.117188 179.6875 317.863281 179.890625 317.640625 C 180.09375 317.417969 180.328125 317.242188 180.597656 317.113281 C 180.871094 316.984375 181.15625 316.914062 181.457031 316.898438 C 181.753906 316.882812 182.046875 316.925781 182.328125 317.027344 C 182.613281 317.128906 182.863281 317.277344 183.085938 317.480469 C 183.308594 317.683594 183.484375 317.917969 183.613281 318.1875 C 183.742188 318.460938 183.816406 318.746094 183.832031 319.046875 C 183.84375 319.34375 183.800781 319.636719 183.703125 319.917969 C 183.601562 320.203125 183.449219 320.453125 183.25 320.675781 Z M 183.25 320.675781 " fill-opacity="1" fill-rule="nonzero"/></g></g></g><g clip-path="url(#7a91ceb30d)"><g clip-path="url(#173dc66cd7)"><g clip-path="url(#270a31e2ea)"><path fill="#f3931c" d="M 30.953125 329.535156 C 30.75 329.757812 30.515625 329.933594 30.242188 330.058594 C 29.972656 330.1875 29.6875 330.261719 29.386719 330.277344 C 29.085938 330.292969 28.796875 330.25 28.511719 330.148438 C 28.230469 330.046875 27.976562 329.894531 27.753906 329.695312 C 27.53125 329.492188 27.355469 329.257812 27.226562 328.984375 C 27.097656 328.714844 27.027344 328.429688 27.011719 328.128906 C 26.996094 327.828125 27.039062 327.539062 27.140625 327.253906 C 27.242188 326.972656 27.390625 326.71875 27.59375 326.496094 C 27.792969 326.273438 28.03125 326.097656 28.300781 325.972656 C 28.574219 325.84375 28.859375 325.769531 29.160156 325.753906 C 29.457031 325.738281 29.75 325.78125 30.03125 325.882812 C 30.316406 325.984375 30.566406 326.136719 30.789062 326.335938 C 31.011719 326.539062 31.1875 326.773438 31.316406 327.046875 C 31.445312 327.316406 31.519531 327.601562 31.53125 327.902344 C 31.546875 328.203125 31.503906 328.492188 31.40625 328.773438 C 31.304688 329.058594 31.152344 329.3125 30.953125 329.535156 Z M 30.953125 329.535156 " fill-opacity="1" fill-rule="nonzero"/></g></g></g><g clip-path="url(#19fe7c9813)"><g clip-path="url(#2a686eb3b0)"><g clip-path="url(#c7133d8306)"><path fill="#f3931c" d="M 212.917969 220.710938 C 212.601562 221.0625 212.226562 221.339844 211.796875 221.542969 C 211.371094 221.746094 210.917969 221.863281 210.445312 221.886719 C 209.972656 221.910156 209.511719 221.839844 209.066406 221.683594 C 208.621094 221.523438 208.222656 221.285156 207.871094 220.96875 C 207.519531 220.648438 207.242188 220.277344 207.039062 219.847656 C 206.835938 219.421875 206.722656 218.96875 206.695312 218.496094 C 206.671875 218.023438 206.742188 217.5625 206.898438 217.117188 C 207.058594 216.667969 207.296875 216.269531 207.617188 215.917969 C 207.933594 215.566406 208.304688 215.289062 208.734375 215.085938 C 209.164062 214.882812 209.613281 214.769531 210.085938 214.746094 C 210.558594 214.722656 211.019531 214.789062 211.464844 214.949219 C 211.914062 215.109375 212.3125 215.347656 212.664062 215.664062 C 213.015625 215.984375 213.292969 216.355469 213.496094 216.785156 C 213.699219 217.210938 213.8125 217.664062 213.835938 218.136719 C 213.859375 218.609375 213.792969 219.070312 213.632812 219.515625 C 213.472656 219.960938 213.234375 220.359375 212.917969 220.710938 Z M 212.917969 220.710938 " fill-opacity="1" fill-rule="nonzero"/></g></g></g><g clip-path="url(#1ed4203ea1)"><g clip-path="url(#9a0b8c19b9)"><g clip-path="url(#06b2eaa3c4)"><path fill="#f3931c" d="M 238.476562 160.554688 C 238.160156 160.90625 237.785156 161.183594 237.359375 161.386719 C 236.929688 161.589844 236.480469 161.703125 236.007812 161.726562 C 235.535156 161.75 235.074219 161.683594 234.625 161.523438 C 234.179688 161.363281 233.78125 161.125 233.429688 160.808594 C 233.078125 160.492188 232.800781 160.117188 232.597656 159.6875 C 232.394531 159.261719 232.28125 158.808594 232.257812 158.335938 C 232.234375 157.863281 232.300781 157.402344 232.460938 156.957031 C 232.621094 156.511719 232.859375 156.113281 233.175781 155.761719 C 233.492188 155.410156 233.867188 155.132812 234.292969 154.929688 C 234.722656 154.726562 235.171875 154.613281 235.648438 154.585938 C 236.121094 154.5625 236.578125 154.632812 237.027344 154.789062 C 237.472656 154.949219 237.871094 155.1875 238.222656 155.507812 C 238.574219 155.824219 238.851562 156.195312 239.054688 156.625 C 239.257812 157.054688 239.371094 157.503906 239.394531 157.976562 C 239.417969 158.449219 239.351562 158.910156 239.191406 159.355469 C 239.035156 159.804688 238.796875 160.203125 238.476562 160.554688 Z M 238.476562 160.554688 " fill-opacity="1" fill-rule="nonzero"/></g></g></g><g clip-path="url(#6a683be3b2)"><g clip-path="url(#aef9267593)"><g clip-path="url(#b59d32386b)"><path fill="#f3931c" d="M 102.765625 60.027344 C 102.449219 60.378906 102.074219 60.65625 101.644531 60.859375 C 101.21875 61.0625 100.765625 61.175781 100.292969 61.199219 C 99.820312 61.222656 99.359375 61.15625 98.914062 60.996094 C 98.46875 60.835938 98.070312 60.597656 97.71875 60.28125 C 97.367188 59.960938 97.089844 59.589844 96.886719 59.160156 C 96.683594 58.734375 96.570312 58.28125 96.546875 57.808594 C 96.519531 57.335938 96.589844 56.875 96.746094 56.429688 C 96.90625 55.984375 97.144531 55.582031 97.464844 55.230469 C 97.78125 54.878906 98.152344 54.601562 98.582031 54.398438 C 99.011719 54.195312 99.460938 54.082031 99.933594 54.058594 C 100.40625 54.035156 100.867188 54.105469 101.3125 54.261719 C 101.761719 54.421875 102.160156 54.660156 102.511719 54.976562 C 102.863281 55.296875 103.140625 55.667969 103.34375 56.097656 C 103.546875 56.523438 103.660156 56.976562 103.683594 57.449219 C 103.707031 57.921875 103.640625 58.382812 103.480469 58.828125 C 103.320312 59.273438 103.082031 59.675781 102.765625 60.027344 Z M 102.765625 60.027344 " fill-opacity="1" fill-rule="nonzero"/></g></g></g><g clip-path="url(#1d710e85ce)"><g clip-path="url(#076eabc1ac)"><g clip-path="url(#8c98fe8ead)"><path fill="#f3931c" d="M 156.441406 132.480469 C 156.125 132.832031 155.753906 133.109375 155.324219 133.3125 C 154.894531 133.515625 154.445312 133.628906 153.972656 133.652344 C 153.5 133.675781 153.039062 133.609375 152.59375 133.449219 C 152.144531 133.289062 151.746094 133.050781 151.394531 132.734375 C 151.042969 132.417969 150.765625 132.042969 150.5625 131.617188 C 150.359375 131.1875 150.246094 130.738281 150.222656 130.261719 C 150.199219 129.789062 150.265625 129.332031 150.425781 128.882812 C 150.585938 128.4375 150.824219 128.039062 151.140625 127.6875 C 151.457031 127.335938 151.832031 127.058594 152.257812 126.855469 C 152.6875 126.652344 153.136719 126.539062 153.613281 126.515625 C 154.085938 126.492188 154.546875 126.558594 154.992188 126.71875 C 155.4375 126.875 155.835938 127.113281 156.1875 127.433594 C 156.539062 127.75 156.816406 128.125 157.019531 128.550781 C 157.222656 128.980469 157.335938 129.429688 157.359375 129.902344 C 157.386719 130.378906 157.316406 130.835938 157.15625 131.285156 C 157 131.730469 156.761719 132.128906 156.441406 132.480469 Z M 156.441406 132.480469 " fill-opacity="1" fill-rule="nonzero"/></g></g></g><g clip-path="url(#31a3bbdf62)"><g clip-path="url(#b000eeb814)"><g clip-path="url(#9186dcb6b8)"><path fill="#01768a" d="M 283.046875 203.675781 C 282.910156 204.328125 282.738281 204.976562 282.542969 205.613281 C 282.347656 206.253906 282.121094 206.878906 281.871094 207.496094 C 281.617188 208.113281 281.339844 208.71875 281.035156 209.308594 C 280.734375 209.898438 280.40625 210.46875 280.050781 211.027344 C 279.699219 211.582031 279.324219 212.121094 278.921875 212.636719 C 278.523438 213.15625 278.105469 213.652344 277.664062 214.125 C 277.222656 214.601562 276.761719 215.050781 276.285156 215.476562 C 275.804688 215.902344 275.308594 216.304688 274.796875 216.679688 C 274.285156 217.050781 273.757812 217.398438 273.21875 217.714844 C 272.679688 218.035156 272.128906 218.324219 271.5625 218.582031 C 271 218.839844 270.429688 219.070312 269.847656 219.269531 C 269.265625 219.464844 268.679688 219.632812 268.085938 219.765625 C 267.492188 219.902344 266.898438 220.003906 266.296875 220.074219 C 265.699219 220.144531 265.101562 220.179688 264.5 220.1875 C 263.898438 220.191406 263.304688 220.164062 262.707031 220.101562 C 262.113281 220.042969 261.523438 219.949219 260.941406 219.824219 C 260.359375 219.699219 259.78125 219.542969 259.214844 219.351562 C 258.648438 219.164062 258.09375 218.945312 257.546875 218.695312 C 257.003906 218.441406 256.472656 218.164062 255.953125 217.851562 C 255.433594 217.542969 254.933594 217.207031 254.449219 216.839844 C 253.960938 216.472656 253.496094 216.082031 253.046875 215.660156 C 252.597656 215.242188 252.171875 214.800781 251.761719 214.332031 C 251.355469 213.863281 250.972656 213.375 250.609375 212.863281 C 250.246094 212.351562 249.910156 211.820312 249.597656 211.269531 C 249.28125 210.71875 248.996094 210.148438 248.734375 209.5625 C 248.472656 208.980469 248.238281 208.378906 248.03125 207.765625 C 247.824219 207.152344 247.644531 206.527344 247.492188 205.890625 C 247.339844 205.253906 247.21875 204.613281 247.125 203.960938 C 247.03125 203.308594 246.964844 202.648438 246.933594 201.988281 C 246.898438 201.324219 246.890625 200.660156 246.914062 199.996094 C 246.9375 199.328125 246.992188 198.664062 247.074219 198 C 247.15625 197.335938 247.269531 196.679688 247.410156 196.023438 C 247.550781 195.371094 247.71875 194.722656 247.914062 194.085938 C 248.113281 193.445312 248.335938 192.816406 248.589844 192.199219 C 248.839844 191.582031 249.117188 190.980469 249.421875 190.390625 C 249.726562 189.800781 250.054688 189.226562 250.40625 188.671875 C 250.757812 188.113281 251.136719 187.578125 251.535156 187.058594 C 251.933594 186.542969 252.351562 186.046875 252.792969 185.570312 C 253.234375 185.097656 253.695312 184.648438 254.175781 184.21875 C 254.652344 183.792969 255.148438 183.394531 255.660156 183.019531 C 256.171875 182.644531 256.699219 182.300781 257.238281 181.980469 C 257.777344 181.664062 258.332031 181.375 258.894531 181.117188 C 259.457031 180.855469 260.027344 180.628906 260.609375 180.429688 C 261.191406 180.230469 261.777344 180.066406 262.371094 179.929688 C 262.964844 179.796875 263.558594 179.695312 264.160156 179.625 C 264.757812 179.554688 265.359375 179.515625 265.957031 179.511719 C 266.558594 179.507812 267.15625 179.535156 267.75 179.59375 C 268.34375 179.65625 268.933594 179.75 269.515625 179.875 C 270.101562 180 270.675781 180.15625 271.242188 180.34375 C 271.808594 180.535156 272.367188 180.753906 272.910156 181.003906 C 273.457031 181.253906 273.988281 181.535156 274.503906 181.84375 C 275.023438 182.15625 275.523438 182.492188 276.007812 182.859375 C 276.496094 183.226562 276.960938 183.617188 277.410156 184.035156 C 277.859375 184.453125 278.285156 184.898438 278.695312 185.367188 C 279.101562 185.832031 279.484375 186.324219 279.847656 186.835938 C 280.210938 187.347656 280.546875 187.878906 280.859375 188.429688 C 281.175781 188.980469 281.460938 189.550781 281.722656 190.132812 C 281.984375 190.71875 282.21875 191.320312 282.425781 191.933594 C 282.636719 192.546875 282.816406 193.171875 282.964844 193.804688 C 283.117188 194.441406 283.238281 195.085938 283.332031 195.738281 C 283.425781 196.390625 283.492188 197.046875 283.527344 197.710938 C 283.5625 198.375 283.566406 199.039062 283.542969 199.703125 C 283.519531 200.371094 283.464844 201.035156 283.382812 201.699219 C 283.300781 202.359375 283.1875 203.019531 283.046875 203.675781 Z M 283.046875 203.675781 " fill-opacity="1" fill-rule="nonzero"/></g></g></g><g clip-path="url(#e9fccd53bd)"><g clip-path="url(#467d73b4f4)"><g clip-path="url(#3205fc8527)"><path fill="#f3931c" d="M 260.035156 199.234375 C 259.835938 199.457031 259.597656 199.632812 259.328125 199.761719 C 259.058594 199.890625 258.769531 199.960938 258.472656 199.976562 C 258.171875 199.992188 257.878906 199.949219 257.597656 199.847656 C 257.316406 199.746094 257.0625 199.597656 256.839844 199.394531 C 256.617188 199.195312 256.441406 198.957031 256.3125 198.6875 C 256.183594 198.414062 256.113281 198.128906 256.097656 197.832031 C 256.082031 197.53125 256.125 197.238281 256.226562 196.957031 C 256.328125 196.675781 256.476562 196.421875 256.679688 196.199219 C 256.878906 195.976562 257.117188 195.800781 257.386719 195.671875 C 257.660156 195.542969 257.945312 195.472656 258.242188 195.457031 C 258.542969 195.441406 258.835938 195.484375 259.117188 195.585938 C 259.398438 195.683594 259.652344 195.835938 259.875 196.039062 C 260.097656 196.238281 260.273438 196.476562 260.402344 196.746094 C 260.53125 197.015625 260.601562 197.304688 260.617188 197.601562 C 260.632812 197.902344 260.589844 198.195312 260.488281 198.476562 C 260.390625 198.757812 260.238281 199.011719 260.035156 199.234375 Z M 260.035156 199.234375 " fill-opacity="1" fill-rule="nonzero"/></g></g></g></svg>