<svg xmlns="http://www.w3.org/2000/svg" xmlns:xlink="http://www.w3.org/1999/xlink" width="800" zoomAndPan="magnify" viewBox="0 0 600 337.499995" height="450" preserveAspectRatio="xMidYMid meet" version="1.0"><defs><clipPath id="1ccb242d2b"><path d="M 0.445312 0 L 599.554688 0 L 599.554688 337 L 0.445312 337 Z M 0.445312 0 " clip-rule="nonzero"/></clipPath><clipPath id="6d7a245482"><path d="M 434 0 L 599.554688 0 L 599.554688 321 L 434 321 Z M 434 0 " clip-rule="nonzero"/></clipPath><clipPath id="4d72d75d89"><path d="M 688.355469 -69.214844 L 838.523438 229.96875 L 525.957031 386.855469 L 375.789062 87.671875 Z M 688.355469 -69.214844 " clip-rule="nonzero"/></clipPath><clipPath id="11715eb42e"><path d="M 688.355469 -69.214844 L 838.523438 229.96875 L 525.957031 386.855469 L 375.789062 87.671875 Z M 688.355469 -69.214844 " clip-rule="nonzero"/></clipPath><clipPath id="370cf8d853"><path d="M 565 178 L 569 178 L 569 183 L 565 183 Z M 565 178 " clip-rule="nonzero"/></clipPath><clipPath id="960bd2dee8"><path d="M 688.355469 -69.214844 L 838.523438 229.96875 L 525.957031 386.855469 L 375.789062 87.671875 Z M 688.355469 -69.214844 " clip-rule="nonzero"/></clipPath><clipPath id="515b27c9e6"><path d="M 688.355469 -69.214844 L 838.523438 229.96875 L 525.957031 386.855469 L 375.789062 87.671875 Z M 688.355469 -69.214844 " clip-rule="nonzero"/></clipPath><clipPath id="df794ecfe2"><path d="M 470 216 L 475 216 L 475 220 L 470 220 Z M 470 216 " clip-rule="nonzero"/></clipPath><clipPath id="5c2c738ecd"><path d="M 688.355469 -69.214844 L 838.523438 229.96875 L 525.957031 386.855469 L 375.789062 87.671875 Z M 688.355469 -69.214844 " clip-rule="nonzero"/></clipPath><clipPath id="158e9aca29"><path d="M 688.355469 -69.214844 L 838.523438 229.96875 L 525.957031 386.855469 L 375.789062 87.671875 Z M 688.355469 -69.214844 " clip-rule="nonzero"/></clipPath><clipPath id="f1d17e73f3"><path d="M 569 272 L 574 272 L 574 276 L 569 276 Z M 569 272 " clip-rule="nonzero"/></clipPath><clipPath id="b398de9b66"><path d="M 688.355469 -69.214844 L 838.523438 229.96875 L 525.957031 386.855469 L 375.789062 87.671875 Z M 688.355469 -69.214844 " clip-rule="nonzero"/></clipPath><clipPath id="fd703a92e4"><path d="M 688.355469 -69.214844 L 838.523438 229.96875 L 525.957031 386.855469 L 375.789062 87.671875 Z M 688.355469 -69.214844 " clip-rule="nonzero"/></clipPath><clipPath id="6dd03e1fed"><path d="M 536 37 L 540 37 L 540 41 L 536 41 Z M 536 37 " clip-rule="nonzero"/></clipPath><clipPath id="5813f7f988"><path d="M 688.355469 -69.214844 L 838.523438 229.96875 L 525.957031 386.855469 L 375.789062 87.671875 Z M 688.355469 -69.214844 " clip-rule="nonzero"/></clipPath><clipPath id="2af22fd0d6"><path d="M 688.355469 -69.214844 L 838.523438 229.96875 L 525.957031 386.855469 L 375.789062 87.671875 Z M 688.355469 -69.214844 " clip-rule="nonzero"/></clipPath><clipPath id="64adce22e6"><path d="M 555 90 L 559 90 L 559 95 L 555 95 Z M 555 90 " clip-rule="nonzero"/></clipPath><clipPath id="9f63a1491d"><path d="M 688.355469 -69.214844 L 838.523438 229.96875 L 525.957031 386.855469 L 375.789062 87.671875 Z M 688.355469 -69.214844 " clip-rule="nonzero"/></clipPath><clipPath id="f1a04410e2"><path d="M 688.355469 -69.214844 L 838.523438 229.96875 L 525.957031 386.855469 L 375.789062 87.671875 Z M 688.355469 -69.214844 " clip-rule="nonzero"/></clipPath><clipPath id="efe476de6d"><path d="M 591 5 L 596 5 L 596 9 L 591 9 Z M 591 5 " clip-rule="nonzero"/></clipPath><clipPath id="281868d9cf"><path d="M 688.355469 -69.214844 L 838.523438 229.96875 L 525.957031 386.855469 L 375.789062 87.671875 Z M 688.355469 -69.214844 " clip-rule="nonzero"/></clipPath><clipPath id="3aafd858e8"><path d="M 688.355469 -69.214844 L 838.523438 229.96875 L 525.957031 386.855469 L 375.789062 87.671875 Z M 688.355469 -69.214844 " clip-rule="nonzero"/></clipPath><clipPath id="504ae137bf"><path d="M 498 107 L 503 107 L 503 111 L 498 111 Z M 498 107 " clip-rule="nonzero"/></clipPath><clipPath id="781573f18f"><path d="M 688.355469 -69.214844 L 838.523438 229.96875 L 525.957031 386.855469 L 375.789062 87.671875 Z M 688.355469 -69.214844 " clip-rule="nonzero"/></clipPath><clipPath id="e1adcd436c"><path d="M 688.355469 -69.214844 L 838.523438 229.96875 L 525.957031 386.855469 L 375.789062 87.671875 Z M 688.355469 -69.214844 " clip-rule="nonzero"/></clipPath><clipPath id="f5f955233f"><path d="M 517 153 L 521 153 L 521 157 L 517 157 Z M 517 153 " clip-rule="nonzero"/></clipPath><clipPath id="0d77fc74a1"><path d="M 688.355469 -69.214844 L 838.523438 229.96875 L 525.957031 386.855469 L 375.789062 87.671875 Z M 688.355469 -69.214844 " clip-rule="nonzero"/></clipPath><clipPath id="bf4faf819e"><path d="M 688.355469 -69.214844 L 838.523438 229.96875 L 525.957031 386.855469 L 375.789062 87.671875 Z M 688.355469 -69.214844 " clip-rule="nonzero"/></clipPath><clipPath id="af4b9d486f"><path d="M 527 232 L 531 232 L 531 236 L 527 236 Z M 527 232 " clip-rule="nonzero"/></clipPath><clipPath id="b73a689263"><path d="M 688.355469 -69.214844 L 838.523438 229.96875 L 525.957031 386.855469 L 375.789062 87.671875 Z M 688.355469 -69.214844 " clip-rule="nonzero"/></clipPath><clipPath id="66cd17ec04"><path d="M 688.355469 -69.214844 L 838.523438 229.96875 L 525.957031 386.855469 L 375.789062 87.671875 Z M 688.355469 -69.214844 " clip-rule="nonzero"/></clipPath><clipPath id="973dc3809d"><path d="M 579 253 L 584 253 L 584 257 L 579 257 Z M 579 253 " clip-rule="nonzero"/></clipPath><clipPath id="e854f88c3a"><path d="M 688.355469 -69.214844 L 838.523438 229.96875 L 525.957031 386.855469 L 375.789062 87.671875 Z M 688.355469 -69.214844 " clip-rule="nonzero"/></clipPath><clipPath id="0db9b86ec0"><path d="M 688.355469 -69.214844 L 838.523438 229.96875 L 525.957031 386.855469 L 375.789062 87.671875 Z M 688.355469 -69.214844 " clip-rule="nonzero"/></clipPath><clipPath id="6efa9f10a4"><path d="M 487 218 L 493 218 L 493 224 L 487 224 Z M 487 218 " clip-rule="nonzero"/></clipPath><clipPath id="892157997d"><path d="M 688.355469 -69.214844 L 838.523438 229.96875 L 525.957031 386.855469 L 375.789062 87.671875 Z M 688.355469 -69.214844 " clip-rule="nonzero"/></clipPath><clipPath id="b60a18e947"><path d="M 688.355469 -69.214844 L 838.523438 229.96875 L 525.957031 386.855469 L 375.789062 87.671875 Z M 688.355469 -69.214844 " clip-rule="nonzero"/></clipPath><clipPath id="9488072119"><path d="M 518 103 L 524 103 L 524 109 L 518 109 Z M 518 103 " clip-rule="nonzero"/></clipPath><clipPath id="dd51e30498"><path d="M 688.355469 -69.214844 L 838.523438 229.96875 L 525.957031 386.855469 L 375.789062 87.671875 Z M 688.355469 -69.214844 " clip-rule="nonzero"/></clipPath><clipPath id="fa92f0aab9"><path d="M 688.355469 -69.214844 L 838.523438 229.96875 L 525.957031 386.855469 L 375.789062 87.671875 Z M 688.355469 -69.214844 " clip-rule="nonzero"/></clipPath><clipPath id="267f5bdcdb"><path d="M 524 42 L 530 42 L 530 48 L 524 48 Z M 524 42 " clip-rule="nonzero"/></clipPath><clipPath id="0193d7c823"><path d="M 688.355469 -69.214844 L 838.523438 229.96875 L 525.957031 386.855469 L 375.789062 87.671875 Z M 688.355469 -69.214844 " clip-rule="nonzero"/></clipPath><clipPath id="af62b631a7"><path d="M 688.355469 -69.214844 L 838.523438 229.96875 L 525.957031 386.855469 L 375.789062 87.671875 Z M 688.355469 -69.214844 " clip-rule="nonzero"/></clipPath><clipPath id="9fbfb774f5"><path d="M 546 313 L 581 313 L 581 337 L 546 337 Z M 546 313 " clip-rule="nonzero"/></clipPath><clipPath id="2aa968bd03"><path d="M 688.355469 -69.214844 L 838.523438 229.96875 L 525.957031 386.855469 L 375.789062 87.671875 Z M 688.355469 -69.214844 " clip-rule="nonzero"/></clipPath><clipPath id="a78fb4f196"><path d="M 688.355469 -69.214844 L 838.523438 229.96875 L 525.957031 386.855469 L 375.789062 87.671875 Z M 688.355469 -69.214844 " clip-rule="nonzero"/></clipPath><clipPath id="faf3a7c88f"><path d="M 554 321 L 560 321 L 560 327 L 554 327 Z M 554 321 " clip-rule="nonzero"/></clipPath><clipPath id="e58623e6f0"><path d="M 688.355469 -69.214844 L 838.523438 229.96875 L 525.957031 386.855469 L 375.789062 87.671875 Z M 688.355469 -69.214844 " clip-rule="nonzero"/></clipPath><clipPath id="30ff12c1f6"><path d="M 688.355469 -69.214844 L 838.523438 229.96875 L 525.957031 386.855469 L 375.789062 87.671875 Z M 688.355469 -69.214844 " clip-rule="nonzero"/></clipPath><clipPath id="96a4bcfc69"><path d="M 565 325 L 569 325 L 569 329 L 565 329 Z M 565 325 " clip-rule="nonzero"/></clipPath><clipPath id="7bd5fd1954"><path d="M 688.355469 -69.214844 L 838.523438 229.96875 L 525.957031 386.855469 L 375.789062 87.671875 Z M 688.355469 -69.214844 " clip-rule="nonzero"/></clipPath><clipPath id="137ba160d3"><path d="M 688.355469 -69.214844 L 838.523438 229.96875 L 525.957031 386.855469 L 375.789062 87.671875 Z M 688.355469 -69.214844 " clip-rule="nonzero"/></clipPath><clipPath id="5145be7e92"><path d="M 448 48 L 492 48 L 492 92 L 448 92 Z M 448 48 " clip-rule="nonzero"/></clipPath><clipPath id="4e1ff1cf31"><path d="M 688.355469 -69.214844 L 838.523438 229.96875 L 525.957031 386.855469 L 375.789062 87.671875 Z M 688.355469 -69.214844 " clip-rule="nonzero"/></clipPath><clipPath id="554f2a61a9"><path d="M 688.355469 -69.214844 L 838.523438 229.96875 L 525.957031 386.855469 L 375.789062 87.671875 Z M 688.355469 -69.214844 " clip-rule="nonzero"/></clipPath><clipPath id="0b2cdd8f81"><path d="M 428 94 L 448 94 L 448 113 L 428 113 Z M 428 94 " clip-rule="nonzero"/></clipPath><clipPath id="36e820528e"><path d="M 688.355469 -69.214844 L 838.523438 229.96875 L 525.957031 386.855469 L 375.789062 87.671875 Z M 688.355469 -69.214844 " clip-rule="nonzero"/></clipPath><clipPath id="69b313aeb5"><path d="M 688.355469 -69.214844 L 838.523438 229.96875 L 525.957031 386.855469 L 375.789062 87.671875 Z M 688.355469 -69.214844 " clip-rule="nonzero"/></clipPath><clipPath id="4c69950625"><path d="M 467 66 L 471 66 L 471 70 L 467 70 Z M 467 66 " clip-rule="nonzero"/></clipPath><clipPath id="d4502a5b3a"><path d="M 688.355469 -69.214844 L 838.523438 229.96875 L 525.957031 386.855469 L 375.789062 87.671875 Z M 688.355469 -69.214844 " clip-rule="nonzero"/></clipPath><clipPath id="d48a9fff7a"><path d="M 688.355469 -69.214844 L 838.523438 229.96875 L 525.957031 386.855469 L 375.789062 87.671875 Z M 688.355469 -69.214844 " clip-rule="nonzero"/></clipPath><clipPath id="705e09ecf6"><path d="M 466 77 L 472 77 L 472 84 L 466 84 Z M 466 77 " clip-rule="nonzero"/></clipPath><clipPath id="487f2bb11f"><path d="M 688.355469 -69.214844 L 838.523438 229.96875 L 525.957031 386.855469 L 375.789062 87.671875 Z M 688.355469 -69.214844 " clip-rule="nonzero"/></clipPath><clipPath id="9f91c629e8"><path d="M 688.355469 -69.214844 L 838.523438 229.96875 L 525.957031 386.855469 L 375.789062 87.671875 Z M 688.355469 -69.214844 " clip-rule="nonzero"/></clipPath><clipPath id="3f2f2cc504"><path d="M 0.445312 28 L 94 28 L 94 300 L 0.445312 300 Z M 0.445312 28 " clip-rule="nonzero"/></clipPath><clipPath id="93fc1133ce"><path d="M -46.75 -25.8125 L 152.683594 154.484375 L -35.648438 362.808594 L -235.082031 182.511719 Z M -46.75 -25.8125 " clip-rule="nonzero"/></clipPath><clipPath id="494bcf3a12"><path d="M -46.75 -25.8125 L 152.683594 154.484375 L -35.648438 362.808594 L -235.082031 182.511719 Z M -46.75 -25.8125 " clip-rule="nonzero"/></clipPath><clipPath id="b91c4cd8f4"><path d="M 0.445312 265 L 2 265 L 2 268 L 0.445312 268 Z M 0.445312 265 " clip-rule="nonzero"/></clipPath><clipPath id="101cf1abb5"><path d="M -46.75 -25.8125 L 152.683594 154.484375 L -35.648438 362.808594 L -235.082031 182.511719 Z M -46.75 -25.8125 " clip-rule="nonzero"/></clipPath><clipPath id="df05c1b415"><path d="M -46.75 -25.8125 L 152.683594 154.484375 L -35.648438 362.808594 L -235.082031 182.511719 Z M -46.75 -25.8125 " clip-rule="nonzero"/></clipPath><clipPath id="df74cac4e5"><path d="M 10 74 L 14 74 L 14 78 L 10 78 Z M 10 74 " clip-rule="nonzero"/></clipPath><clipPath id="af9b91d357"><path d="M -46.75 -25.8125 L 152.683594 154.484375 L -35.648438 362.808594 L -235.082031 182.511719 Z M -46.75 -25.8125 " clip-rule="nonzero"/></clipPath><clipPath id="78a89ce9a9"><path d="M -46.75 -25.8125 L 152.683594 154.484375 L -35.648438 362.808594 L -235.082031 182.511719 Z M -46.75 -25.8125 " clip-rule="nonzero"/></clipPath><clipPath id="ba2bb9dbaf"><path d="M 24 73 L 28 73 L 28 76 L 24 76 Z M 24 73 " clip-rule="nonzero"/></clipPath><clipPath id="88e5548081"><path d="M -46.75 -25.8125 L 152.683594 154.484375 L -35.648438 362.808594 L -235.082031 182.511719 Z M -46.75 -25.8125 " clip-rule="nonzero"/></clipPath><clipPath id="6857be8596"><path d="M -46.75 -25.8125 L 152.683594 154.484375 L -35.648438 362.808594 L -235.082031 182.511719 Z M -46.75 -25.8125 " clip-rule="nonzero"/></clipPath><clipPath id="9be9bb3589"><path d="M 59 184 L 62 184 L 62 188 L 59 188 Z M 59 184 " clip-rule="nonzero"/></clipPath><clipPath id="7511cd64ce"><path d="M -46.75 -25.8125 L 152.683594 154.484375 L -35.648438 362.808594 L -235.082031 182.511719 Z M -46.75 -25.8125 " clip-rule="nonzero"/></clipPath><clipPath id="914958f710"><path d="M -46.75 -25.8125 L 152.683594 154.484375 L -35.648438 362.808594 L -235.082031 182.511719 Z M -46.75 -25.8125 " clip-rule="nonzero"/></clipPath><clipPath id="b6e202f290"><path d="M 74 118 L 77 118 L 77 121 L 74 121 Z M 74 118 " clip-rule="nonzero"/></clipPath><clipPath id="80d68f22bb"><path d="M -46.75 -25.8125 L 152.683594 154.484375 L -35.648438 362.808594 L -235.082031 182.511719 Z M -46.75 -25.8125 " clip-rule="nonzero"/></clipPath><clipPath id="4e702a9801"><path d="M -46.75 -25.8125 L 152.683594 154.484375 L -35.648438 362.808594 L -235.082031 182.511719 Z M -46.75 -25.8125 " clip-rule="nonzero"/></clipPath><clipPath id="d3a0da01eb"><path d="M 52 241 L 55 241 L 55 244 L 52 244 Z M 52 241 " clip-rule="nonzero"/></clipPath><clipPath id="ae44adbf89"><path d="M -46.75 -25.8125 L 152.683594 154.484375 L -35.648438 362.808594 L -235.082031 182.511719 Z M -46.75 -25.8125 " clip-rule="nonzero"/></clipPath><clipPath id="d0ac8fd573"><path d="M -46.75 -25.8125 L 152.683594 154.484375 L -35.648438 362.808594 L -235.082031 182.511719 Z M -46.75 -25.8125 " clip-rule="nonzero"/></clipPath><clipPath id="b752019234"><path d="M 67 183 L 72 183 L 72 188 L 67 188 Z M 67 183 " clip-rule="nonzero"/></clipPath><clipPath id="caa82fb0b5"><path d="M -46.75 -25.8125 L 152.683594 154.484375 L -35.648438 362.808594 L -235.082031 182.511719 Z M -46.75 -25.8125 " clip-rule="nonzero"/></clipPath><clipPath id="f542dcae21"><path d="M -46.75 -25.8125 L 152.683594 154.484375 L -35.648438 362.808594 L -235.082031 182.511719 Z M -46.75 -25.8125 " clip-rule="nonzero"/></clipPath><clipPath id="be5bdb0bb0"><path d="M 81 149 L 86 149 L 86 154 L 81 154 Z M 81 149 " clip-rule="nonzero"/></clipPath><clipPath id="cd8e466fa1"><path d="M -46.75 -25.8125 L 152.683594 154.484375 L -35.648438 362.808594 L -235.082031 182.511719 Z M -46.75 -25.8125 " clip-rule="nonzero"/></clipPath><clipPath id="3105de455d"><path d="M -46.75 -25.8125 L 152.683594 154.484375 L -35.648438 362.808594 L -235.082031 182.511719 Z M -46.75 -25.8125 " clip-rule="nonzero"/></clipPath><clipPath id="40ff7d43c4"><path d="M 5 93 L 10 93 L 10 98 L 5 98 Z M 5 93 " clip-rule="nonzero"/></clipPath><clipPath id="1814fd52bf"><path d="M -46.75 -25.8125 L 152.683594 154.484375 L -35.648438 362.808594 L -235.082031 182.511719 Z M -46.75 -25.8125 " clip-rule="nonzero"/></clipPath><clipPath id="12435bbc4b"><path d="M -46.75 -25.8125 L 152.683594 154.484375 L -35.648438 362.808594 L -235.082031 182.511719 Z M -46.75 -25.8125 " clip-rule="nonzero"/></clipPath><clipPath id="74e7a259da"><path d="M 35 134 L 40 134 L 40 139 L 35 139 Z M 35 134 " clip-rule="nonzero"/></clipPath><clipPath id="80351ba4c9"><path d="M -46.75 -25.8125 L 152.683594 154.484375 L -35.648438 362.808594 L -235.082031 182.511719 Z M -46.75 -25.8125 " clip-rule="nonzero"/></clipPath><clipPath id="55803a4408"><path d="M -46.75 -25.8125 L 152.683594 154.484375 L -35.648438 362.808594 L -235.082031 182.511719 Z M -46.75 -25.8125 " clip-rule="nonzero"/></clipPath><clipPath id="7d1b9eb8d3"><path d="M 90 163 L 111 163 L 111 187 L 90 187 Z M 90 163 " clip-rule="nonzero"/></clipPath><clipPath id="d80c2a2f12"><path d="M -46.75 -25.8125 L 152.683594 154.484375 L -35.648438 362.808594 L -235.082031 182.511719 Z M -46.75 -25.8125 " clip-rule="nonzero"/></clipPath><clipPath id="dbd2428b3e"><path d="M -46.75 -25.8125 L 152.683594 154.484375 L -35.648438 362.808594 L -235.082031 182.511719 Z M -46.75 -25.8125 " clip-rule="nonzero"/></clipPath><clipPath id="69cfc7e3e2"><path d="M 95 172 L 98 172 L 98 176 L 95 176 Z M 95 172 " clip-rule="nonzero"/></clipPath><clipPath id="e2348666c1"><path d="M -46.75 -25.8125 L 152.683594 154.484375 L -35.648438 362.808594 L -235.082031 182.511719 Z M -46.75 -25.8125 " clip-rule="nonzero"/></clipPath><clipPath id="b6c82dab24"><path d="M -46.75 -25.8125 L 152.683594 154.484375 L -35.648438 362.808594 L -235.082031 182.511719 Z M -46.75 -25.8125 " clip-rule="nonzero"/></clipPath></defs><g clip-path="url(#1ccb242d2b)"><path fill="#ffffff" d="M 0.445312 0 L 599.554688 0 L 599.554688 337 L 0.445312 337 Z M 0.445312 0 " fill-opacity="1" fill-rule="nonzero"/><path fill="#3cb371" d="M 0.445312 0 L 599.554688 0 L 599.554688 337 L 0.445312 337 Z M 0.445312 0 " fill-opacity="1" fill-rule="nonzero"/></g><g clip-path="url(#6d7a245482)"><g clip-path="url(#4d72d75d89)"><g clip-path="url(#11715eb42e)"><path fill="#01768a" d="M 683.019531 308.175781 C 713.011719 293.121094 733.273438 266.332031 741.140625 235.929688 C 743.597656 226.457031 748.992188 218.085938 756.355469 211.675781 C 785.488281 186.238281 794.796875 142.941406 776.363281 106.21875 C 767.316406 88.101562 752.382812 73.640625 733.976562 65.230469 C 723.601562 60.511719 715.242188 52.160156 710.136719 41.894531 L 710.042969 41.707031 C 683.089844 -11.898438 616.832031 -33.089844 562.011719 -5.574219 C 530.898438 10.042969 510.191406 37.992188 502.976562 69.046875 C 499.5 84.226562 489.023438 96.839844 474.699219 102.996094 C 473.613281 103.449219 472.511719 103.957031 471.425781 104.5 C 432.835938 123.871094 423.121094 182.492188 449.699219 235.445312 C 472.445312 280.769531 514.421875 307.21875 550.265625 301.773438 C 560.535156 300.222656 571.074219 302.097656 580.363281 306.984375 C 611.527344 323.273438 649.515625 324.992188 683.019531 308.175781 Z M 683.019531 308.175781 " fill-opacity="1" fill-rule="nonzero"/></g></g></g><g clip-path="url(#370cf8d853)"><g clip-path="url(#960bd2dee8)"><g clip-path="url(#515b27c9e6)"><path fill="#ec4033" d="M 568.644531 181.132812 C 567.75 183.453125 564.4375 182.167969 566.003906 180.070312 C 567.535156 177.992188 569.371094 179.222656 568.644531 181.132812 Z M 568.644531 181.132812 " fill-opacity="1" fill-rule="nonzero"/></g></g></g><g clip-path="url(#df794ecfe2)"><g clip-path="url(#5c2c738ecd)"><g clip-path="url(#158e9aca29)"><path fill="#f3931c" d="M 473.28125 219.535156 C 473.09375 219.628906 472.894531 219.683594 472.683594 219.699219 C 472.472656 219.714844 472.269531 219.6875 472.066406 219.621094 C 471.867188 219.554688 471.6875 219.453125 471.527344 219.316406 C 471.367188 219.175781 471.242188 219.015625 471.148438 218.824219 C 471.054688 218.636719 470.996094 218.4375 470.984375 218.226562 C 470.96875 218.019531 470.992188 217.8125 471.058594 217.613281 C 471.125 217.414062 471.226562 217.230469 471.367188 217.074219 C 471.503906 216.914062 471.667969 216.785156 471.855469 216.691406 C 472.042969 216.597656 472.242188 216.542969 472.453125 216.527344 C 472.664062 216.511719 472.867188 216.539062 473.070312 216.605469 C 473.269531 216.671875 473.449219 216.773438 473.609375 216.910156 C 473.769531 217.046875 473.894531 217.210938 473.988281 217.398438 C 474.085938 217.589844 474.140625 217.789062 474.152344 217.996094 C 474.167969 218.207031 474.144531 218.414062 474.078125 218.613281 C 474.011719 218.8125 473.910156 218.992188 473.769531 219.152344 C 473.632812 219.3125 473.46875 219.4375 473.28125 219.535156 Z M 473.28125 219.535156 " fill-opacity="1" fill-rule="nonzero"/></g></g></g><g clip-path="url(#f1d17e73f3)"><g clip-path="url(#b398de9b66)"><g clip-path="url(#fd703a92e4)"><path fill="#f3931c" d="M 572.289062 275.414062 C 572.097656 275.507812 571.898438 275.5625 571.6875 275.578125 C 571.480469 275.59375 571.273438 275.566406 571.074219 275.5 C 570.875 275.433594 570.695312 275.332031 570.535156 275.195312 C 570.375 275.054688 570.246094 274.894531 570.152344 274.703125 C 570.058594 274.515625 570.003906 274.316406 569.988281 274.105469 C 569.972656 273.894531 570 273.691406 570.066406 273.492188 C 570.132812 273.289062 570.234375 273.109375 570.371094 272.949219 C 570.507812 272.792969 570.671875 272.664062 570.859375 272.570312 C 571.050781 272.476562 571.25 272.421875 571.457031 272.40625 C 571.667969 272.390625 571.875 272.414062 572.074219 272.480469 C 572.273438 272.546875 572.453125 272.648438 572.613281 272.789062 C 572.773438 272.925781 572.902344 273.089844 572.996094 273.277344 C 573.089844 273.464844 573.144531 273.664062 573.160156 273.875 C 573.175781 274.085938 573.148438 274.292969 573.082031 274.492188 C 573.015625 274.691406 572.914062 274.871094 572.777344 275.03125 C 572.640625 275.191406 572.476562 275.316406 572.289062 275.414062 Z M 572.289062 275.414062 " fill-opacity="1" fill-rule="nonzero"/></g></g></g><g clip-path="url(#6dd03e1fed)"><g clip-path="url(#5813f7f988)"><g clip-path="url(#2af22fd0d6)"><path fill="#f3931c" d="M 538.765625 40.644531 C 538.578125 40.738281 538.378906 40.792969 538.167969 40.808594 C 537.960938 40.824219 537.753906 40.796875 537.554688 40.730469 C 537.355469 40.664062 537.171875 40.5625 537.015625 40.425781 C 536.855469 40.285156 536.726562 40.125 536.632812 39.933594 C 536.539062 39.746094 536.484375 39.546875 536.46875 39.335938 C 536.453125 39.125 536.480469 38.921875 536.546875 38.722656 C 536.613281 38.519531 536.714844 38.339844 536.851562 38.183594 C 536.988281 38.023438 537.152344 37.894531 537.339844 37.800781 C 537.53125 37.707031 537.730469 37.652344 537.9375 37.636719 C 538.148438 37.621094 538.355469 37.648438 538.554688 37.710938 C 538.753906 37.777344 538.933594 37.882812 539.09375 38.019531 C 539.253906 38.15625 539.378906 38.320312 539.476562 38.507812 C 539.570312 38.695312 539.625 38.898438 539.640625 39.105469 C 539.65625 39.316406 539.628906 39.523438 539.5625 39.722656 C 539.496094 39.921875 539.394531 40.101562 539.257812 40.261719 C 539.117188 40.421875 538.957031 40.546875 538.765625 40.644531 Z M 538.765625 40.644531 " fill-opacity="1" fill-rule="nonzero"/></g></g></g><g clip-path="url(#64adce22e6)"><g clip-path="url(#9f63a1491d)"><g clip-path="url(#f1a04410e2)"><path fill="#f3931c" d="M 558.125 93.851562 C 557.933594 93.945312 557.734375 94 557.523438 94.015625 C 557.316406 94.03125 557.109375 94.003906 556.910156 93.9375 C 556.710938 93.871094 556.53125 93.769531 556.371094 93.632812 C 556.210938 93.492188 556.082031 93.332031 555.988281 93.140625 C 555.894531 92.953125 555.839844 92.753906 555.824219 92.542969 C 555.808594 92.332031 555.835938 92.128906 555.902344 91.929688 C 555.96875 91.726562 556.070312 91.546875 556.207031 91.390625 C 556.34375 91.230469 556.507812 91.101562 556.695312 91.007812 C 556.886719 90.914062 557.085938 90.859375 557.292969 90.84375 C 557.503906 90.828125 557.710938 90.851562 557.910156 90.917969 C 558.109375 90.984375 558.289062 91.089844 558.449219 91.226562 C 558.609375 91.363281 558.734375 91.527344 558.832031 91.714844 C 558.925781 91.902344 558.980469 92.101562 558.996094 92.3125 C 559.011719 92.523438 558.984375 92.730469 558.917969 92.929688 C 558.851562 93.128906 558.75 93.308594 558.613281 93.46875 C 558.476562 93.628906 558.3125 93.753906 558.125 93.851562 Z M 558.125 93.851562 " fill-opacity="1" fill-rule="nonzero"/></g></g></g><g clip-path="url(#efe476de6d)"><g clip-path="url(#281868d9cf)"><g clip-path="url(#3aafd858e8)"><path fill="#f3931c" d="M 594.253906 8.015625 C 594.066406 8.113281 593.867188 8.167969 593.65625 8.183594 C 593.445312 8.195312 593.242188 8.171875 593.042969 8.105469 C 592.839844 8.039062 592.660156 7.9375 592.503906 7.796875 C 592.34375 7.660156 592.214844 7.496094 592.121094 7.308594 C 592.027344 7.121094 591.972656 6.921875 591.957031 6.710938 C 591.941406 6.5 591.964844 6.296875 592.03125 6.09375 C 592.097656 5.894531 592.203125 5.714844 592.339844 5.554688 C 592.476562 5.394531 592.640625 5.269531 592.828125 5.175781 C 593.015625 5.082031 593.214844 5.023438 593.425781 5.011719 C 593.636719 4.996094 593.84375 5.019531 594.042969 5.085938 C 594.242188 5.152344 594.421875 5.253906 594.582031 5.394531 C 594.742188 5.53125 594.867188 5.695312 594.964844 5.882812 C 595.058594 6.070312 595.113281 6.269531 595.128906 6.480469 C 595.144531 6.691406 595.117188 6.894531 595.050781 7.097656 C 594.984375 7.296875 594.882812 7.476562 594.746094 7.636719 C 594.605469 7.796875 594.445312 7.921875 594.253906 8.015625 Z M 594.253906 8.015625 " fill-opacity="1" fill-rule="nonzero"/></g></g></g><g clip-path="url(#504ae137bf)"><g clip-path="url(#781573f18f)"><g clip-path="url(#e1adcd436c)"><path fill="#f3931c" d="M 501.261719 110.21875 C 501.074219 110.3125 500.875 110.367188 500.664062 110.382812 C 500.453125 110.398438 500.25 110.371094 500.050781 110.304688 C 499.847656 110.238281 499.667969 110.136719 499.507812 110 C 499.351562 109.859375 499.222656 109.699219 499.128906 109.507812 C 499.035156 109.320312 498.980469 109.121094 498.964844 108.910156 C 498.949219 108.699219 498.972656 108.496094 499.039062 108.296875 C 499.105469 108.09375 499.207031 107.914062 499.347656 107.757812 C 499.484375 107.597656 499.648438 107.46875 499.835938 107.375 C 500.023438 107.28125 500.222656 107.226562 500.433594 107.210938 C 500.644531 107.195312 500.851562 107.21875 501.050781 107.285156 C 501.25 107.351562 501.429688 107.457031 501.589844 107.59375 C 501.75 107.730469 501.875 107.894531 501.96875 108.082031 C 502.066406 108.269531 502.121094 108.46875 502.136719 108.679688 C 502.152344 108.890625 502.125 109.097656 502.058594 109.296875 C 501.992188 109.496094 501.890625 109.675781 501.753906 109.835938 C 501.613281 109.996094 501.453125 110.121094 501.261719 110.21875 Z M 501.261719 110.21875 " fill-opacity="1" fill-rule="nonzero"/></g></g></g><g clip-path="url(#f5f955233f)"><g clip-path="url(#0d77fc74a1)"><g clip-path="url(#bf4faf819e)"><path fill="#f3931c" d="M 519.578125 156.59375 C 519.390625 156.691406 519.191406 156.746094 518.980469 156.761719 C 518.769531 156.777344 518.566406 156.75 518.363281 156.683594 C 518.164062 156.617188 517.984375 156.515625 517.824219 156.378906 C 517.667969 156.238281 517.539062 156.074219 517.445312 155.886719 C 517.351562 155.699219 517.296875 155.5 517.28125 155.289062 C 517.265625 155.078125 517.289062 154.875 517.355469 154.675781 C 517.421875 154.472656 517.523438 154.292969 517.664062 154.132812 C 517.800781 153.976562 517.964844 153.847656 518.152344 153.753906 C 518.339844 153.660156 518.539062 153.605469 518.75 153.589844 C 518.960938 153.574219 519.164062 153.597656 519.367188 153.664062 C 519.566406 153.730469 519.746094 153.832031 519.90625 153.972656 C 520.066406 154.109375 520.191406 154.273438 520.285156 154.460938 C 520.382812 154.648438 520.4375 154.847656 520.453125 155.058594 C 520.464844 155.269531 520.441406 155.476562 520.375 155.675781 C 520.308594 155.875 520.207031 156.054688 520.070312 156.214844 C 519.929688 156.375 519.765625 156.5 519.578125 156.59375 Z M 519.578125 156.59375 " fill-opacity="1" fill-rule="nonzero"/></g></g></g><g clip-path="url(#af4b9d486f)"><g clip-path="url(#b73a689263)"><g clip-path="url(#66cd17ec04)"><path fill="#f3931c" d="M 529.480469 235.800781 C 529.292969 235.898438 529.089844 235.953125 528.882812 235.96875 C 528.671875 235.984375 528.464844 235.957031 528.265625 235.890625 C 528.066406 235.824219 527.886719 235.722656 527.726562 235.585938 C 527.566406 235.445312 527.441406 235.285156 527.34375 235.09375 C 527.25 234.90625 527.195312 234.707031 527.179688 234.496094 C 527.164062 234.285156 527.191406 234.082031 527.257812 233.882812 C 527.324219 233.679688 527.425781 233.5 527.5625 233.339844 C 527.703125 233.183594 527.863281 233.054688 528.054688 232.960938 C 528.242188 232.867188 528.441406 232.8125 528.652344 232.796875 C 528.863281 232.78125 529.066406 232.804688 529.265625 232.871094 C 529.46875 232.9375 529.648438 233.039062 529.804688 233.179688 C 529.964844 233.316406 530.09375 233.480469 530.1875 233.667969 C 530.28125 233.855469 530.335938 234.054688 530.351562 234.265625 C 530.367188 234.476562 530.34375 234.683594 530.277344 234.882812 C 530.210938 235.082031 530.105469 235.261719 529.96875 235.421875 C 529.832031 235.582031 529.667969 235.707031 529.480469 235.800781 Z M 529.480469 235.800781 " fill-opacity="1" fill-rule="nonzero"/></g></g></g><g clip-path="url(#973dc3809d)"><g clip-path="url(#e854f88c3a)"><g clip-path="url(#0db9b86ec0)"><path fill="#f3931c" d="M 582.15625 256.367188 C 581.96875 256.460938 581.769531 256.515625 581.558594 256.53125 C 581.347656 256.546875 581.144531 256.519531 580.941406 256.453125 C 580.742188 256.386719 580.5625 256.285156 580.402344 256.148438 C 580.246094 256.011719 580.117188 255.847656 580.023438 255.660156 C 579.929688 255.46875 579.871094 255.269531 579.859375 255.0625 C 579.84375 254.851562 579.867188 254.644531 579.933594 254.445312 C 580 254.246094 580.101562 254.066406 580.242188 253.90625 C 580.378906 253.746094 580.542969 253.617188 580.730469 253.523438 C 580.917969 253.429688 581.117188 253.375 581.328125 253.359375 C 581.539062 253.34375 581.742188 253.371094 581.945312 253.4375 C 582.144531 253.503906 582.324219 253.605469 582.484375 253.742188 C 582.644531 253.878906 582.769531 254.042969 582.863281 254.230469 C 582.960938 254.421875 583.015625 254.621094 583.03125 254.832031 C 583.042969 255.039062 583.019531 255.246094 582.953125 255.445312 C 582.886719 255.644531 582.785156 255.824219 582.644531 255.984375 C 582.507812 256.144531 582.34375 256.273438 582.15625 256.367188 Z M 582.15625 256.367188 " fill-opacity="1" fill-rule="nonzero"/></g></g></g><g clip-path="url(#6efa9f10a4)"><g clip-path="url(#892157997d)"><g clip-path="url(#b60a18e947)"><path fill="#f3931c" d="M 490.640625 223.085938 C 490.34375 223.238281 490.027344 223.324219 489.695312 223.347656 C 489.363281 223.371094 489.039062 223.332031 488.722656 223.226562 C 488.40625 223.121094 488.125 222.960938 487.871094 222.742188 C 487.621094 222.523438 487.417969 222.265625 487.269531 221.96875 C 487.121094 221.671875 487.035156 221.355469 487.007812 221.023438 C 486.984375 220.691406 487.027344 220.371094 487.128906 220.054688 C 487.234375 219.738281 487.398438 219.453125 487.613281 219.203125 C 487.832031 218.949219 488.089844 218.75 488.386719 218.601562 C 488.683594 218.449219 489 218.363281 489.332031 218.339844 C 489.664062 218.316406 489.988281 218.355469 490.304688 218.460938 C 490.621094 218.566406 490.902344 218.726562 491.15625 218.945312 C 491.40625 219.164062 491.609375 219.417969 491.757812 219.71875 C 491.90625 220.015625 491.992188 220.328125 492.015625 220.660156 C 492.042969 220.992188 492 221.316406 491.898438 221.632812 C 491.792969 221.949219 491.628906 222.234375 491.414062 222.484375 C 491.195312 222.738281 490.9375 222.9375 490.640625 223.085938 Z M 490.640625 223.085938 " fill-opacity="1" fill-rule="nonzero"/></g></g></g><g clip-path="url(#9488072119)"><g clip-path="url(#dd51e30498)"><g clip-path="url(#fa92f0aab9)"><path fill="#f3931c" d="M 521.863281 108.351562 C 521.566406 108.5 521.25 108.585938 520.917969 108.613281 C 520.585938 108.636719 520.261719 108.59375 519.945312 108.492188 C 519.628906 108.386719 519.347656 108.226562 519.09375 108.007812 C 518.84375 107.789062 518.640625 107.53125 518.492188 107.234375 C 518.34375 106.9375 518.257812 106.621094 518.230469 106.289062 C 518.207031 105.957031 518.25 105.632812 518.351562 105.316406 C 518.457031 105 518.621094 104.71875 518.835938 104.464844 C 519.054688 104.214844 519.3125 104.011719 519.609375 103.863281 C 519.90625 103.714844 520.222656 103.628906 520.554688 103.605469 C 520.886719 103.578125 521.210938 103.621094 521.527344 103.726562 C 521.84375 103.828125 522.125 103.992188 522.378906 104.207031 C 522.628906 104.425781 522.832031 104.683594 522.980469 104.980469 C 523.128906 105.277344 523.214844 105.59375 523.238281 105.925781 C 523.265625 106.257812 523.222656 106.582031 523.117188 106.898438 C 523.015625 107.214844 522.851562 107.496094 522.636719 107.75 C 522.417969 108 522.160156 108.203125 521.863281 108.351562 Z M 521.863281 108.351562 " fill-opacity="1" fill-rule="nonzero"/></g></g></g><g clip-path="url(#267f5bdcdb)"><g clip-path="url(#0193d7c823)"><g clip-path="url(#af62b631a7)"><path fill="#f3931c" d="M 528.242188 47.285156 C 527.945312 47.433594 527.628906 47.519531 527.296875 47.542969 C 526.964844 47.566406 526.640625 47.527344 526.328125 47.421875 C 526.011719 47.316406 525.726562 47.15625 525.472656 46.9375 C 525.222656 46.722656 525.023438 46.464844 524.871094 46.164062 C 524.722656 45.867188 524.636719 45.554688 524.613281 45.222656 C 524.589844 44.890625 524.628906 44.566406 524.734375 44.25 C 524.839844 43.933594 525 43.648438 525.21875 43.398438 C 525.433594 43.144531 525.691406 42.945312 525.992188 42.796875 C 526.289062 42.648438 526.601562 42.558594 526.933594 42.535156 C 527.265625 42.511719 527.589844 42.550781 527.90625 42.65625 C 528.222656 42.761719 528.507812 42.921875 528.757812 43.140625 C 529.011719 43.359375 529.210938 43.617188 529.359375 43.914062 C 529.507812 44.210938 529.597656 44.527344 529.621094 44.859375 C 529.644531 45.191406 529.605469 45.515625 529.5 45.828125 C 529.394531 46.144531 529.234375 46.429688 529.015625 46.683594 C 528.796875 46.933594 528.539062 47.132812 528.242188 47.285156 Z M 528.242188 47.285156 " fill-opacity="1" fill-rule="nonzero"/></g></g></g><g clip-path="url(#9fbfb774f5)"><g clip-path="url(#2aa968bd03)"><g clip-path="url(#a78fb4f196)"><path fill="#01768a" d="M 577.851562 338.625 C 577.582031 339.039062 577.289062 339.433594 576.972656 339.8125 C 576.65625 340.1875 576.320312 340.550781 575.964844 340.890625 C 575.605469 341.234375 575.230469 341.554688 574.832031 341.859375 C 574.4375 342.160156 574.023438 342.441406 573.589844 342.703125 C 573.160156 342.964844 572.714844 343.203125 572.25 343.417969 C 571.789062 343.632812 571.3125 343.824219 570.824219 343.992188 C 570.339844 344.160156 569.839844 344.304688 569.328125 344.425781 C 568.820312 344.546875 568.300781 344.640625 567.773438 344.710938 C 567.25 344.78125 566.71875 344.824219 566.179688 344.84375 C 565.640625 344.863281 565.101562 344.859375 564.554688 344.828125 C 564.011719 344.796875 563.464844 344.742188 562.921875 344.660156 C 562.375 344.578125 561.832031 344.472656 561.289062 344.339844 C 560.75 344.210938 560.214844 344.054688 559.679688 343.875 C 559.148438 343.695312 558.625 343.496094 558.105469 343.269531 C 557.589844 343.042969 557.082031 342.796875 556.582031 342.523438 C 556.085938 342.253906 555.597656 341.964844 555.125 341.652344 C 554.652344 341.339844 554.191406 341.007812 553.746094 340.660156 C 553.300781 340.308594 552.871094 339.941406 552.460938 339.554688 C 552.046875 339.167969 551.65625 338.765625 551.28125 338.347656 C 550.90625 337.929688 550.550781 337.5 550.214844 337.054688 C 549.882812 336.609375 549.570312 336.152344 549.277344 335.683594 C 548.988281 335.214844 548.722656 334.734375 548.476562 334.246094 C 548.234375 333.761719 548.015625 333.265625 547.820312 332.761719 C 547.625 332.261719 547.457031 331.753906 547.3125 331.242188 C 547.167969 330.734375 547.050781 330.21875 546.957031 329.703125 C 546.867188 329.1875 546.800781 328.671875 546.761719 328.160156 C 546.726562 327.644531 546.714844 327.132812 546.726562 326.621094 C 546.742188 326.113281 546.785156 325.609375 546.851562 325.109375 C 546.921875 324.609375 547.015625 324.117188 547.136719 323.636719 C 547.257812 323.152344 547.40625 322.675781 547.578125 322.214844 C 547.75 321.75 547.949219 321.296875 548.171875 320.859375 C 548.394531 320.417969 548.640625 319.992188 548.910156 319.582031 C 549.183594 319.171875 549.476562 318.777344 549.789062 318.398438 C 550.105469 318.019531 550.441406 317.660156 550.800781 317.316406 C 551.160156 316.976562 551.535156 316.652344 551.933594 316.351562 C 552.328125 316.046875 552.742188 315.765625 553.171875 315.503906 C 553.605469 315.246094 554.050781 315.007812 554.511719 314.792969 C 554.972656 314.578125 555.449219 314.382812 555.9375 314.214844 C 556.425781 314.046875 556.925781 313.902344 557.433594 313.785156 C 557.945312 313.664062 558.460938 313.570312 558.988281 313.5 C 559.515625 313.429688 560.046875 313.382812 560.585938 313.363281 C 561.121094 313.34375 561.664062 313.351562 562.207031 313.382812 C 562.753906 313.414062 563.296875 313.46875 563.84375 313.550781 C 564.386719 313.632812 564.929688 313.738281 565.472656 313.867188 C 566.015625 314 566.550781 314.152344 567.082031 314.332031 C 567.613281 314.511719 568.140625 314.714844 568.65625 314.941406 C 569.175781 315.164062 569.683594 315.414062 570.179688 315.683594 C 570.679688 315.953125 571.164062 316.246094 571.640625 316.558594 C 572.113281 316.867188 572.574219 317.199219 573.015625 317.550781 C 573.460938 317.902344 573.890625 318.269531 574.304688 318.65625 C 574.714844 319.042969 575.109375 319.445312 575.484375 319.859375 C 575.859375 320.277344 576.214844 320.710938 576.546875 321.15625 C 576.882812 321.601562 577.195312 322.058594 577.484375 322.527344 C 577.777344 322.996094 578.042969 323.472656 578.285156 323.960938 C 578.53125 324.449219 578.75 324.945312 578.945312 325.445312 C 579.140625 325.949219 579.308594 326.453125 579.453125 326.964844 C 579.597656 327.476562 579.714844 327.988281 579.804688 328.503906 C 579.898438 329.019531 579.960938 329.535156 580 330.050781 C 580.039062 330.566406 580.050781 331.078125 580.035156 331.585938 C 580.019531 332.097656 579.980469 332.601562 579.910156 333.101562 C 579.84375 333.597656 579.746094 334.089844 579.625 334.574219 C 579.503906 335.058594 579.359375 335.53125 579.183594 335.996094 C 579.011719 336.460938 578.816406 336.910156 578.59375 337.351562 C 578.371094 337.789062 578.121094 338.214844 577.851562 338.625 Z M 577.851562 338.625 " fill-opacity="1" fill-rule="nonzero"/></g></g></g><g clip-path="url(#faf3a7c88f)"><g clip-path="url(#e58623e6f0)"><g clip-path="url(#30ff12c1f6)"><path fill="#f3931c" d="M 557.789062 326.554688 C 557.492188 326.707031 557.175781 326.792969 556.84375 326.816406 C 556.511719 326.839844 556.1875 326.800781 555.871094 326.695312 C 555.558594 326.589844 555.273438 326.429688 555.019531 326.210938 C 554.769531 325.992188 554.570312 325.738281 554.417969 325.4375 C 554.269531 325.140625 554.183594 324.828125 554.160156 324.496094 C 554.136719 324.164062 554.175781 323.839844 554.28125 323.523438 C 554.386719 323.207031 554.546875 322.921875 554.765625 322.671875 C 554.980469 322.417969 555.238281 322.21875 555.535156 322.070312 C 555.835938 321.917969 556.148438 321.832031 556.480469 321.808594 C 556.8125 321.785156 557.136719 321.824219 557.453125 321.929688 C 557.769531 322.035156 558.054688 322.195312 558.304688 322.414062 C 558.558594 322.632812 558.757812 322.890625 558.90625 323.1875 C 559.054688 323.484375 559.144531 323.800781 559.167969 324.132812 C 559.191406 324.464844 559.152344 324.785156 559.046875 325.101562 C 558.941406 325.417969 558.78125 325.703125 558.5625 325.953125 C 558.34375 326.207031 558.085938 326.40625 557.789062 326.554688 Z M 557.789062 326.554688 " fill-opacity="1" fill-rule="nonzero"/></g></g></g><g clip-path="url(#96a4bcfc69)"><g clip-path="url(#7bd5fd1954)"><g clip-path="url(#137ba160d3)"><path fill="#f3931c" d="M 567.335938 328.132812 C 567.148438 328.226562 566.945312 328.28125 566.738281 328.296875 C 566.527344 328.3125 566.320312 328.285156 566.121094 328.21875 C 565.921875 328.152344 565.742188 328.050781 565.582031 327.914062 C 565.421875 327.777344 565.296875 327.613281 565.199219 327.425781 C 565.105469 327.234375 565.050781 327.035156 565.035156 326.828125 C 565.019531 326.617188 565.046875 326.410156 565.113281 326.210938 C 565.179688 326.011719 565.28125 325.832031 565.417969 325.671875 C 565.558594 325.511719 565.71875 325.386719 565.910156 325.289062 C 566.097656 325.195312 566.296875 325.140625 566.507812 325.125 C 566.71875 325.109375 566.921875 325.136719 567.121094 325.203125 C 567.324219 325.269531 567.503906 325.371094 567.660156 325.507812 C 567.820312 325.644531 567.949219 325.808594 568.042969 325.996094 C 568.136719 326.1875 568.191406 326.386719 568.207031 326.597656 C 568.222656 326.804688 568.195312 327.011719 568.132812 327.210938 C 568.066406 327.410156 567.960938 327.589844 567.824219 327.75 C 567.6875 327.910156 567.523438 328.039062 567.335938 328.132812 Z M 567.335938 328.132812 " fill-opacity="1" fill-rule="nonzero"/></g></g></g><g clip-path="url(#5145be7e92)"><g clip-path="url(#4e1ff1cf31)"><g clip-path="url(#554f2a61a9)"><path fill="#01768a" d="M 483.609375 84.335938 C 483.054688 84.851562 482.476562 85.34375 481.882812 85.808594 C 481.285156 86.277344 480.671875 86.714844 480.042969 87.128906 C 479.410156 87.542969 478.765625 87.925781 478.105469 88.28125 C 477.445312 88.636719 476.773438 88.960938 476.089844 89.253906 C 475.40625 89.546875 474.710938 89.808594 474.011719 90.035156 C 473.3125 90.265625 472.609375 90.460938 471.898438 90.621094 C 471.1875 90.785156 470.476562 90.914062 469.765625 91.007812 C 469.050781 91.101562 468.34375 91.164062 467.632812 91.1875 C 466.925781 91.214844 466.222656 91.203125 465.523438 91.160156 C 464.828125 91.117188 464.136719 91.039062 463.457031 90.925781 C 462.777344 90.8125 462.109375 90.667969 461.453125 90.488281 C 460.796875 90.304688 460.15625 90.09375 459.53125 89.847656 C 458.90625 89.601562 458.300781 89.324219 457.710938 89.011719 C 457.121094 88.703125 456.554688 88.363281 456.007812 87.992188 C 455.460938 87.621094 454.9375 87.222656 454.4375 86.796875 C 453.9375 86.367188 453.464844 85.914062 453.015625 85.433594 C 452.570312 84.953125 452.148438 84.449219 451.757812 83.917969 C 451.367188 83.390625 451.007812 82.839844 450.675781 82.269531 C 450.347656 81.695312 450.046875 81.105469 449.78125 80.496094 C 449.515625 79.886719 449.28125 79.261719 449.078125 78.621094 C 448.878906 77.976562 448.710938 77.324219 448.578125 76.65625 C 448.445312 75.988281 448.347656 75.3125 448.28125 74.625 C 448.21875 73.941406 448.191406 73.246094 448.195312 72.546875 C 448.203125 71.851562 448.242188 71.148438 448.320312 70.441406 C 448.394531 69.738281 448.503906 69.035156 448.652344 68.328125 C 448.796875 67.625 448.972656 66.925781 449.1875 66.230469 C 449.398438 65.53125 449.644531 64.84375 449.921875 64.160156 C 450.203125 63.480469 450.511719 62.808594 450.851562 62.148438 C 451.195312 61.488281 451.566406 60.839844 451.964844 60.207031 C 452.367188 59.574219 452.796875 58.957031 453.253906 58.355469 C 453.710938 57.753906 454.191406 57.175781 454.699219 56.613281 C 455.207031 56.050781 455.738281 55.515625 456.292969 54.996094 C 456.847656 54.480469 457.425781 53.988281 458.019531 53.523438 C 458.617188 53.054688 459.230469 52.617188 459.859375 52.203125 C 460.492188 51.789062 461.136719 51.40625 461.796875 51.050781 C 462.457031 50.699219 463.132812 50.375 463.816406 50.082031 C 464.5 49.789062 465.191406 49.527344 465.890625 49.296875 C 466.589844 49.066406 467.292969 48.871094 468.003906 48.710938 C 468.714844 48.546875 469.425781 48.417969 470.136719 48.324219 C 470.851562 48.230469 471.5625 48.171875 472.269531 48.144531 C 472.976562 48.121094 473.679688 48.128906 474.378906 48.171875 C 475.074219 48.214844 475.765625 48.292969 476.445312 48.40625 C 477.125 48.519531 477.792969 48.667969 478.449219 48.847656 C 479.105469 49.027344 479.746094 49.238281 480.371094 49.484375 C 480.996094 49.730469 481.605469 50.011719 482.191406 50.320312 C 482.78125 50.628906 483.347656 50.96875 483.898438 51.339844 C 484.445312 51.710938 484.964844 52.109375 485.464844 52.539062 C 485.964844 52.964844 486.4375 53.417969 486.886719 53.898438 C 487.332031 54.378906 487.753906 54.882812 488.144531 55.414062 C 488.535156 55.941406 488.894531 56.492188 489.226562 57.0625 C 489.554688 57.636719 489.855469 58.226562 490.121094 58.835938 C 490.386719 59.445312 490.621094 60.070312 490.824219 60.714844 C 491.023438 61.355469 491.191406 62.007812 491.324219 62.675781 C 491.457031 63.34375 491.554688 64.019531 491.621094 64.707031 C 491.683594 65.390625 491.710938 66.085938 491.707031 66.785156 C 491.699219 67.484375 491.660156 68.183594 491.582031 68.890625 C 491.507812 69.59375 491.398438 70.300781 491.25 71.003906 C 491.105469 71.707031 490.929688 72.40625 490.714844 73.101562 C 490.503906 73.800781 490.257812 74.488281 489.980469 75.171875 C 489.699219 75.851562 489.390625 76.523438 489.050781 77.183594 C 488.707031 77.847656 488.335938 78.492188 487.9375 79.125 C 487.535156 79.761719 487.105469 80.378906 486.648438 80.976562 C 486.191406 81.578125 485.710938 82.160156 485.203125 82.71875 C 484.695312 83.28125 484.164062 83.820312 483.609375 84.335938 Z M 483.609375 84.335938 " fill-opacity="1" fill-rule="nonzero"/></g></g></g><g clip-path="url(#0b2cdd8f81)"><g clip-path="url(#36e820528e)"><g clip-path="url(#69b313aeb5)"><path fill="#01768a" d="M 442.621094 111.933594 C 442.066406 112.214844 441.488281 112.4375 440.890625 112.601562 C 440.292969 112.765625 439.683594 112.871094 439.0625 112.914062 C 438.445312 112.960938 437.828125 112.945312 437.210938 112.867188 C 436.59375 112.792969 435.992188 112.65625 435.402344 112.460938 C 434.8125 112.265625 434.25 112.011719 433.707031 111.707031 C 433.167969 111.398438 432.664062 111.042969 432.195312 110.636719 C 431.726562 110.230469 431.300781 109.78125 430.917969 109.292969 C 430.535156 108.804688 430.207031 108.28125 429.929688 107.726562 C 429.648438 107.171875 429.425781 106.59375 429.261719 105.996094 C 429.097656 105.398438 428.992188 104.789062 428.949219 104.167969 C 428.902344 103.550781 428.917969 102.933594 428.996094 102.316406 C 429.070312 101.699219 429.207031 101.097656 429.402344 100.507812 C 429.597656 99.917969 429.851562 99.351562 430.15625 98.8125 C 430.464844 98.273438 430.820312 97.769531 431.226562 97.300781 C 431.632812 96.828125 432.078125 96.402344 432.570312 96.023438 C 433.058594 95.640625 433.582031 95.3125 434.136719 95.03125 C 434.691406 94.753906 435.269531 94.53125 435.867188 94.367188 C 436.464844 94.203125 437.074219 94.097656 437.695312 94.050781 C 438.3125 94.007812 438.929688 94.023438 439.546875 94.101562 C 440.164062 94.175781 440.765625 94.3125 441.355469 94.507812 C 441.945312 94.703125 442.507812 94.953125 443.050781 95.261719 C 443.589844 95.566406 444.09375 95.925781 444.5625 96.332031 C 445.035156 96.738281 445.460938 97.183594 445.839844 97.675781 C 446.222656 98.164062 446.550781 98.6875 446.832031 99.242188 C 447.109375 99.796875 447.332031 100.375 447.496094 100.972656 C 447.660156 101.570312 447.765625 102.179688 447.8125 102.800781 C 447.855469 103.417969 447.839844 104.035156 447.761719 104.652344 C 447.6875 105.269531 447.550781 105.871094 447.355469 106.460938 C 447.160156 107.050781 446.910156 107.613281 446.601562 108.15625 C 446.296875 108.695312 445.9375 109.199219 445.53125 109.667969 C 445.125 110.136719 444.679688 110.5625 444.1875 110.945312 C 443.699219 111.328125 443.175781 111.65625 442.621094 111.933594 Z M 442.621094 111.933594 " fill-opacity="1" fill-rule="nonzero"/></g></g></g><g clip-path="url(#4c69950625)"><g clip-path="url(#d4502a5b3a)"><g clip-path="url(#d48a9fff7a)"><path fill="#f3931c" d="M 469.558594 69.527344 C 469.371094 69.625 469.167969 69.679688 468.960938 69.695312 C 468.75 69.710938 468.542969 69.683594 468.34375 69.617188 C 468.144531 69.550781 467.964844 69.449219 467.804688 69.3125 C 467.644531 69.171875 467.519531 69.011719 467.421875 68.820312 C 467.328125 68.632812 467.273438 68.433594 467.257812 68.222656 C 467.242188 68.011719 467.269531 67.808594 467.335938 67.609375 C 467.402344 67.40625 467.503906 67.226562 467.640625 67.066406 C 467.78125 66.910156 467.941406 66.78125 468.132812 66.6875 C 468.320312 66.59375 468.519531 66.539062 468.730469 66.523438 C 468.941406 66.507812 469.144531 66.53125 469.34375 66.597656 C 469.546875 66.664062 469.726562 66.765625 469.882812 66.90625 C 470.042969 67.042969 470.171875 67.207031 470.265625 67.394531 C 470.359375 67.582031 470.414062 67.78125 470.429688 67.992188 C 470.445312 68.203125 470.421875 68.410156 470.355469 68.609375 C 470.289062 68.808594 470.183594 68.988281 470.046875 69.148438 C 469.910156 69.308594 469.746094 69.433594 469.558594 69.527344 Z M 469.558594 69.527344 " fill-opacity="1" fill-rule="nonzero"/></g></g></g><g clip-path="url(#705e09ecf6)"><g clip-path="url(#487f2bb11f)"><g clip-path="url(#9f91c629e8)"><path fill="#f3931c" d="M 470.570312 82.738281 C 470.273438 82.886719 469.957031 82.976562 469.625 83 C 469.292969 83.023438 468.96875 82.984375 468.652344 82.878906 C 468.335938 82.773438 468.054688 82.613281 467.800781 82.394531 C 467.550781 82.175781 467.347656 81.917969 467.199219 81.621094 C 467.050781 81.324219 466.964844 81.007812 466.941406 80.675781 C 466.914062 80.34375 466.957031 80.019531 467.0625 79.703125 C 467.164062 79.386719 467.328125 79.105469 467.542969 78.851562 C 467.761719 78.601562 468.019531 78.402344 468.316406 78.25 C 468.613281 78.101562 468.929688 78.015625 469.261719 77.992188 C 469.59375 77.964844 469.917969 78.007812 470.234375 78.113281 C 470.550781 78.214844 470.832031 78.378906 471.085938 78.597656 C 471.335938 78.8125 471.539062 79.070312 471.6875 79.367188 C 471.835938 79.667969 471.921875 79.980469 471.949219 80.3125 C 471.972656 80.644531 471.929688 80.96875 471.828125 81.285156 C 471.722656 81.601562 471.558594 81.886719 471.34375 82.136719 C 471.125 82.386719 470.867188 82.589844 470.570312 82.738281 Z M 470.570312 82.738281 " fill-opacity="1" fill-rule="nonzero"/></g></g></g><g clip-path="url(#3f2f2cc504)"><g clip-path="url(#93fc1133ce)"><g clip-path="url(#494bcf3a12)"><path fill="#01768a" d="M 58.917969 258 C 76.976562 238.023438 84.347656 212.101562 81.398438 187.078125 C 80.480469 179.277344 82.082031 171.449219 85.726562 164.515625 C 100.125 137.023438 94.507812 101.9375 70.050781 79.828125 C 58.019531 68.902344 42.644531 62.429688 26.433594 61.488281 C 17.304688 60.972656 8.625 57.15625 1.824219 50.960938 L 1.699219 50.847656 C -34.035156 18.585938 -89.75 21.988281 -122.757812 58.5 C -141.488281 79.21875 -148.855469 106.144531 -145.226562 131.464844 C -143.414062 143.828125 -147.585938 156.304688 -156.511719 165.074219 C -157.191406 165.726562 -157.867188 166.425781 -158.523438 167.148438 C -181.757812 192.851562 -171.988281 239.519531 -136.722656 271.402344 C -106.539062 298.6875 -67.457031 306.273438 -42.230469 291.789062 C -35 287.644531 -26.574219 285.984375 -18.207031 286.941406 C 9.832031 290.066406 38.746094 280.3125 58.917969 258 Z M 58.917969 258 " fill-opacity="1" fill-rule="nonzero"/></g></g></g><g clip-path="url(#b91c4cd8f4)"><g clip-path="url(#101cf1abb5)"><g clip-path="url(#df05c1b415)"><path fill="#f3931c" d="M 1.5 267.144531 C 1.386719 267.269531 1.253906 267.367188 1.101562 267.441406 C 0.949219 267.515625 0.785156 267.554688 0.617188 267.5625 C 0.449219 267.570312 0.285156 267.546875 0.125 267.492188 C -0.0351562 267.433594 -0.175781 267.347656 -0.300781 267.234375 C -0.425781 267.121094 -0.527344 266.988281 -0.597656 266.835938 C -0.671875 266.683594 -0.710938 266.523438 -0.71875 266.351562 C -0.730469 266.183594 -0.703125 266.019531 -0.648438 265.859375 C -0.589844 265.703125 -0.507812 265.558594 -0.394531 265.433594 C -0.28125 265.308594 -0.144531 265.207031 0.0078125 265.136719 C 0.160156 265.0625 0.320312 265.023438 0.488281 265.015625 C 0.660156 265.007812 0.824219 265.03125 0.980469 265.085938 C 1.140625 265.144531 1.285156 265.230469 1.410156 265.34375 C 1.535156 265.457031 1.632812 265.589844 1.707031 265.742188 C 1.777344 265.894531 1.820312 266.054688 1.828125 266.226562 C 1.835938 266.394531 1.8125 266.558594 1.753906 266.71875 C 1.699219 266.875 1.613281 267.019531 1.5 267.144531 Z M 1.5 267.144531 " fill-opacity="1" fill-rule="nonzero"/></g></g></g><g clip-path="url(#df74cac4e5)"><g clip-path="url(#af9b91d357)"><g clip-path="url(#78a89ce9a9)"><path fill="#f3931c" d="M 12.984375 76.664062 C 12.871094 76.789062 12.738281 76.890625 12.585938 76.960938 C 12.433594 77.035156 12.269531 77.074219 12.101562 77.082031 C 11.933594 77.089844 11.769531 77.066406 11.609375 77.011719 C 11.449219 76.953125 11.308594 76.867188 11.183594 76.753906 C 11.058594 76.640625 10.957031 76.507812 10.886719 76.355469 C 10.8125 76.203125 10.773438 76.042969 10.765625 75.875 C 10.753906 75.703125 10.78125 75.539062 10.835938 75.378906 C 10.894531 75.222656 10.976562 75.078125 11.09375 74.953125 C 11.207031 74.828125 11.339844 74.730469 11.492188 74.65625 C 11.644531 74.582031 11.804688 74.542969 11.972656 74.535156 C 12.144531 74.527344 12.308594 74.550781 12.464844 74.605469 C 12.625 74.664062 12.769531 74.75 12.894531 74.863281 C 13.019531 74.976562 13.117188 75.109375 13.191406 75.261719 C 13.261719 75.414062 13.304688 75.574219 13.3125 75.746094 C 13.320312 75.914062 13.296875 76.078125 13.238281 76.238281 C 13.183594 76.398438 13.097656 76.539062 12.984375 76.664062 Z M 12.984375 76.664062 " fill-opacity="1" fill-rule="nonzero"/></g></g></g><g clip-path="url(#ba2bb9dbaf)"><g clip-path="url(#88e5548081)"><g clip-path="url(#6857be8596)"><path fill="#f3931c" d="M 26.683594 75.378906 C 26.570312 75.503906 26.4375 75.605469 26.285156 75.675781 C 26.128906 75.75 25.96875 75.789062 25.800781 75.796875 C 25.632812 75.808594 25.46875 75.78125 25.308594 75.726562 C 25.148438 75.667969 25.007812 75.585938 24.882812 75.472656 C 24.753906 75.355469 24.65625 75.222656 24.582031 75.070312 C 24.511719 74.917969 24.472656 74.757812 24.460938 74.589844 C 24.453125 74.417969 24.476562 74.253906 24.535156 74.097656 C 24.589844 73.9375 24.675781 73.792969 24.789062 73.667969 C 24.902344 73.542969 25.035156 73.445312 25.191406 73.371094 C 25.34375 73.300781 25.503906 73.257812 25.671875 73.25 C 25.839844 73.242188 26.003906 73.265625 26.164062 73.324219 C 26.324219 73.378906 26.464844 73.464844 26.59375 73.578125 C 26.71875 73.691406 26.816406 73.824219 26.890625 73.976562 C 26.960938 74.128906 27.003906 74.292969 27.011719 74.460938 C 27.019531 74.628906 26.996094 74.792969 26.9375 74.953125 C 26.882812 75.113281 26.796875 75.253906 26.683594 75.378906 Z M 26.683594 75.378906 " fill-opacity="1" fill-rule="nonzero"/></g></g></g><g clip-path="url(#9be9bb3589)"><g clip-path="url(#7511cd64ce)"><g clip-path="url(#914958f710)"><path fill="#f3931c" d="M 61.253906 186.832031 C 61.136719 186.957031 61.003906 187.054688 60.851562 187.128906 C 60.699219 187.203125 60.539062 187.242188 60.371094 187.25 C 60.199219 187.257812 60.035156 187.234375 59.878906 187.179688 C 59.71875 187.121094 59.574219 187.035156 59.449219 186.921875 C 59.324219 186.808594 59.226562 186.675781 59.152344 186.523438 C 59.082031 186.371094 59.039062 186.210938 59.03125 186.039062 C 59.023438 185.871094 59.046875 185.707031 59.105469 185.546875 C 59.160156 185.390625 59.246094 185.246094 59.359375 185.121094 C 59.472656 184.996094 59.605469 184.894531 59.757812 184.824219 C 59.910156 184.75 60.074219 184.710938 60.242188 184.703125 C 60.410156 184.695312 60.574219 184.71875 60.734375 184.773438 C 60.894531 184.832031 61.035156 184.917969 61.160156 185.03125 C 61.285156 185.144531 61.386719 185.277344 61.457031 185.429688 C 61.53125 185.582031 61.570312 185.742188 61.578125 185.914062 C 61.589844 186.082031 61.5625 186.246094 61.507812 186.40625 C 61.449219 186.5625 61.367188 186.707031 61.253906 186.832031 Z M 61.253906 186.832031 " fill-opacity="1" fill-rule="nonzero"/></g></g></g><g clip-path="url(#b6e202f290)"><g clip-path="url(#80d68f22bb)"><g clip-path="url(#4e702a9801)"><path fill="#f3931c" d="M 76.542969 120.457031 C 76.429688 120.582031 76.296875 120.679688 76.144531 120.753906 C 75.992188 120.824219 75.828125 120.867188 75.660156 120.875 C 75.492188 120.882812 75.328125 120.859375 75.167969 120.800781 C 75.007812 120.746094 74.867188 120.660156 74.742188 120.546875 C 74.617188 120.433594 74.515625 120.300781 74.445312 120.148438 C 74.371094 119.992188 74.332031 119.832031 74.320312 119.664062 C 74.3125 119.496094 74.335938 119.332031 74.394531 119.171875 C 74.453125 119.011719 74.535156 118.871094 74.648438 118.746094 C 74.761719 118.617188 74.898438 118.519531 75.050781 118.445312 C 75.203125 118.375 75.363281 118.335938 75.53125 118.324219 C 75.699219 118.316406 75.867188 118.339844 76.023438 118.398438 C 76.183594 118.453125 76.328125 118.539062 76.453125 118.652344 C 76.578125 118.765625 76.675781 118.898438 76.75 119.054688 C 76.820312 119.207031 76.863281 119.367188 76.871094 119.535156 C 76.878906 119.703125 76.855469 119.867188 76.796875 120.027344 C 76.742188 120.1875 76.65625 120.328125 76.542969 120.457031 Z M 76.542969 120.457031 " fill-opacity="1" fill-rule="nonzero"/></g></g></g><g clip-path="url(#d3a0da01eb)"><g clip-path="url(#ae44adbf89)"><g clip-path="url(#d0ac8fd573)"><path fill="#f3931c" d="M 54.269531 243.566406 C 54.15625 243.691406 54.023438 243.792969 53.871094 243.863281 C 53.71875 243.9375 53.558594 243.976562 53.386719 243.984375 C 53.21875 243.996094 53.054688 243.96875 52.894531 243.914062 C 52.738281 243.855469 52.59375 243.769531 52.46875 243.65625 C 52.34375 243.542969 52.242188 243.410156 52.171875 243.257812 C 52.097656 243.105469 52.058594 242.945312 52.050781 242.777344 C 52.042969 242.605469 52.066406 242.441406 52.121094 242.285156 C 52.179688 242.125 52.265625 241.980469 52.378906 241.855469 C 52.492188 241.730469 52.625 241.632812 52.777344 241.558594 C 52.929688 241.488281 53.089844 241.445312 53.261719 241.4375 C 53.429688 241.429688 53.59375 241.453125 53.753906 241.511719 C 53.910156 241.566406 54.054688 241.652344 54.179688 241.765625 C 54.304688 241.878906 54.402344 242.011719 54.476562 242.164062 C 54.550781 242.316406 54.589844 242.476562 54.597656 242.648438 C 54.605469 242.816406 54.582031 242.980469 54.527344 243.140625 C 54.46875 243.300781 54.382812 243.441406 54.269531 243.566406 Z M 54.269531 243.566406 " fill-opacity="1" fill-rule="nonzero"/></g></g></g><g clip-path="url(#b752019234)"><g clip-path="url(#caa82fb0b5)"><g clip-path="url(#f542dcae21)"><path fill="#f3931c" d="M 70.992188 187.21875 C 70.816406 187.417969 70.605469 187.574219 70.363281 187.691406 C 70.121094 187.804688 69.867188 187.867188 69.601562 187.882812 C 69.332031 187.894531 69.074219 187.855469 68.824219 187.765625 C 68.570312 187.675781 68.347656 187.542969 68.148438 187.363281 C 67.949219 187.183594 67.792969 186.976562 67.679688 186.734375 C 67.566406 186.492188 67.5 186.238281 67.488281 185.972656 C 67.472656 185.703125 67.511719 185.445312 67.601562 185.195312 C 67.691406 184.941406 67.824219 184.71875 68.003906 184.519531 C 68.183594 184.320312 68.394531 184.164062 68.636719 184.050781 C 68.878906 183.933594 69.132812 183.871094 69.398438 183.859375 C 69.664062 183.84375 69.925781 183.882812 70.175781 183.972656 C 70.425781 184.0625 70.652344 184.195312 70.851562 184.375 C 71.046875 184.554688 71.203125 184.765625 71.320312 185.007812 C 71.433594 185.246094 71.496094 185.5 71.511719 185.769531 C 71.523438 186.035156 71.488281 186.292969 71.398438 186.546875 C 71.308594 186.796875 71.171875 187.023438 70.992188 187.21875 Z M 70.992188 187.21875 " fill-opacity="1" fill-rule="nonzero"/></g></g></g><g clip-path="url(#be5bdb0bb0)"><g clip-path="url(#cd8e466fa1)"><g clip-path="url(#3105de455d)"><path fill="#f3931c" d="M 85.402344 153.3125 C 85.222656 153.507812 85.011719 153.664062 84.769531 153.78125 C 84.527344 153.894531 84.273438 153.957031 84.007812 153.972656 C 83.742188 153.984375 83.480469 153.949219 83.230469 153.859375 C 82.980469 153.769531 82.753906 153.632812 82.554688 153.453125 C 82.359375 153.277344 82.203125 153.066406 82.085938 152.824219 C 81.972656 152.582031 81.910156 152.328125 81.894531 152.0625 C 81.882812 151.792969 81.917969 151.535156 82.007812 151.285156 C 82.097656 151.03125 82.234375 150.808594 82.414062 150.609375 C 82.589844 150.410156 82.800781 150.253906 83.042969 150.140625 C 83.285156 150.027344 83.539062 149.960938 83.804688 149.949219 C 84.070312 149.933594 84.332031 149.972656 84.582031 150.0625 C 84.835938 150.152344 85.058594 150.285156 85.257812 150.464844 C 85.457031 150.644531 85.613281 150.855469 85.726562 151.097656 C 85.839844 151.339844 85.90625 151.59375 85.917969 151.859375 C 85.933594 152.125 85.894531 152.386719 85.804688 152.636719 C 85.714844 152.886719 85.582031 153.113281 85.402344 153.3125 Z M 85.402344 153.3125 " fill-opacity="1" fill-rule="nonzero"/></g></g></g><g clip-path="url(#40ff7d43c4)"><g clip-path="url(#1814fd52bf)"><g clip-path="url(#12435bbc4b)"><path fill="#f3931c" d="M 8.90625 96.648438 C 8.726562 96.84375 8.515625 97 8.273438 97.117188 C 8.03125 97.230469 7.777344 97.292969 7.511719 97.308594 C 7.246094 97.320312 6.984375 97.285156 6.734375 97.195312 C 6.484375 97.105469 6.257812 96.96875 6.058594 96.789062 C 5.863281 96.613281 5.707031 96.402344 5.589844 96.160156 C 5.476562 95.917969 5.410156 95.664062 5.398438 95.398438 C 5.386719 95.128906 5.421875 94.871094 5.511719 94.621094 C 5.601562 94.367188 5.738281 94.144531 5.917969 93.945312 C 6.09375 93.746094 6.304688 93.589844 6.546875 93.476562 C 6.789062 93.363281 7.042969 93.296875 7.308594 93.285156 C 7.574219 93.269531 7.835938 93.308594 8.085938 93.398438 C 8.339844 93.488281 8.5625 93.621094 8.761719 93.800781 C 8.960938 93.980469 9.117188 94.191406 9.230469 94.433594 C 9.34375 94.675781 9.410156 94.929688 9.421875 95.195312 C 9.4375 95.460938 9.398438 95.722656 9.308594 95.972656 C 9.21875 96.222656 9.082031 96.449219 8.90625 96.648438 Z M 8.90625 96.648438 " fill-opacity="1" fill-rule="nonzero"/></g></g></g><g clip-path="url(#74e7a259da)"><g clip-path="url(#80351ba4c9)"><g clip-path="url(#55803a4408)"><path fill="#f3931c" d="M 39.160156 137.488281 C 38.980469 137.683594 38.769531 137.839844 38.53125 137.957031 C 38.289062 138.070312 38.035156 138.132812 37.769531 138.148438 C 37.5 138.160156 37.242188 138.125 36.992188 138.035156 C 36.738281 137.945312 36.515625 137.808594 36.316406 137.628906 C 36.117188 137.453125 35.960938 137.242188 35.847656 137 C 35.730469 136.757812 35.667969 136.503906 35.65625 136.238281 C 35.640625 135.972656 35.679688 135.710938 35.769531 135.460938 C 35.859375 135.207031 35.992188 134.984375 36.171875 134.785156 C 36.351562 134.585938 36.5625 134.429688 36.804688 134.316406 C 37.042969 134.203125 37.296875 134.136719 37.566406 134.125 C 37.832031 134.109375 38.089844 134.148438 38.34375 134.238281 C 38.59375 134.328125 38.820312 134.460938 39.015625 134.640625 C 39.214844 134.820312 39.371094 135.03125 39.488281 135.273438 C 39.601562 135.515625 39.664062 135.769531 39.679688 136.035156 C 39.691406 136.300781 39.652344 136.5625 39.5625 136.8125 C 39.472656 137.0625 39.339844 137.289062 39.160156 137.488281 Z M 39.160156 137.488281 " fill-opacity="1" fill-rule="nonzero"/></g></g></g><g clip-path="url(#7d1b9eb8d3)"><g clip-path="url(#d80c2a2f12)"><g clip-path="url(#dbd2428b3e)"><path fill="#01768a" d="M 110.523438 177.617188 C 110.367188 178.355469 110.144531 179.074219 109.859375 179.773438 C 109.574219 180.46875 109.234375 181.132812 108.835938 181.761719 C 108.4375 182.390625 107.988281 182.972656 107.488281 183.507812 C 106.992188 184.042969 106.453125 184.523438 105.875 184.945312 C 105.292969 185.367188 104.6875 185.726562 104.050781 186.019531 C 103.414062 186.3125 102.761719 186.535156 102.089844 186.6875 C 101.421875 186.839844 100.746094 186.917969 100.070312 186.921875 C 99.390625 186.929688 98.722656 186.859375 98.0625 186.71875 C 97.402344 186.578125 96.765625 186.367188 96.148438 186.082031 C 95.535156 185.800781 94.953125 185.449219 94.402344 185.039062 C 93.855469 184.625 93.351562 184.152344 92.890625 183.625 C 92.429688 183.097656 92.023438 182.519531 91.667969 181.898438 C 91.3125 181.273438 91.019531 180.617188 90.785156 179.921875 C 90.550781 179.230469 90.378906 178.515625 90.273438 177.777344 C 90.167969 177.039062 90.128906 176.296875 90.15625 175.542969 C 90.183594 174.789062 90.277344 174.042969 90.433594 173.304688 C 90.59375 172.566406 90.816406 171.847656 91.101562 171.148438 C 91.382812 170.453125 91.726562 169.789062 92.125 169.160156 C 92.523438 168.53125 92.972656 167.949219 93.472656 167.414062 C 93.96875 166.875 94.507812 166.398438 95.085938 165.976562 C 95.664062 165.550781 96.273438 165.195312 96.910156 164.902344 C 97.546875 164.609375 98.199219 164.386719 98.867188 164.234375 C 99.539062 164.082031 100.210938 164.003906 100.890625 163.996094 C 101.566406 163.992188 102.238281 164.058594 102.898438 164.203125 C 103.554688 164.34375 104.195312 164.554688 104.808594 164.839844 C 105.425781 165.121094 106.007812 165.46875 106.554688 165.882812 C 107.105469 166.296875 107.609375 166.769531 108.070312 167.296875 C 108.53125 167.824219 108.9375 168.402344 109.292969 169.023438 C 109.644531 169.648438 109.941406 170.304688 110.175781 170.996094 C 110.410156 171.691406 110.578125 172.40625 110.683594 173.144531 C 110.789062 173.882812 110.828125 174.625 110.800781 175.378906 C 110.777344 176.132812 110.683594 176.878906 110.523438 177.617188 Z M 110.523438 177.617188 " fill-opacity="1" fill-rule="nonzero"/></g></g></g><g clip-path="url(#69cfc7e3e2)"><g clip-path="url(#e2348666c1)"><g clip-path="url(#b6c82dab24)"><path fill="#f3931c" d="M 97.554688 175.113281 C 97.441406 175.238281 97.304688 175.339844 97.152344 175.410156 C 97 175.484375 96.839844 175.523438 96.671875 175.53125 C 96.5 175.542969 96.335938 175.515625 96.179688 175.460938 C 96.019531 175.402344 95.875 175.320312 95.75 175.203125 C 95.625 175.089844 95.527344 174.957031 95.453125 174.804688 C 95.382812 174.652344 95.339844 174.492188 95.332031 174.324219 C 95.324219 174.152344 95.347656 173.988281 95.40625 173.832031 C 95.460938 173.671875 95.546875 173.527344 95.660156 173.402344 C 95.773438 173.277344 95.90625 173.179688 96.058594 173.105469 C 96.210938 173.035156 96.375 172.992188 96.542969 172.984375 C 96.710938 172.976562 96.875 173 97.035156 173.058594 C 97.195312 173.113281 97.335938 173.199219 97.460938 173.3125 C 97.585938 173.425781 97.6875 173.558594 97.757812 173.710938 C 97.832031 173.863281 97.871094 174.027344 97.878906 174.195312 C 97.890625 174.363281 97.863281 174.527344 97.808594 174.6875 C 97.75 174.847656 97.667969 174.988281 97.554688 175.113281 Z M 97.554688 175.113281 " fill-opacity="1" fill-rule="nonzero"/></g></g></g></svg>