<svg xmlns="http://www.w3.org/2000/svg" xmlns:xlink="http://www.w3.org/1999/xlink" width="400" zoomAndPan="magnify" viewBox="0 0 300 337.499995" height="450" preserveAspectRatio="xMidYMid meet" version="1.0"><defs><clipPath id="a3eb155fdb"><path d="M 0.222656 0 L 299.777344 0 L 299.777344 337 L 0.222656 337 Z M 0.222656 0 " clip-rule="nonzero"/></clipPath><clipPath id="b49de05322"><path d="M 203 0 L 299.777344 0 L 299.777344 105 L 203 105 Z M 203 0 " clip-rule="nonzero"/></clipPath><clipPath id="d513a1998c"><path d="M 367.738281 -147.679688 L 465.164062 46.421875 L 263.03125 147.875 L 165.605469 -46.222656 Z M 367.738281 -147.679688 " clip-rule="nonzero"/></clipPath><clipPath id="5eb3331b6b"><path d="M 367.738281 -147.679688 L 465.164062 46.421875 L 263.03125 147.875 L 165.605469 -46.222656 Z M 367.738281 -147.679688 " clip-rule="nonzero"/></clipPath><clipPath id="c40f3ca652"><path d="M 288 12 L 291 12 L 291 16 L 288 16 Z M 288 12 " clip-rule="nonzero"/></clipPath><clipPath id="db4151a423"><path d="M 367.738281 -147.679688 L 465.164062 46.421875 L 263.03125 147.875 L 165.605469 -46.222656 Z M 367.738281 -147.679688 " clip-rule="nonzero"/></clipPath><clipPath id="30d04dc14a"><path d="M 367.738281 -147.679688 L 465.164062 46.421875 L 263.03125 147.875 L 165.605469 -46.222656 Z M 367.738281 -147.679688 " clip-rule="nonzero"/></clipPath><clipPath id="8fe5723584"><path d="M 227 37 L 230 37 L 230 40 L 227 40 Z M 227 37 " clip-rule="nonzero"/></clipPath><clipPath id="991d83f369"><path d="M 367.738281 -147.679688 L 465.164062 46.421875 L 263.03125 147.875 L 165.605469 -46.222656 Z M 367.738281 -147.679688 " clip-rule="nonzero"/></clipPath><clipPath id="5f890d7408"><path d="M 367.738281 -147.679688 L 465.164062 46.421875 L 263.03125 147.875 L 165.605469 -46.222656 Z M 367.738281 -147.679688 " clip-rule="nonzero"/></clipPath><clipPath id="574bf1c318"><path d="M 291 73 L 294 73 L 294 76 L 291 76 Z M 291 73 " clip-rule="nonzero"/></clipPath><clipPath id="37836255e5"><path d="M 367.738281 -147.679688 L 465.164062 46.421875 L 263.03125 147.875 L 165.605469 -46.222656 Z M 367.738281 -147.679688 " clip-rule="nonzero"/></clipPath><clipPath id="64560350ab"><path d="M 367.738281 -147.679688 L 465.164062 46.421875 L 263.03125 147.875 L 165.605469 -46.222656 Z M 367.738281 -147.679688 " clip-rule="nonzero"/></clipPath><clipPath id="4b16e7121e"><path d="M 263 47 L 266 47 L 266 50 L 263 50 Z M 263 47 " clip-rule="nonzero"/></clipPath><clipPath id="1590e2ab2a"><path d="M 367.738281 -147.679688 L 465.164062 46.421875 L 263.03125 147.875 L 165.605469 -46.222656 Z M 367.738281 -147.679688 " clip-rule="nonzero"/></clipPath><clipPath id="3f376fd4a3"><path d="M 367.738281 -147.679688 L 465.164062 46.421875 L 263.03125 147.875 L 165.605469 -46.222656 Z M 367.738281 -147.679688 " clip-rule="nonzero"/></clipPath><clipPath id="de618f80ec"><path d="M 297 61 L 299.777344 61 L 299.777344 64 L 297 64 Z M 297 61 " clip-rule="nonzero"/></clipPath><clipPath id="fd7e7732dd"><path d="M 367.738281 -147.679688 L 465.164062 46.421875 L 263.03125 147.875 L 165.605469 -46.222656 Z M 367.738281 -147.679688 " clip-rule="nonzero"/></clipPath><clipPath id="4ae6e72a8d"><path d="M 367.738281 -147.679688 L 465.164062 46.421875 L 263.03125 147.875 L 165.605469 -46.222656 Z M 367.738281 -147.679688 " clip-rule="nonzero"/></clipPath><clipPath id="09bb831d60"><path d="M 237 38 L 241 38 L 241 42 L 237 42 Z M 237 38 " clip-rule="nonzero"/></clipPath><clipPath id="3eeb54a4ce"><path d="M 367.738281 -147.679688 L 465.164062 46.421875 L 263.03125 147.875 L 165.605469 -46.222656 Z M 367.738281 -147.679688 " clip-rule="nonzero"/></clipPath><clipPath id="f4a3be0f3d"><path d="M 367.738281 -147.679688 L 465.164062 46.421875 L 263.03125 147.875 L 165.605469 -46.222656 Z M 367.738281 -147.679688 " clip-rule="nonzero"/></clipPath><clipPath id="a98ed25ff3"><path d="M 276 99 L 298 99 L 298 121 L 276 121 Z M 276 99 " clip-rule="nonzero"/></clipPath><clipPath id="d2e10046eb"><path d="M 367.738281 -147.679688 L 465.164062 46.421875 L 263.03125 147.875 L 165.605469 -46.222656 Z M 367.738281 -147.679688 " clip-rule="nonzero"/></clipPath><clipPath id="bb371b0e5b"><path d="M 367.738281 -147.679688 L 465.164062 46.421875 L 263.03125 147.875 L 165.605469 -46.222656 Z M 367.738281 -147.679688 " clip-rule="nonzero"/></clipPath><clipPath id="b3c5bd14f2"><path d="M 280 105 L 285 105 L 285 109 L 280 109 Z M 280 105 " clip-rule="nonzero"/></clipPath><clipPath id="a717389b8c"><path d="M 367.738281 -147.679688 L 465.164062 46.421875 L 263.03125 147.875 L 165.605469 -46.222656 Z M 367.738281 -147.679688 " clip-rule="nonzero"/></clipPath><clipPath id="cd1d022c74"><path d="M 367.738281 -147.679688 L 465.164062 46.421875 L 263.03125 147.875 L 165.605469 -46.222656 Z M 367.738281 -147.679688 " clip-rule="nonzero"/></clipPath><clipPath id="d11c64eb9d"><path d="M 287 107 L 291 107 L 291 110 L 287 110 Z M 287 107 " clip-rule="nonzero"/></clipPath><clipPath id="afa8419e1b"><path d="M 367.738281 -147.679688 L 465.164062 46.421875 L 263.03125 147.875 L 165.605469 -46.222656 Z M 367.738281 -147.679688 " clip-rule="nonzero"/></clipPath><clipPath id="2fe5f9f033"><path d="M 367.738281 -147.679688 L 465.164062 46.421875 L 263.03125 147.875 L 165.605469 -46.222656 Z M 367.738281 -147.679688 " clip-rule="nonzero"/></clipPath><clipPath id="38864f66e6"><path d="M 0.222656 204 L 91 204 L 91 337 L 0.222656 337 Z M 0.222656 204 " clip-rule="nonzero"/></clipPath><clipPath id="58aa37cad2"><path d="M 5.644531 171.253906 L 125.640625 279.730469 L 12.136719 405.28125 L -107.855469 296.800781 Z M 5.644531 171.253906 " clip-rule="nonzero"/></clipPath><clipPath id="def817eb45"><path d="M 5.644531 171.253906 L 125.640625 279.730469 L 12.136719 405.28125 L -107.855469 296.800781 Z M 5.644531 171.253906 " clip-rule="nonzero"/></clipPath><clipPath id="1b8a00a602"><path d="M 3 270 L 7 270 L 7 274 L 3 274 Z M 3 270 " clip-rule="nonzero"/></clipPath><clipPath id="6ee2096f5a"><path d="M 5.644531 171.253906 L 125.640625 279.730469 L 12.136719 405.28125 L -107.855469 296.800781 Z M 5.644531 171.253906 " clip-rule="nonzero"/></clipPath><clipPath id="51974aa9cb"><path d="M 5.644531 171.253906 L 125.640625 279.730469 L 12.136719 405.28125 L -107.855469 296.800781 Z M 5.644531 171.253906 " clip-rule="nonzero"/></clipPath><clipPath id="63581fcd28"><path d="M 18 306 L 22 306 L 22 309 L 18 309 Z M 18 306 " clip-rule="nonzero"/></clipPath><clipPath id="bf79da71d2"><path d="M 5.644531 171.253906 L 125.640625 279.730469 L 12.136719 405.28125 L -107.855469 296.800781 Z M 5.644531 171.253906 " clip-rule="nonzero"/></clipPath><clipPath id="510673a427"><path d="M 5.644531 171.253906 L 125.640625 279.730469 L 12.136719 405.28125 L -107.855469 296.800781 Z M 5.644531 171.253906 " clip-rule="nonzero"/></clipPath><clipPath id="2654485f85"><path d="M 2 277 L 5 277 L 5 279 L 2 279 Z M 2 277 " clip-rule="nonzero"/></clipPath><clipPath id="6ff435448c"><path d="M 5.644531 171.253906 L 125.640625 279.730469 L 12.136719 405.28125 L -107.855469 296.800781 Z M 5.644531 171.253906 " clip-rule="nonzero"/></clipPath><clipPath id="4497b35ce2"><path d="M 5.644531 171.253906 L 125.640625 279.730469 L 12.136719 405.28125 L -107.855469 296.800781 Z M 5.644531 171.253906 " clip-rule="nonzero"/></clipPath><clipPath id="07cda61d28"><path d="M 28 302 L 30 302 L 30 304 L 28 304 Z M 28 302 " clip-rule="nonzero"/></clipPath><clipPath id="c31112a964"><path d="M 5.644531 171.253906 L 125.640625 279.730469 L 12.136719 405.28125 L -107.855469 296.800781 Z M 5.644531 171.253906 " clip-rule="nonzero"/></clipPath><clipPath id="316f3f8ed6"><path d="M 5.644531 171.253906 L 125.640625 279.730469 L 12.136719 405.28125 L -107.855469 296.800781 Z M 5.644531 171.253906 " clip-rule="nonzero"/></clipPath><clipPath id="81f133e65c"><path d="M 29 279 L 32 279 L 32 281 L 29 281 Z M 29 279 " clip-rule="nonzero"/></clipPath><clipPath id="f1c8bc39ce"><path d="M 5.644531 171.253906 L 125.640625 279.730469 L 12.136719 405.28125 L -107.855469 296.800781 Z M 5.644531 171.253906 " clip-rule="nonzero"/></clipPath><clipPath id="3374bfce93"><path d="M 5.644531 171.253906 L 125.640625 279.730469 L 12.136719 405.28125 L -107.855469 296.800781 Z M 5.644531 171.253906 " clip-rule="nonzero"/></clipPath><clipPath id="5ece455400"><path d="M 40 231 L 42 231 L 42 234 L 40 234 Z M 40 231 " clip-rule="nonzero"/></clipPath><clipPath id="59b6ce4e29"><path d="M 5.644531 171.253906 L 125.640625 279.730469 L 12.136719 405.28125 L -107.855469 296.800781 Z M 5.644531 171.253906 " clip-rule="nonzero"/></clipPath><clipPath id="479dc74f68"><path d="M 5.644531 171.253906 L 125.640625 279.730469 L 12.136719 405.28125 L -107.855469 296.800781 Z M 5.644531 171.253906 " clip-rule="nonzero"/></clipPath><clipPath id="ff45da0b58"><path d="M 48 230 L 51 230 L 51 233 L 48 233 Z M 48 230 " clip-rule="nonzero"/></clipPath><clipPath id="7308f1c85c"><path d="M 5.644531 171.253906 L 125.640625 279.730469 L 12.136719 405.28125 L -107.855469 296.800781 Z M 5.644531 171.253906 " clip-rule="nonzero"/></clipPath><clipPath id="e124e0599e"><path d="M 5.644531 171.253906 L 125.640625 279.730469 L 12.136719 405.28125 L -107.855469 296.800781 Z M 5.644531 171.253906 " clip-rule="nonzero"/></clipPath><clipPath id="1b1c2dc46e"><path d="M 69 297 L 71 297 L 71 300 L 69 300 Z M 69 297 " clip-rule="nonzero"/></clipPath><clipPath id="07c2e67b12"><path d="M 5.644531 171.253906 L 125.640625 279.730469 L 12.136719 405.28125 L -107.855469 296.800781 Z M 5.644531 171.253906 " clip-rule="nonzero"/></clipPath><clipPath id="704e2d6e20"><path d="M 5.644531 171.253906 L 125.640625 279.730469 L 12.136719 405.28125 L -107.855469 296.800781 Z M 5.644531 171.253906 " clip-rule="nonzero"/></clipPath><clipPath id="7bb49f1444"><path d="M 78 257 L 81 257 L 81 260 L 78 260 Z M 78 257 " clip-rule="nonzero"/></clipPath><clipPath id="551cfa7df2"><path d="M 5.644531 171.253906 L 125.640625 279.730469 L 12.136719 405.28125 L -107.855469 296.800781 Z M 5.644531 171.253906 " clip-rule="nonzero"/></clipPath><clipPath id="7c7adb26c6"><path d="M 5.644531 171.253906 L 125.640625 279.730469 L 12.136719 405.28125 L -107.855469 296.800781 Z M 5.644531 171.253906 " clip-rule="nonzero"/></clipPath><clipPath id="0590915309"><path d="M 65 332 L 67 332 L 67 334 L 65 334 Z M 65 332 " clip-rule="nonzero"/></clipPath><clipPath id="38899fb802"><path d="M 5.644531 171.253906 L 125.640625 279.730469 L 12.136719 405.28125 L -107.855469 296.800781 Z M 5.644531 171.253906 " clip-rule="nonzero"/></clipPath><clipPath id="f0b6f7f536"><path d="M 5.644531 171.253906 L 125.640625 279.730469 L 12.136719 405.28125 L -107.855469 296.800781 Z M 5.644531 171.253906 " clip-rule="nonzero"/></clipPath><clipPath id="2a1958a0c8"><path d="M 13 335 L 15 335 L 15 337 L 13 337 Z M 13 335 " clip-rule="nonzero"/></clipPath><clipPath id="987b7fead4"><path d="M 5.644531 171.253906 L 125.640625 279.730469 L 12.136719 405.28125 L -107.855469 296.800781 Z M 5.644531 171.253906 " clip-rule="nonzero"/></clipPath><clipPath id="7869fad3cd"><path d="M 5.644531 171.253906 L 125.640625 279.730469 L 12.136719 405.28125 L -107.855469 296.800781 Z M 5.644531 171.253906 " clip-rule="nonzero"/></clipPath><clipPath id="af4fcd5c76"><path d="M 74 297 L 77 297 L 77 300 L 74 300 Z M 74 297 " clip-rule="nonzero"/></clipPath><clipPath id="f4242358b0"><path d="M 5.644531 171.253906 L 125.640625 279.730469 L 12.136719 405.28125 L -107.855469 296.800781 Z M 5.644531 171.253906 " clip-rule="nonzero"/></clipPath><clipPath id="65868aff09"><path d="M 5.644531 171.253906 L 125.640625 279.730469 L 12.136719 405.28125 L -107.855469 296.800781 Z M 5.644531 171.253906 " clip-rule="nonzero"/></clipPath><clipPath id="ac3ee9253f"><path d="M 83 277 L 86 277 L 86 280 L 83 280 Z M 83 277 " clip-rule="nonzero"/></clipPath><clipPath id="ca7edcb924"><path d="M 5.644531 171.253906 L 125.640625 279.730469 L 12.136719 405.28125 L -107.855469 296.800781 Z M 5.644531 171.253906 " clip-rule="nonzero"/></clipPath><clipPath id="288f283ace"><path d="M 5.644531 171.253906 L 125.640625 279.730469 L 12.136719 405.28125 L -107.855469 296.800781 Z M 5.644531 171.253906 " clip-rule="nonzero"/></clipPath><clipPath id="ef2b329a40"><path d="M 37 242 L 40 242 L 40 246 L 37 246 Z M 37 242 " clip-rule="nonzero"/></clipPath><clipPath id="1280a87097"><path d="M 5.644531 171.253906 L 125.640625 279.730469 L 12.136719 405.28125 L -107.855469 296.800781 Z M 5.644531 171.253906 " clip-rule="nonzero"/></clipPath><clipPath id="a6232c51b4"><path d="M 5.644531 171.253906 L 125.640625 279.730469 L 12.136719 405.28125 L -107.855469 296.800781 Z M 5.644531 171.253906 " clip-rule="nonzero"/></clipPath><clipPath id="937c0ca5db"><path d="M 55 267 L 58 267 L 58 270 L 55 270 Z M 55 267 " clip-rule="nonzero"/></clipPath><clipPath id="843142cd4c"><path d="M 5.644531 171.253906 L 125.640625 279.730469 L 12.136719 405.28125 L -107.855469 296.800781 Z M 5.644531 171.253906 " clip-rule="nonzero"/></clipPath><clipPath id="ba3552254a"><path d="M 5.644531 171.253906 L 125.640625 279.730469 L 12.136719 405.28125 L -107.855469 296.800781 Z M 5.644531 171.253906 " clip-rule="nonzero"/></clipPath><clipPath id="10bdaa6134"><path d="M 1 210 L 4 210 L 4 213 L 1 213 Z M 1 210 " clip-rule="nonzero"/></clipPath><clipPath id="d358d6b70b"><path d="M 5.644531 171.253906 L 125.640625 279.730469 L 12.136719 405.28125 L -107.855469 296.800781 Z M 5.644531 171.253906 " clip-rule="nonzero"/></clipPath><clipPath id="c481d589e8"><path d="M 5.644531 171.253906 L 125.640625 279.730469 L 12.136719 405.28125 L -107.855469 296.800781 Z M 5.644531 171.253906 " clip-rule="nonzero"/></clipPath><clipPath id="a27c5fb424"><path d="M 88 285 L 101 285 L 101 300 L 88 300 Z M 88 285 " clip-rule="nonzero"/></clipPath><clipPath id="3741c7cc3e"><path d="M 5.644531 171.253906 L 125.640625 279.730469 L 12.136719 405.28125 L -107.855469 296.800781 Z M 5.644531 171.253906 " clip-rule="nonzero"/></clipPath><clipPath id="c5e615be5a"><path d="M 5.644531 171.253906 L 125.640625 279.730469 L 12.136719 405.28125 L -107.855469 296.800781 Z M 5.644531 171.253906 " clip-rule="nonzero"/></clipPath><clipPath id="0cdb1e2e7c"><path d="M 91 290 L 93 290 L 93 293 L 91 293 Z M 91 290 " clip-rule="nonzero"/></clipPath><clipPath id="ed22a20927"><path d="M 5.644531 171.253906 L 125.640625 279.730469 L 12.136719 405.28125 L -107.855469 296.800781 Z M 5.644531 171.253906 " clip-rule="nonzero"/></clipPath><clipPath id="9483a3bfd2"><path d="M 5.644531 171.253906 L 125.640625 279.730469 L 12.136719 405.28125 L -107.855469 296.800781 Z M 5.644531 171.253906 " clip-rule="nonzero"/></clipPath></defs><g clip-path="url(#a3eb155fdb)"><path fill="#ffffff" d="M 0.222656 0 L 299.777344 0 L 299.777344 337 L 0.222656 337 Z M 0.222656 0 " fill-opacity="1" fill-rule="nonzero"/><path fill="#3cb371" d="M 0.222656 0 L 299.777344 0 L 299.777344 337 L 0.222656 337 Z M 0.222656 0 " fill-opacity="1" fill-rule="nonzero"/></g><g clip-path="url(#b49de05322)"><g clip-path="url(#d513a1998c)"><g clip-path="url(#5eb3331b6b)"><path fill="#01768a" d="M 364.285156 96.5 C 383.691406 86.757812 396.800781 69.425781 401.890625 49.757812 C 403.480469 43.628906 406.972656 38.210938 411.734375 34.0625 C 430.585938 17.605469 436.609375 -10.410156 424.683594 -34.167969 C 418.828125 -45.890625 409.164062 -55.25 397.253906 -60.691406 C 390.542969 -63.742188 385.132812 -69.148438 381.832031 -75.789062 L 381.769531 -75.910156 C 364.332031 -110.59375 321.460938 -124.304688 285.992188 -106.503906 C 265.859375 -96.398438 252.460938 -78.3125 247.796875 -58.21875 C 245.546875 -48.398438 238.765625 -40.238281 229.5 -36.253906 C 228.796875 -35.960938 228.082031 -35.632812 227.382812 -35.28125 C 202.410156 -22.75 196.125 15.179688 213.320312 49.441406 C 228.042969 78.765625 255.199219 95.878906 278.390625 92.359375 C 285.039062 91.355469 291.855469 92.566406 297.867188 95.730469 C 318.027344 106.269531 342.605469 107.378906 364.285156 96.5 Z M 364.285156 96.5 " fill-opacity="1" fill-rule="nonzero"/></g></g></g><g clip-path="url(#c40f3ca652)"><g clip-path="url(#db4151a423)"><g clip-path="url(#30d04dc14a)"><path fill="#ec4033" d="M 290.285156 14.300781 C 289.703125 15.800781 287.5625 14.96875 288.574219 13.613281 C 289.566406 12.269531 290.753906 13.066406 290.285156 14.300781 Z M 290.285156 14.300781 " fill-opacity="1" fill-rule="nonzero"/></g></g></g><g clip-path="url(#8fe5723584)"><g clip-path="url(#991d83f369)"><g clip-path="url(#5f890d7408)"><path fill="#f3931c" d="M 228.582031 39.148438 C 228.460938 39.207031 228.332031 39.242188 228.195312 39.253906 C 228.058594 39.261719 227.925781 39.246094 227.796875 39.203125 C 227.667969 39.160156 227.550781 39.09375 227.445312 39.003906 C 227.34375 38.917969 227.261719 38.8125 227.199219 38.6875 C 227.140625 38.566406 227.105469 38.4375 227.09375 38.300781 C 227.085938 38.164062 227.101562 38.03125 227.144531 37.902344 C 227.1875 37.773438 227.253906 37.65625 227.34375 37.554688 C 227.429688 37.453125 227.535156 37.371094 227.660156 37.308594 C 227.78125 37.246094 227.910156 37.210938 228.046875 37.203125 C 228.179688 37.191406 228.3125 37.207031 228.445312 37.25 C 228.574219 37.292969 228.691406 37.359375 228.792969 37.449219 C 228.894531 37.539062 228.976562 37.644531 229.039062 37.765625 C 229.101562 37.886719 229.136719 38.015625 229.144531 38.152344 C 229.15625 38.289062 229.140625 38.421875 229.097656 38.550781 C 229.054688 38.679688 228.988281 38.796875 228.898438 38.898438 C 228.808594 39.003906 228.703125 39.085938 228.582031 39.148438 Z M 228.582031 39.148438 " fill-opacity="1" fill-rule="nonzero"/></g></g></g><g clip-path="url(#574bf1c318)"><g clip-path="url(#37836255e5)"><g clip-path="url(#64560350ab)"><path fill="#f3931c" d="M 292.640625 75.300781 C 292.519531 75.363281 292.390625 75.398438 292.253906 75.40625 C 292.117188 75.417969 291.984375 75.402344 291.855469 75.359375 C 291.726562 75.316406 291.609375 75.25 291.503906 75.160156 C 291.402344 75.070312 291.320312 74.964844 291.257812 74.84375 C 291.199219 74.722656 291.164062 74.59375 291.152344 74.457031 C 291.140625 74.320312 291.160156 74.1875 291.203125 74.058594 C 291.246094 73.929688 291.3125 73.8125 291.398438 73.707031 C 291.488281 73.605469 291.59375 73.523438 291.71875 73.460938 C 291.839844 73.402344 291.96875 73.367188 292.105469 73.355469 C 292.238281 73.34375 292.371094 73.363281 292.503906 73.40625 C 292.632812 73.449219 292.75 73.515625 292.851562 73.601562 C 292.953125 73.691406 293.035156 73.796875 293.097656 73.921875 C 293.160156 74.042969 293.195312 74.171875 293.203125 74.308594 C 293.214844 74.441406 293.199219 74.574219 293.15625 74.707031 C 293.113281 74.835938 293.046875 74.953125 292.957031 75.054688 C 292.867188 75.15625 292.761719 75.238281 292.640625 75.300781 Z M 292.640625 75.300781 " fill-opacity="1" fill-rule="nonzero"/></g></g></g><g clip-path="url(#4b16e7121e)"><g clip-path="url(#1590e2ab2a)"><g clip-path="url(#3f376fd4a3)"><path fill="#f3931c" d="M 264.941406 49.671875 C 264.820312 49.734375 264.691406 49.769531 264.554688 49.78125 C 264.417969 49.789062 264.285156 49.773438 264.15625 49.730469 C 264.027344 49.6875 263.910156 49.621094 263.808594 49.53125 C 263.703125 49.441406 263.621094 49.335938 263.5625 49.214844 C 263.5 49.09375 263.464844 48.964844 263.453125 48.828125 C 263.445312 48.691406 263.460938 48.558594 263.503906 48.429688 C 263.546875 48.300781 263.613281 48.183594 263.703125 48.082031 C 263.792969 47.976562 263.898438 47.894531 264.019531 47.835938 C 264.140625 47.773438 264.269531 47.738281 264.40625 47.726562 C 264.542969 47.71875 264.675781 47.734375 264.804688 47.777344 C 264.933594 47.820312 265.050781 47.886719 265.152344 47.976562 C 265.257812 48.066406 265.339844 48.171875 265.402344 48.292969 C 265.460938 48.414062 265.496094 48.542969 265.507812 48.679688 C 265.515625 48.816406 265.5 48.949219 265.457031 49.078125 C 265.414062 49.207031 265.347656 49.324219 265.257812 49.425781 C 265.171875 49.53125 265.066406 49.613281 264.941406 49.671875 Z M 264.941406 49.671875 " fill-opacity="1" fill-rule="nonzero"/></g></g></g><g clip-path="url(#de618f80ec)"><g clip-path="url(#fd7e7732dd)"><g clip-path="url(#4ae6e72a8d)"><path fill="#f3931c" d="M 299.027344 62.976562 C 298.902344 63.039062 298.773438 63.074219 298.640625 63.085938 C 298.503906 63.09375 298.371094 63.078125 298.242188 63.035156 C 298.109375 62.992188 297.996094 62.925781 297.890625 62.835938 C 297.789062 62.746094 297.707031 62.640625 297.644531 62.519531 C 297.582031 62.398438 297.546875 62.269531 297.539062 62.132812 C 297.527344 61.996094 297.542969 61.863281 297.585938 61.734375 C 297.628906 61.605469 297.695312 61.488281 297.785156 61.386719 C 297.875 61.28125 297.980469 61.199219 298.101562 61.140625 C 298.226562 61.078125 298.355469 61.042969 298.488281 61.03125 C 298.625 61.023438 298.757812 61.039062 298.886719 61.082031 C 299.015625 61.125 299.132812 61.191406 299.238281 61.28125 C 299.339844 61.371094 299.421875 61.476562 299.484375 61.597656 C 299.542969 61.71875 299.582031 61.847656 299.589844 61.984375 C 299.601562 62.121094 299.582031 62.253906 299.539062 62.382812 C 299.496094 62.511719 299.429688 62.628906 299.34375 62.730469 C 299.253906 62.835938 299.148438 62.917969 299.027344 62.976562 Z M 299.027344 62.976562 " fill-opacity="1" fill-rule="nonzero"/></g></g></g><g clip-path="url(#09bb831d60)"><g clip-path="url(#3eeb54a4ce)"><g clip-path="url(#f4a3be0f3d)"><path fill="#f3931c" d="M 239.8125 41.445312 C 239.621094 41.542969 239.417969 41.597656 239.203125 41.613281 C 238.988281 41.628906 238.777344 41.605469 238.574219 41.535156 C 238.367188 41.46875 238.183594 41.363281 238.023438 41.222656 C 237.859375 41.082031 237.730469 40.914062 237.632812 40.722656 C 237.535156 40.53125 237.480469 40.328125 237.464844 40.113281 C 237.449219 39.898438 237.472656 39.6875 237.542969 39.484375 C 237.609375 39.277344 237.714844 39.09375 237.855469 38.933594 C 237.996094 38.769531 238.164062 38.640625 238.355469 38.542969 C 238.546875 38.445312 238.75 38.390625 238.964844 38.375 C 239.179688 38.359375 239.390625 38.382812 239.59375 38.453125 C 239.800781 38.519531 239.984375 38.625 240.144531 38.765625 C 240.308594 38.90625 240.4375 39.074219 240.535156 39.265625 C 240.632812 39.457031 240.6875 39.660156 240.703125 39.875 C 240.71875 40.089844 240.695312 40.300781 240.625 40.503906 C 240.558594 40.710938 240.453125 40.894531 240.3125 41.058594 C 240.171875 41.21875 240.003906 41.347656 239.8125 41.445312 Z M 239.8125 41.445312 " fill-opacity="1" fill-rule="nonzero"/></g></g></g><g clip-path="url(#a98ed25ff3)"><g clip-path="url(#d2e10046eb)"><g clip-path="url(#bb371b0e5b)"><path fill="#01768a" d="M 296.242188 116.203125 C 295.890625 116.734375 295.480469 117.222656 295.019531 117.667969 C 294.554688 118.113281 294.042969 118.503906 293.484375 118.839844 C 292.925781 119.175781 292.328125 119.457031 291.695312 119.675781 C 291.0625 119.894531 290.402344 120.046875 289.71875 120.136719 C 289.039062 120.230469 288.34375 120.253906 287.636719 120.214844 C 286.929688 120.175781 286.226562 120.070312 285.523438 119.898438 C 284.824219 119.730469 284.136719 119.5 283.464844 119.207031 C 282.792969 118.914062 282.148438 118.5625 281.535156 118.160156 C 280.921875 117.753906 280.347656 117.300781 279.8125 116.800781 C 279.277344 116.300781 278.792969 115.761719 278.359375 115.183594 C 277.925781 114.605469 277.550781 114 277.234375 113.367188 C 276.917969 112.734375 276.667969 112.089844 276.480469 111.425781 C 276.292969 110.761719 276.175781 110.097656 276.125 109.429688 C 276.074219 108.761719 276.09375 108.101562 276.183594 107.457031 C 276.273438 106.808594 276.429688 106.183594 276.652344 105.582031 C 276.878906 104.980469 277.164062 104.414062 277.515625 103.878906 C 277.867188 103.347656 278.273438 102.859375 278.738281 102.414062 C 279.203125 101.972656 279.714844 101.578125 280.273438 101.242188 C 280.832031 100.90625 281.429688 100.625 282.0625 100.40625 C 282.695312 100.191406 283.351562 100.035156 284.035156 99.945312 C 284.71875 99.851562 285.414062 99.828125 286.117188 99.867188 C 286.824219 99.90625 287.527344 100.011719 288.230469 100.183594 C 288.933594 100.351562 289.621094 100.582031 290.292969 100.875 C 290.960938 101.167969 291.605469 101.519531 292.21875 101.921875 C 292.835938 102.328125 293.410156 102.78125 293.945312 103.28125 C 294.480469 103.78125 294.964844 104.320312 295.398438 104.898438 C 295.832031 105.476562 296.207031 106.082031 296.523438 106.714844 C 296.835938 107.347656 297.089844 107.992188 297.277344 108.65625 C 297.460938 109.320312 297.582031 109.984375 297.628906 110.652344 C 297.679688 111.320312 297.660156 111.980469 297.574219 112.625 C 297.484375 113.273438 297.328125 113.898438 297.101562 114.5 C 296.878906 115.101562 296.589844 115.667969 296.242188 116.203125 Z M 296.242188 116.203125 " fill-opacity="1" fill-rule="nonzero"/></g></g></g><g clip-path="url(#b3c5bd14f2)"><g clip-path="url(#a717389b8c)"><g clip-path="url(#cd1d022c74)"><path fill="#f3931c" d="M 283.257812 108.390625 C 283.066406 108.488281 282.863281 108.546875 282.648438 108.5625 C 282.433594 108.578125 282.222656 108.550781 282.019531 108.480469 C 281.816406 108.414062 281.632812 108.308594 281.46875 108.167969 C 281.304688 108.027344 281.175781 107.863281 281.078125 107.667969 C 280.980469 107.476562 280.925781 107.273438 280.910156 107.058594 C 280.894531 106.84375 280.921875 106.632812 280.988281 106.429688 C 281.058594 106.226562 281.160156 106.042969 281.300781 105.878906 C 281.441406 105.714844 281.609375 105.585938 281.800781 105.488281 C 281.996094 105.390625 282.199219 105.335938 282.414062 105.320312 C 282.628906 105.304688 282.835938 105.332031 283.042969 105.398438 C 283.246094 105.464844 283.429688 105.570312 283.59375 105.710938 C 283.757812 105.851562 283.886719 106.019531 283.984375 106.210938 C 284.078125 106.40625 284.136719 106.609375 284.152344 106.824219 C 284.167969 107.039062 284.140625 107.246094 284.074219 107.453125 C 284.003906 107.65625 283.902344 107.839844 283.757812 108.003906 C 283.617188 108.164062 283.453125 108.296875 283.257812 108.390625 Z M 283.257812 108.390625 " fill-opacity="1" fill-rule="nonzero"/></g></g></g><g clip-path="url(#d11c64eb9d)"><g clip-path="url(#afa8419e1b)"><g clip-path="url(#2fe5f9f033)"><path fill="#f3931c" d="M 289.4375 109.410156 C 289.3125 109.472656 289.183594 109.507812 289.046875 109.519531 C 288.914062 109.527344 288.78125 109.511719 288.648438 109.46875 C 288.519531 109.425781 288.40625 109.359375 288.300781 109.269531 C 288.199219 109.179688 288.117188 109.074219 288.054688 108.953125 C 287.992188 108.832031 287.957031 108.703125 287.949219 108.566406 C 287.9375 108.429688 287.953125 108.296875 287.996094 108.167969 C 288.039062 108.039062 288.105469 107.921875 288.195312 107.820312 C 288.285156 107.714844 288.390625 107.632812 288.511719 107.574219 C 288.632812 107.511719 288.761719 107.476562 288.898438 107.464844 C 289.035156 107.457031 289.167969 107.472656 289.296875 107.515625 C 289.425781 107.558594 289.542969 107.625 289.648438 107.714844 C 289.75 107.804688 289.832031 107.910156 289.894531 108.03125 C 289.953125 108.152344 289.992188 108.28125 290 108.417969 C 290.011719 108.554688 289.992188 108.6875 289.949219 108.816406 C 289.90625 108.945312 289.839844 109.0625 289.753906 109.164062 C 289.664062 109.269531 289.558594 109.351562 289.4375 109.410156 Z M 289.4375 109.410156 " fill-opacity="1" fill-rule="nonzero"/></g></g></g><g clip-path="url(#38864f66e6)"><g clip-path="url(#58aa37cad2)"><g clip-path="url(#def817eb45)"><path fill="#01768a" d="M 69.234375 342.03125 C 80.097656 330.011719 84.53125 314.410156 82.757812 299.355469 C 82.207031 294.660156 83.171875 289.949219 85.363281 285.777344 C 94.027344 269.234375 90.644531 248.125 75.929688 234.820312 C 68.691406 228.246094 59.441406 224.351562 49.6875 223.785156 C 44.191406 223.476562 38.96875 221.179688 34.878906 217.449219 L 34.804688 217.382812 C 13.300781 197.96875 -20.222656 200.019531 -40.085938 221.988281 C -51.355469 234.453125 -55.789062 250.65625 -53.605469 265.890625 C -52.515625 273.332031 -55.027344 280.839844 -60.394531 286.117188 C -60.804688 286.507812 -61.210938 286.929688 -61.605469 287.363281 C -75.585938 302.828125 -69.710938 330.910156 -48.488281 350.09375 C -30.328125 366.511719 -6.8125 371.078125 8.367188 362.359375 C 12.71875 359.867188 17.789062 358.867188 22.824219 359.445312 C 39.695312 361.324219 57.09375 355.457031 69.234375 342.03125 Z M 69.234375 342.03125 " fill-opacity="1" fill-rule="nonzero"/></g></g></g><g clip-path="url(#1b8a00a602)"><g clip-path="url(#6ee2096f5a)"><g clip-path="url(#51974aa9cb)"><path fill="#ec4033" d="M 4.011719 272.5 C 3.476562 270.980469 5.867188 270.445312 6.246094 271.6875 C 6.609375 272.941406 4.710938 274.46875 4.011719 272.5 Z M 4.011719 272.5 " fill-opacity="1" fill-rule="nonzero"/></g></g></g><g clip-path="url(#63581fcd28)"><g clip-path="url(#bf79da71d2)"><g clip-path="url(#510673a427)"><path fill="#ec4033" d="M 20.3125 306.21875 C 21.867188 306.640625 20.921875 308.921875 19.699219 308.496094 C 18.464844 308.085938 18.285156 305.664062 20.3125 306.21875 Z M 20.3125 306.21875 " fill-opacity="1" fill-rule="nonzero"/></g></g></g><g clip-path="url(#2654485f85)"><g clip-path="url(#6ff435448c)"><g clip-path="url(#4497b35ce2)"><path fill="#ec4033" d="M 2.820312 278.125 C 2.785156 276.867188 4.714844 276.511719 4.378906 277.84375 C 4.035156 279.191406 2.859375 279.164062 2.820312 278.125 Z M 2.820312 278.125 " fill-opacity="1" fill-rule="nonzero"/></g></g></g><g clip-path="url(#07cda61d28)"><g clip-path="url(#c31112a964)"><g clip-path="url(#316f3f8ed6)"><path fill="#ec4033" d="M 29.753906 303.097656 C 29.757812 304.300781 28.042969 304.300781 28.378906 303.082031 C 28.707031 301.878906 29.746094 302.113281 29.753906 303.097656 Z M 29.753906 303.097656 " fill-opacity="1" fill-rule="nonzero"/></g></g></g><g clip-path="url(#81f133e65c)"><g clip-path="url(#f1c8bc39ce)"><g clip-path="url(#3374bfce93)"><path fill="#ec4033" d="M 30.125 280.9375 C 28.953125 280.640625 29.601562 278.746094 30.703125 279.363281 C 31.808594 279.980469 31.066406 281.191406 30.125 280.9375 Z M 30.125 280.9375 " fill-opacity="1" fill-rule="nonzero"/></g></g></g><g clip-path="url(#5ece455400)"><g clip-path="url(#59b6ce4e29)"><g clip-path="url(#479dc74f68)"><path fill="#f3931c" d="M 41.59375 232.917969 C 41.449219 233.074219 41.273438 233.160156 41.0625 233.167969 C 40.851562 233.179688 40.664062 233.113281 40.507812 232.972656 C 40.351562 232.828125 40.265625 232.652344 40.257812 232.441406 C 40.246094 232.230469 40.3125 232.046875 40.453125 231.886719 C 40.597656 231.730469 40.773438 231.648438 40.984375 231.636719 C 41.195312 231.625 41.382812 231.691406 41.539062 231.832031 C 41.695312 231.976562 41.78125 232.152344 41.789062 232.363281 C 41.800781 232.574219 41.734375 232.761719 41.59375 232.917969 Z M 41.59375 232.917969 " fill-opacity="1" fill-rule="nonzero"/></g></g></g><g clip-path="url(#ff45da0b58)"><g clip-path="url(#7308f1c85c)"><g clip-path="url(#e124e0599e)"><path fill="#f3931c" d="M 49.835938 232.144531 C 49.691406 232.300781 49.515625 232.386719 49.304688 232.394531 C 49.09375 232.40625 48.910156 232.339844 48.75 232.199219 C 48.59375 232.058594 48.511719 231.878906 48.5 231.667969 C 48.488281 231.457031 48.554688 231.273438 48.695312 231.113281 C 48.839844 230.957031 49.015625 230.875 49.226562 230.863281 C 49.4375 230.851562 49.625 230.917969 49.78125 231.058594 C 49.9375 231.203125 50.023438 231.378906 50.03125 231.589844 C 50.042969 231.800781 49.976562 231.988281 49.835938 232.144531 Z M 49.835938 232.144531 " fill-opacity="1" fill-rule="nonzero"/></g></g></g><g clip-path="url(#1b1c2dc46e)"><g clip-path="url(#07c2e67b12)"><g clip-path="url(#704e2d6e20)"><path fill="#f3931c" d="M 70.636719 299.207031 C 70.492188 299.363281 70.316406 299.449219 70.105469 299.457031 C 69.894531 299.46875 69.710938 299.402344 69.550781 299.261719 C 69.394531 299.121094 69.3125 298.941406 69.300781 298.730469 C 69.289062 298.519531 69.355469 298.335938 69.496094 298.175781 C 69.640625 298.019531 69.816406 297.9375 70.027344 297.925781 C 70.238281 297.914062 70.425781 297.980469 70.582031 298.121094 C 70.738281 298.265625 70.824219 298.441406 70.832031 298.652344 C 70.84375 298.863281 70.777344 299.050781 70.636719 299.207031 Z M 70.636719 299.207031 " fill-opacity="1" fill-rule="nonzero"/></g></g></g><g clip-path="url(#7bb49f1444)"><g clip-path="url(#551cfa7df2)"><g clip-path="url(#7c7adb26c6)"><path fill="#f3931c" d="M 79.835938 259.265625 C 79.695312 259.425781 79.519531 259.507812 79.304688 259.519531 C 79.09375 259.53125 78.910156 259.464844 78.753906 259.320312 C 78.59375 259.179688 78.511719 259.003906 78.5 258.789062 C 78.488281 258.578125 78.554688 258.394531 78.699219 258.238281 C 78.839844 258.082031 79.015625 257.996094 79.230469 257.984375 C 79.441406 257.976562 79.625 258.039062 79.78125 258.183594 C 79.941406 258.324219 80.023438 258.5 80.035156 258.714844 C 80.042969 258.925781 79.980469 259.109375 79.835938 259.265625 Z M 79.835938 259.265625 " fill-opacity="1" fill-rule="nonzero"/></g></g></g><g clip-path="url(#0590915309)"><g clip-path="url(#38899fb802)"><g clip-path="url(#f0b6f7f536)"><path fill="#f3931c" d="M 66.433594 333.34375 C 66.292969 333.503906 66.117188 333.585938 65.90625 333.597656 C 65.691406 333.609375 65.507812 333.542969 65.351562 333.398438 C 65.195312 333.257812 65.109375 333.082031 65.097656 332.871094 C 65.089844 332.65625 65.152344 332.472656 65.296875 332.316406 C 65.4375 332.160156 65.617188 332.074219 65.828125 332.0625 C 66.039062 332.054688 66.222656 332.117188 66.378906 332.261719 C 66.539062 332.402344 66.621094 332.582031 66.632812 332.792969 C 66.644531 333.003906 66.578125 333.1875 66.433594 333.34375 Z M 66.433594 333.34375 " fill-opacity="1" fill-rule="nonzero"/></g></g></g><g clip-path="url(#2a1958a0c8)"><g clip-path="url(#987b7fead4)"><g clip-path="url(#7869fad3cd)"><path fill="#f3931c" d="M 14.78125 336.347656 C 14.640625 336.507812 14.460938 336.589844 14.25 336.601562 C 14.039062 336.613281 13.855469 336.546875 13.695312 336.402344 C 13.539062 336.261719 13.457031 336.085938 13.445312 335.871094 C 13.433594 335.660156 13.5 335.476562 13.640625 335.320312 C 13.785156 335.164062 13.960938 335.078125 14.171875 335.066406 C 14.386719 335.058594 14.570312 335.121094 14.726562 335.265625 C 14.882812 335.40625 14.96875 335.582031 14.976562 335.796875 C 14.988281 336.007812 14.921875 336.191406 14.78125 336.347656 Z M 14.78125 336.347656 " fill-opacity="1" fill-rule="nonzero"/></g></g></g><g clip-path="url(#af4fcd5c76)"><g clip-path="url(#f4242358b0)"><g clip-path="url(#65868aff09)"><path fill="#f3931c" d="M 76.496094 299.441406 C 76.390625 299.558594 76.261719 299.652344 76.117188 299.722656 C 75.972656 299.792969 75.820312 299.832031 75.660156 299.839844 C 75.5 299.847656 75.34375 299.824219 75.191406 299.769531 C 75.039062 299.714844 74.90625 299.636719 74.785156 299.527344 C 74.667969 299.417969 74.574219 299.292969 74.503906 299.148438 C 74.433594 299.003906 74.394531 298.847656 74.386719 298.6875 C 74.378906 298.527344 74.402344 298.371094 74.457031 298.222656 C 74.511719 298.070312 74.59375 297.933594 74.699219 297.816406 C 74.808594 297.695312 74.933594 297.601562 75.078125 297.53125 C 75.222656 297.464844 75.378906 297.425781 75.539062 297.417969 C 75.699219 297.410156 75.855469 297.433594 76.003906 297.484375 C 76.15625 297.539062 76.292969 297.621094 76.410156 297.730469 C 76.53125 297.835938 76.625 297.964844 76.695312 298.109375 C 76.761719 298.253906 76.800781 298.40625 76.808594 298.566406 C 76.816406 298.726562 76.792969 298.882812 76.742188 299.035156 C 76.6875 299.1875 76.605469 299.320312 76.496094 299.441406 Z M 76.496094 299.441406 " fill-opacity="1" fill-rule="nonzero"/></g></g></g><g clip-path="url(#ac3ee9253f)"><g clip-path="url(#ca7edcb924)"><g clip-path="url(#288f283ace)"><path fill="#f3931c" d="M 85.167969 279.035156 C 85.058594 279.15625 84.933594 279.25 84.789062 279.320312 C 84.640625 279.386719 84.488281 279.425781 84.328125 279.433594 C 84.167969 279.441406 84.011719 279.417969 83.859375 279.367188 C 83.710938 279.3125 83.574219 279.230469 83.453125 279.125 C 83.335938 279.015625 83.242188 278.890625 83.171875 278.742188 C 83.105469 278.597656 83.066406 278.445312 83.058594 278.285156 C 83.050781 278.125 83.070312 277.96875 83.125 277.816406 C 83.179688 277.664062 83.261719 277.53125 83.367188 277.410156 C 83.476562 277.292969 83.601562 277.199219 83.75 277.128906 C 83.894531 277.058594 84.046875 277.023438 84.207031 277.011719 C 84.367188 277.003906 84.523438 277.027344 84.675781 277.082031 C 84.828125 277.136719 84.960938 277.21875 85.082031 277.324219 C 85.199219 277.433594 85.292969 277.558594 85.363281 277.703125 C 85.433594 277.847656 85.46875 278.003906 85.476562 278.164062 C 85.488281 278.324219 85.464844 278.480469 85.410156 278.632812 C 85.355469 278.78125 85.273438 278.917969 85.167969 279.035156 Z M 85.167969 279.035156 " fill-opacity="1" fill-rule="nonzero"/></g></g></g><g clip-path="url(#ef2b329a40)"><g clip-path="url(#1280a87097)"><g clip-path="url(#a6232c51b4)"><path fill="#f3931c" d="M 39.136719 244.941406 C 39.03125 245.058594 38.902344 245.15625 38.757812 245.222656 C 38.613281 245.292969 38.460938 245.332031 38.300781 245.339844 C 38.140625 245.347656 37.984375 245.324219 37.832031 245.269531 C 37.679688 245.214844 37.546875 245.136719 37.425781 245.027344 C 37.308594 244.917969 37.210938 244.792969 37.144531 244.648438 C 37.074219 244.503906 37.035156 244.351562 37.027344 244.1875 C 37.019531 244.027344 37.042969 243.871094 37.097656 243.722656 C 37.152344 243.570312 37.230469 243.433594 37.339844 243.316406 C 37.449219 243.195312 37.574219 243.101562 37.71875 243.035156 C 37.863281 242.964844 38.015625 242.925781 38.179688 242.917969 C 38.339844 242.910156 38.496094 242.933594 38.644531 242.988281 C 38.796875 243.039062 38.933594 243.121094 39.050781 243.230469 C 39.171875 243.335938 39.265625 243.464844 39.332031 243.609375 C 39.402344 243.753906 39.441406 243.90625 39.449219 244.066406 C 39.457031 244.226562 39.433594 244.382812 39.378906 244.535156 C 39.328125 244.6875 39.246094 244.820312 39.136719 244.941406 Z M 39.136719 244.941406 " fill-opacity="1" fill-rule="nonzero"/></g></g></g><g clip-path="url(#937c0ca5db)"><g clip-path="url(#843142cd4c)"><g clip-path="url(#ba3552254a)"><path fill="#f3931c" d="M 57.34375 269.515625 C 57.234375 269.632812 57.109375 269.730469 56.964844 269.796875 C 56.820312 269.867188 56.664062 269.90625 56.503906 269.914062 C 56.34375 269.921875 56.1875 269.898438 56.039062 269.84375 C 55.886719 269.789062 55.75 269.710938 55.632812 269.601562 C 55.511719 269.492188 55.417969 269.367188 55.347656 269.222656 C 55.28125 269.078125 55.242188 268.925781 55.234375 268.761719 C 55.226562 268.601562 55.25 268.445312 55.300781 268.296875 C 55.355469 268.144531 55.4375 268.007812 55.546875 267.890625 C 55.652344 267.769531 55.78125 267.675781 55.925781 267.605469 C 56.070312 267.539062 56.222656 267.5 56.382812 267.492188 C 56.542969 267.484375 56.699219 267.507812 56.851562 267.5625 C 57.003906 267.613281 57.136719 267.695312 57.257812 267.804688 C 57.375 267.910156 57.46875 268.039062 57.539062 268.183594 C 57.609375 268.328125 57.648438 268.480469 57.65625 268.640625 C 57.664062 268.800781 57.640625 268.957031 57.585938 269.109375 C 57.53125 269.261719 57.453125 269.394531 57.34375 269.515625 Z M 57.34375 269.515625 " fill-opacity="1" fill-rule="nonzero"/></g></g></g><g clip-path="url(#10bdaa6134)"><g clip-path="url(#d358d6b70b)"><g clip-path="url(#c481d589e8)"><path fill="#f3931c" d="M 3.375 212.171875 C 3.265625 212.292969 3.140625 212.386719 2.996094 212.457031 C 2.847656 212.523438 2.695312 212.5625 2.535156 212.570312 C 2.375 212.578125 2.21875 212.554688 2.066406 212.503906 C 1.917969 212.449219 1.78125 212.367188 1.660156 212.257812 C 1.542969 212.152344 1.449219 212.023438 1.378906 211.878906 C 1.3125 211.734375 1.273438 211.582031 1.265625 211.421875 C 1.257812 211.261719 1.277344 211.105469 1.332031 210.953125 C 1.386719 210.800781 1.46875 210.667969 1.574219 210.546875 C 1.683594 210.429688 1.808594 210.335938 1.957031 210.265625 C 2.101562 210.195312 2.253906 210.15625 2.414062 210.148438 C 2.574219 210.140625 2.730469 210.164062 2.882812 210.21875 C 3.03125 210.273438 3.167969 210.351562 3.289062 210.460938 C 3.40625 210.570312 3.5 210.695312 3.570312 210.839844 C 3.640625 210.984375 3.675781 211.140625 3.683594 211.300781 C 3.695312 211.460938 3.671875 211.617188 3.617188 211.765625 C 3.5625 211.917969 3.480469 212.054688 3.375 212.171875 Z M 3.375 212.171875 " fill-opacity="1" fill-rule="nonzero"/></g></g></g><g clip-path="url(#a27c5fb424)"><g clip-path="url(#3741c7cc3e)"><g clip-path="url(#c5e615be5a)"><path fill="#01768a" d="M 100.285156 293.660156 C 100.1875 294.105469 100.054688 294.539062 99.882812 294.957031 C 99.714844 295.378906 99.507812 295.777344 99.265625 296.15625 C 99.027344 296.535156 98.757812 296.882812 98.457031 297.207031 C 98.15625 297.53125 97.832031 297.816406 97.484375 298.074219 C 97.136719 298.328125 96.773438 298.542969 96.390625 298.71875 C 96.003906 298.894531 95.613281 299.027344 95.210938 299.121094 C 94.804688 299.210938 94.402344 299.257812 93.992188 299.261719 C 93.585938 299.265625 93.183594 299.222656 92.785156 299.140625 C 92.390625 299.054688 92.003906 298.925781 91.636719 298.757812 C 91.265625 298.585938 90.914062 298.375 90.582031 298.128906 C 90.253906 297.878906 89.949219 297.59375 89.671875 297.277344 C 89.394531 296.957031 89.152344 296.613281 88.9375 296.238281 C 88.726562 295.863281 88.546875 295.46875 88.40625 295.050781 C 88.265625 294.632812 88.164062 294.203125 88.101562 293.757812 C 88.035156 293.316406 88.011719 292.867188 88.027344 292.414062 C 88.046875 291.960938 88.101562 291.511719 88.195312 291.066406 C 88.292969 290.621094 88.425781 290.191406 88.597656 289.769531 C 88.765625 289.351562 88.972656 288.953125 89.210938 288.574219 C 89.453125 288.195312 89.722656 287.84375 90.023438 287.523438 C 90.324219 287.199219 90.648438 286.910156 90.996094 286.65625 C 91.34375 286.402344 91.707031 286.1875 92.089844 286.011719 C 92.472656 285.835938 92.867188 285.699219 93.269531 285.609375 C 93.675781 285.515625 94.078125 285.46875 94.488281 285.46875 C 94.894531 285.464844 95.296875 285.503906 95.695312 285.589844 C 96.089844 285.675781 96.476562 285.800781 96.84375 285.972656 C 97.214844 286.144531 97.566406 286.351562 97.898438 286.601562 C 98.226562 286.851562 98.53125 287.132812 98.808594 287.453125 C 99.085938 287.769531 99.328125 288.117188 99.542969 288.492188 C 99.753906 288.867188 99.933594 289.261719 100.074219 289.679688 C 100.214844 290.097656 100.316406 290.527344 100.378906 290.96875 C 100.445312 291.414062 100.46875 291.863281 100.453125 292.316406 C 100.433594 292.769531 100.378906 293.21875 100.285156 293.660156 Z M 100.285156 293.660156 " fill-opacity="1" fill-rule="nonzero"/></g></g></g><g clip-path="url(#0cdb1e2e7c)"><g clip-path="url(#ed22a20927)"><g clip-path="url(#9483a3bfd2)"><path fill="#f3931c" d="M 92.480469 292.15625 C 92.335938 292.3125 92.160156 292.398438 91.949219 292.40625 C 91.738281 292.417969 91.550781 292.351562 91.394531 292.210938 C 91.238281 292.070312 91.152344 291.890625 91.144531 291.679688 C 91.132812 291.46875 91.199219 291.285156 91.339844 291.125 C 91.480469 290.96875 91.660156 290.886719 91.871094 290.875 C 92.082031 290.863281 92.265625 290.929688 92.425781 291.070312 C 92.582031 291.214844 92.664062 291.390625 92.675781 291.601562 C 92.6875 291.8125 92.621094 292 92.480469 292.15625 Z M 92.480469 292.15625 " fill-opacity="1" fill-rule="nonzero"/></g></g></g></svg>